solid Default
  facet normal -4.247801e-07 -9.933927e-07 -1.000000e+00
    outer loop
      vertex 5.837460e+00 8.727811e+00 2.549496e-06
      vertex -5.837490e+00 8.727804e+00 7.508788e-06
      vertex -5.837502e+00 1.375759e+01 2.512243e-06
    endloop
  endfacet
  facet normal -5.205043e-08 -1.282243e-07 -1.000000e+00
    outer loop
      vertex 5.837448e+00 1.375760e+01 1.904555e-06
      vertex 5.837460e+00 8.727811e+00 2.549496e-06
      vertex -5.837502e+00 1.375759e+01 2.512243e-06
    endloop
  endfacet
  facet normal -1.000000e+00 0.000000e+00 0.000000e+00
    outer loop
      vertex -7.837490e+00 8.727800e+00 8.253846e-06
      vertex -7.837490e+00 6.212618e+00 1.213048e-06
      vertex -7.837490e+00 6.212603e+00 2.220083e+00
    endloop
  endfacet
  facet normal -1.000000e+00 0.000000e+00 0.000000e+00
    outer loop
      vertex -7.837490e+00 6.212603e+00 2.220083e+00
      vertex -7.837490e+00 8.727785e+00 2.220084e+00
      vertex -7.837490e+00 8.727800e+00 8.253846e-06
    endloop
  endfacet
  facet normal 8.192542e-13 -3.791670e-07 1.000000e+00
    outer loop
      vertex -5.837490e+00 8.727790e+00 2.220084e+00
      vertex -7.837490e+00 8.727785e+00 2.220084e+00
      vertex -7.837490e+00 6.212603e+00 2.220083e+00
    endloop
  endfacet
  facet normal -1.072879e-06 4.739540e-07 1.000000e+00
    outer loop
      vertex -7.837490e+00 6.212603e+00 2.220083e+00
      vertex -5.837479e+00 6.212608e+00 2.220085e+00
      vertex -5.837490e+00 8.727790e+00 2.220084e+00
    endloop
  endfacet
  facet normal -3.725347e-07 2.799319e-06 -1.000000e+00
    outer loop
      vertex -5.837490e+00 8.727804e+00 7.508788e-06
      vertex -5.837490e+00 6.212622e+00 4.679899e-07
      vertex -7.837490e+00 6.212618e+00 1.213048e-06
    endloop
  endfacet
  facet normal -3.725350e-07 2.799319e-06 -1.000000e+00
    outer loop
      vertex -7.837490e+00 6.212618e+00 1.213048e-06
      vertex -7.837490e+00 8.727800e+00 8.253846e-06
      vertex -5.837490e+00 8.727804e+00 7.508788e-06
    endloop
  endfacet
  facet normal 3.599738e-03 4.903346e-07 9.999935e-01
    outer loop
      vertex -5.837490e+00 8.727790e+00 2.220084e+00
      vertex -5.837479e+00 6.212608e+00 2.220085e+00
      vertex 5.837460e+00 6.212633e+00 2.178058e+00
    endloop
  endfacet
  facet normal 3.599041e-03 -2.748944e-06 9.999935e-01
    outer loop
      vertex 5.837460e+00 6.212633e+00 2.178058e+00
      vertex 5.837460e+00 8.727815e+00 2.178065e+00
      vertex -5.837490e+00 8.727790e+00 2.220084e+00
    endloop
  endfacet
  facet normal -3.736900e-07 -7.216973e-07 -1.000000e+00
    outer loop
      vertex -5.837460e+00 -6.211313e+00 9.431973e-06
      vertex -7.837460e+00 -6.211313e+00 1.017935e-05
      vertex -7.837490e+00 6.212618e+00 1.213048e-06
    endloop
  endfacet
  facet normal -3.725276e-07 -7.215102e-07 -1.000000e+00
    outer loop
      vertex -7.837490e+00 6.212618e+00 1.213048e-06
      vertex -5.837490e+00 6.212622e+00 4.679899e-07
      vertex -5.837460e+00 -6.211313e+00 9.431973e-06
    endloop
  endfacet
  facet normal -1.000000e+00 -2.456356e-06 -1.055169e-11
    outer loop
      vertex -7.837460e+00 -6.211313e+00 1.017935e-05
      vertex -7.837460e+00 -6.211322e+00 2.220093e+00
      vertex -7.837490e+00 6.212603e+00 2.220083e+00
    endloop
  endfacet
  facet normal -1.000000e+00 -2.456355e-06 -1.661892e-11
    outer loop
      vertex -7.837490e+00 6.212603e+00 2.220083e+00
      vertex -7.837490e+00 6.212618e+00 1.213048e-06
      vertex -7.837460e+00 -6.211313e+00 1.017935e-05
    endloop
  endfacet
  facet normal 4.768372e-07 5.565186e-07 1.000000e+00
    outer loop
      vertex -7.837460e+00 -6.211322e+00 2.220093e+00
      vertex -5.837460e+00 -6.211322e+00 2.220092e+00
      vertex -5.837479e+00 6.212608e+00 2.220085e+00
    endloop
  endfacet
  facet normal -1.072880e-06 8.059891e-07 1.000000e+00
    outer loop
      vertex -5.837479e+00 6.212608e+00 2.220085e+00
      vertex -7.837490e+00 6.212603e+00 2.220083e+00
      vertex -7.837460e+00 -6.211322e+00 2.220093e+00
    endloop
  endfacet
  facet normal -4.768372e-07 2.494724e-07 1.000000e+00
    outer loop
      vertex 5.837490e+00 -6.211293e+00 2.178068e+00
      vertex 7.837490e+00 -6.211293e+00 2.178069e+00
      vertex 7.837460e+00 6.212637e+00 2.178066e+00
    endloop
  endfacet
  facet normal -3.933908e-06 8.059820e-07 1.000000e+00
    outer loop
      vertex 7.837460e+00 6.212637e+00 2.178066e+00
      vertex 5.837460e+00 6.212633e+00 2.178058e+00
      vertex 5.837490e+00 -6.211293e+00 2.178068e+00
    endloop
  endfacet
  facet normal 1.000000e+00 2.456354e-06 1.183080e-11
    outer loop
      vertex 7.837490e+00 -6.211293e+00 2.178069e+00
      vertex 7.837490e+00 -6.211282e+00 9.748623e-06
      vertex 7.837460e+00 6.212652e+00 7.846390e-07
    endloop
  endfacet
  facet normal 1.000000e+00 2.456355e-06 1.693951e-11
    outer loop
      vertex 7.837460e+00 6.212652e+00 7.846390e-07
      vertex 7.837460e+00 6.212637e+00 2.178066e+00
      vertex 7.837490e+00 -6.211293e+00 2.178069e+00
    endloop
  endfacet
  facet normal 3.678780e-07 -7.254432e-07 -1.000000e+00
    outer loop
      vertex 7.837490e+00 -6.211282e+00 9.748623e-06
      vertex 5.837490e+00 -6.211293e+00 9.012874e-06
      vertex 5.837460e+00 6.212648e+00 0.000000e+00
    endloop
  endfacet
  facet normal 3.923210e-07 -7.215083e-07 -1.000000e+00
    outer loop
      vertex 5.837460e+00 6.212648e+00 0.000000e+00
      vertex 7.837460e+00 6.212652e+00 7.846390e-07
      vertex 7.837490e+00 -6.211282e+00 9.748623e-06
    endloop
  endfacet
  facet normal 1.000000e+00 2.456354e-06 1.055169e-11
    outer loop
      vertex -5.837460e+00 -6.211322e+00 2.220092e+00
      vertex -5.837460e+00 -6.211313e+00 9.431973e-06
      vertex -5.837490e+00 6.212622e+00 4.679899e-07
    endloop
  endfacet
  facet normal 1.000000e+00 1.535219e-06 -5.154790e-06
    outer loop
      vertex -5.837490e+00 6.212622e+00 4.679899e-07
      vertex -5.837479e+00 6.212608e+00 2.220085e+00
      vertex -5.837460e+00 -6.211322e+00 2.220092e+00
    endloop
  endfacet
  facet normal -1.000000e+00 -2.456356e-06 0.000000e+00
    outer loop
      vertex 5.837490e+00 -6.211293e+00 9.012874e-06
      vertex 5.837490e+00 -6.211293e+00 2.178068e+00
      vertex 5.837460e+00 6.212633e+00 2.178058e+00
    endloop
  endfacet
  facet normal -1.000000e+00 -2.456353e-06 -1.693955e-11
    outer loop
      vertex 5.837460e+00 6.212633e+00 2.178058e+00
      vertex 5.837460e+00 6.212648e+00 0.000000e+00
      vertex 5.837490e+00 -6.211293e+00 9.012874e-06
    endloop
  endfacet
  facet normal -2.532251e-06 1.000000e+00 0.000000e+00
    outer loop
      vertex -5.837460e+00 -6.211322e+00 2.220092e+00
      vertex 5.837490e+00 -6.211293e+00 2.178068e+00
      vertex 5.837490e+00 -6.211293e+00 9.012874e-06
    endloop
  endfacet
  facet normal -1.715396e-06 1.000000e+00 4.295670e-06
    outer loop
      vertex 5.837490e+00 -6.211293e+00 9.012874e-06
      vertex -5.837460e+00 -6.211313e+00 9.431973e-06
      vertex -5.837460e+00 -6.211322e+00 2.220092e+00
    endloop
  endfacet
  facet normal 2.225930e-06 -1.000000e+00 -6.896220e-06
    outer loop
      vertex -5.837490e+00 6.212622e+00 4.679899e-07
      vertex 5.837460e+00 6.212648e+00 0.000000e+00
      vertex 5.837460e+00 6.212633e+00 2.178058e+00
    endloop
  endfacet
  facet normal 2.121438e-06 -1.000000e+00 -6.336118e-06
    outer loop
      vertex 5.837460e+00 6.212633e+00 2.178058e+00
      vertex -5.837479e+00 6.212608e+00 2.220085e+00
      vertex -5.837490e+00 6.212622e+00 4.679899e-07
    endloop
  endfacet
  facet normal 1.000000e+00 0.000000e+00 0.000000e+00
    outer loop
      vertex 7.837490e+00 -8.726463e+00 1.011649e-05
      vertex 7.837490e+00 -6.211282e+00 9.748623e-06
      vertex 7.837490e+00 -6.211293e+00 2.178069e+00
    endloop
  endfacet
  facet normal 1.000000e+00 0.000000e+00 0.000000e+00
    outer loop
      vertex 7.837490e+00 -6.211293e+00 2.178069e+00
      vertex 7.837490e+00 -8.726472e+00 2.178070e+00
      vertex 7.837490e+00 -8.726463e+00 1.011649e-05
    endloop
  endfacet
  facet normal 1.000000e+00 0.000000e+00 0.000000e+00
    outer loop
      vertex 7.837460e+00 6.212652e+00 7.846390e-07
      vertex 7.837460e+00 8.727815e+00 7.729977e-06
      vertex 7.837460e+00 8.727819e+00 2.178066e+00
    endloop
  endfacet
  facet normal 1.000000e+00 0.000000e+00 0.000000e+00
    outer loop
      vertex 7.837460e+00 8.727819e+00 2.178066e+00
      vertex 7.837460e+00 6.212637e+00 2.178066e+00
      vertex 7.837460e+00 6.212652e+00 7.846390e-07
    endloop
  endfacet
  facet normal 3.678594e-07 2.836351e-06 -1.000000e+00
    outer loop
      vertex 5.837490e+00 -8.726472e+00 1.878943e-06
      vertex 5.837490e+00 -6.211293e+00 9.012874e-06
      vertex 7.837490e+00 -6.211282e+00 9.748623e-06
    endloop
  endfacet
  facet normal 4.118776e-06 -1.462601e-07 -1.000000e+00
    outer loop
      vertex 7.837490e+00 -6.211282e+00 9.748623e-06
      vertex 7.837490e+00 -8.726463e+00 1.011649e-05
      vertex 5.837490e+00 -8.726472e+00 1.878943e-06
    endloop
  endfacet
  facet normal 2.590238e-06 1.013650e-06 -1.000000e+00
    outer loop
      vertex 5.837460e+00 6.212648e+00 0.000000e+00
      vertex 5.837460e+00 8.727811e+00 2.549496e-06
      vertex 7.837460e+00 8.727815e+00 7.729977e-06
    endloop
  endfacet
  facet normal 3.923139e-07 2.761387e-06 -1.000000e+00
    outer loop
      vertex 7.837460e+00 8.727815e+00 7.729977e-06
      vertex 7.837460e+00 6.212652e+00 7.846390e-07
      vertex 5.837460e+00 6.212648e+00 0.000000e+00
    endloop
  endfacet
  facet normal -4.768372e-07 3.791675e-07 1.000000e+00
    outer loop
      vertex 5.837490e+00 -6.211293e+00 2.178068e+00
      vertex 5.837490e+00 -8.726472e+00 2.178069e+00
      vertex 7.837490e+00 -8.726472e+00 2.178070e+00
    endloop
  endfacet
  facet normal -4.768372e-07 3.791675e-07 1.000000e+00
    outer loop
      vertex 7.837490e+00 -8.726472e+00 2.178070e+00
      vertex 7.837490e+00 -6.211293e+00 2.178069e+00
      vertex 5.837490e+00 -6.211293e+00 2.178068e+00
    endloop
  endfacet
  facet normal 4.768372e-06 -1.000000e+00 0.000000e+00
    outer loop
      vertex 5.837490e+00 -8.726472e+00 2.178069e+00
      vertex 5.837490e+00 -8.726472e+00 1.878943e-06
      vertex 7.837490e+00 -8.726463e+00 1.011649e-05
    endloop
  endfacet
  facet normal 2.087855e-12 -1.000000e+00 -4.378549e-06
    outer loop
      vertex 7.837490e+00 -8.726463e+00 1.011649e-05
      vertex 7.837490e+00 -8.726472e+00 2.178070e+00
      vertex 5.837490e+00 -8.726472e+00 2.178069e+00
    endloop
  endfacet
  facet normal -2.145766e-06 1.000000e+00 -1.929296e-06
    outer loop
      vertex 5.837460e+00 8.727811e+00 2.549496e-06
      vertex 5.837460e+00 8.727815e+00 2.178065e+00
      vertex 7.837460e+00 8.727819e+00 2.178066e+00
    endloop
  endfacet
  facet normal -2.145762e-06 1.000000e+00 -1.929300e-06
    outer loop
      vertex 7.837460e+00 8.727815e+00 7.729977e-06
      vertex 5.837460e+00 8.727811e+00 2.549496e-06
      vertex 7.837460e+00 8.727819e+00 2.178066e+00
    endloop
  endfacet
  facet normal -3.933901e-06 -2.748961e-06 1.000000e+00
    outer loop
      vertex 5.837460e+00 8.727815e+00 2.178065e+00
      vertex 5.837460e+00 6.212633e+00 2.178058e+00
      vertex 7.837460e+00 6.212637e+00 2.178066e+00
    endloop
  endfacet
  facet normal -4.768372e-07 0.000000e+00 1.000000e+00
    outer loop
      vertex 7.837460e+00 6.212637e+00 2.178066e+00
      vertex 7.837460e+00 8.727819e+00 2.178066e+00
      vertex 5.837460e+00 8.727815e+00 2.178065e+00
    endloop
  endfacet
  facet normal -1.000000e+00 0.000000e+00 0.000000e+00
    outer loop
      vertex -7.837460e+00 -8.726503e+00 2.220092e+00
      vertex -7.837460e+00 -6.211322e+00 2.220093e+00
      vertex -7.837460e+00 -6.211313e+00 1.017935e-05
    endloop
  endfacet
  facet normal -1.000000e+00 0.000000e+00 0.000000e+00
    outer loop
      vertex -7.837460e+00 -6.211313e+00 1.017935e-05
      vertex -7.837460e+00 -8.726503e+00 9.066425e-06
      vertex -7.837460e+00 -8.726503e+00 2.220092e+00
    endloop
  endfacet
  facet normal 2.048320e-12 -1.000000e+00 -4.295654e-06
    outer loop
      vertex -5.837452e+00 -8.726493e+00 2.391171e-06
      vertex -5.837452e+00 -8.726503e+00 2.220093e+00
      vertex -7.837460e+00 -8.726503e+00 2.220092e+00
    endloop
  endfacet
  facet normal 4.768353e-06 -1.000000e+00 0.000000e+00
    outer loop
      vertex -7.837460e+00 -8.726503e+00 2.220092e+00
      vertex -7.837460e+00 -8.726503e+00 9.066425e-06
      vertex -5.837452e+00 -8.726493e+00 2.391171e-06
    endloop
  endfacet
  facet normal 4.768372e-07 3.791688e-07 1.000000e+00
    outer loop
      vertex -5.837452e+00 -8.726503e+00 2.220093e+00
      vertex -5.837460e+00 -6.211322e+00 2.220092e+00
      vertex -7.837460e+00 -6.211322e+00 2.220093e+00
    endloop
  endfacet
  facet normal -4.768353e-07 -3.791673e-07 1.000000e+00
    outer loop
      vertex -7.837460e+00 -6.211322e+00 2.220093e+00
      vertex -7.837460e+00 -8.726503e+00 2.220092e+00
      vertex -5.837452e+00 -8.726503e+00 2.220093e+00
    endloop
  endfacet
  facet normal -3.337628e-06 2.799313e-06 -1.000000e+00
    outer loop
      vertex -5.837460e+00 -6.211313e+00 9.431973e-06
      vertex -5.837452e+00 -8.726493e+00 2.391171e-06
      vertex -7.837460e+00 -8.726503e+00 9.066425e-06
    endloop
  endfacet
  facet normal -3.736900e-07 4.424826e-07 -1.000000e+00
    outer loop
      vertex -7.837460e+00 -8.726503e+00 9.066425e-06
      vertex -7.837460e+00 -6.211313e+00 1.017935e-05
      vertex -5.837460e+00 -6.211313e+00 9.431973e-06
    endloop
  endfacet
  facet normal -2.145765e-06 1.000000e+00 6.658307e-06
    outer loop
      vertex -5.837490e+00 8.727790e+00 2.220084e+00
      vertex -5.837490e+00 8.727804e+00 7.508788e-06
      vertex -7.837490e+00 8.727800e+00 8.253846e-06
    endloop
  endfacet
  facet normal -2.160668e-06 1.000000e+00 6.671733e-06
    outer loop
      vertex -7.837490e+00 8.727800e+00 8.253846e-06
      vertex -7.837490e+00 8.727785e+00 2.220084e+00
      vertex -5.837490e+00 8.727790e+00 2.220084e+00
    endloop
  endfacet
  facet normal 3.599470e-03 3.791650e-07 9.999935e-01
    outer loop
      vertex 5.837490e+00 -8.726472e+00 2.178069e+00
      vertex 5.837490e+00 -6.211293e+00 2.178068e+00
      vertex -5.837460e+00 -6.211322e+00 2.220092e+00
    endloop
  endfacet
  facet normal 3.599472e-03 3.900833e-07 9.999935e-01
    outer loop
      vertex -5.837460e+00 -6.211322e+00 2.220092e+00
      vertex -5.837452e+00 -8.726503e+00 2.220093e+00
      vertex 5.837490e+00 -8.726472e+00 2.178069e+00
    endloop
  endfacet
  facet normal 3.599472e-03 -1.413472e-06 9.999935e-01
    outer loop
      vertex 5.837502e+00 -1.375757e+01 2.178062e+00
      vertex 5.837490e+00 -8.726472e+00 2.178069e+00
      vertex -5.837452e+00 -8.726503e+00 2.220093e+00
    endloop
  endfacet
  facet normal 3.600268e-03 4.346873e-07 9.999935e-01
    outer loop
      vertex -5.837452e+00 -8.726503e+00 2.220093e+00
      vertex -5.837440e+00 -1.375760e+01 2.220095e+00
      vertex 5.837502e+00 -1.375757e+01 2.178062e+00
    endloop
  endfacet
  facet normal -1.000000e+00 -2.274670e-06 -9.771197e-12
    outer loop
      vertex -5.837440e+00 -1.375760e+01 2.220095e+00
      vertex -5.837452e+00 -8.726503e+00 2.220093e+00
      vertex -5.837452e+00 -8.726493e+00 2.391171e-06
    endloop
  endfacet
  facet normal -1.000000e+00 9.494453e-13 5.154782e-06
    outer loop
      vertex -5.837452e+00 -8.726493e+00 2.391171e-06
      vertex -5.837452e+00 -1.375760e+01 3.317837e-06
      vertex -5.837440e+00 -1.375760e+01 2.220095e+00
    endloop
  endfacet
  facet normal 1.000000e+00 2.274665e-06 0.000000e+00
    outer loop
      vertex 5.837502e+00 -1.375758e+01 2.712477e-06
      vertex 5.837490e+00 -8.726472e+00 1.878943e-06
      vertex 5.837490e+00 -8.726472e+00 2.178069e+00
    endloop
  endfacet
  facet normal 1.000000e+00 2.274670e-06 -1.195171e-11
    outer loop
      vertex 5.837490e+00 -8.726472e+00 2.178069e+00
      vertex 5.837502e+00 -1.375757e+01 2.178062e+00
      vertex 5.837502e+00 -1.375758e+01 2.712477e-06
    endloop
  endfacet
  facet normal -4.387379e-08 -1.841873e-07 -1.000000e+00
    outer loop
      vertex -5.837452e+00 -1.375760e+01 3.317837e-06
      vertex -5.837452e+00 -8.726493e+00 2.391171e-06
      vertex 5.837490e+00 -8.726472e+00 1.878943e-06
    endloop
  endfacet
  facet normal -5.185091e-08 -1.656760e-07 -1.000000e+00
    outer loop
      vertex 5.837490e+00 -8.726472e+00 1.878943e-06
      vertex 5.837502e+00 -1.375758e+01 2.712477e-06
      vertex -5.837452e+00 -1.375760e+01 3.317837e-06
    endloop
  endfacet
  facet normal 3.599041e-03 8.188757e-09 9.999935e-01
    outer loop
      vertex -5.837502e+00 1.375758e+01 2.220084e+00
      vertex -5.837490e+00 8.727790e+00 2.220084e+00
      vertex 5.837460e+00 8.727815e+00 2.178065e+00
    endloop
  endfacet
  facet normal 3.448120e-07 -8.352950e-03 9.999651e-01
    outer loop
      vertex 5.837460e+00 8.727815e+00 2.178065e+00
      vertex 5.837448e+00 1.375761e+01 2.220080e+00
      vertex -5.837502e+00 1.375758e+01 2.220084e+00
    endloop
  endfacet
  facet normal -1.000000e+00 -2.275261e-06 -5.375577e-12
    outer loop
      vertex -5.837490e+00 8.727790e+00 2.220084e+00
      vertex -5.837502e+00 1.375758e+01 2.220084e+00
      vertex -5.837502e+00 1.375759e+01 2.512243e-06
    endloop
  endfacet
  facet normal -1.000000e+00 -2.275265e-06 -1.514941e-11
    outer loop
      vertex -5.837502e+00 1.375759e+01 2.512243e-06
      vertex -5.837490e+00 8.727804e+00 7.508788e-06
      vertex -5.837490e+00 8.727790e+00 2.220084e+00
    endloop
  endfacet
  facet normal 1.000000e+00 2.275261e-06 -3.909516e-12
    outer loop
      vertex 5.837460e+00 8.727811e+00 2.549496e-06
      vertex 5.837448e+00 1.375760e+01 1.904555e-06
      vertex 5.837448e+00 1.375761e+01 2.220080e+00
    endloop
  endfacet
  facet normal 1.000000e+00 2.275261e-06 -4.389652e-12
    outer loop
      vertex 5.837460e+00 8.727815e+00 2.178065e+00
      vertex 5.837460e+00 8.727811e+00 2.549496e-06
      vertex 5.837448e+00 1.375761e+01 2.220080e+00
    endloop
  endfacet
  facet normal -4.247821e-07 2.799319e-06 -1.000000e+00
    outer loop
      vertex -5.837490e+00 8.727804e+00 7.508788e-06
      vertex 5.837460e+00 8.727811e+00 2.549496e-06
      vertex -5.837490e+00 6.212622e+00 4.679899e-07
    endloop
  endfacet
  facet normal -4.008722e-08 1.013650e-06 -1.000000e+00
    outer loop
      vertex 5.837460e+00 8.727811e+00 2.549496e-06
      vertex 5.837460e+00 6.212648e+00 0.000000e+00
      vertex -5.837490e+00 6.212622e+00 4.679899e-07
    endloop
  endfacet
  facet normal -3.590207e-08 2.799323e-06 -1.000000e+00
    outer loop
      vertex -5.837452e+00 -8.726493e+00 2.391171e-06
      vertex -5.837460e+00 -6.211313e+00 9.431973e-06
      vertex 5.837490e+00 -6.211293e+00 9.012874e-06
    endloop
  endfacet
  facet normal -4.387922e-08 2.836351e-06 -1.000000e+00
    outer loop
      vertex 5.837490e+00 -6.211293e+00 9.012874e-06
      vertex 5.837490e+00 -8.726472e+00 1.878943e-06
      vertex -5.837452e+00 -8.726493e+00 2.391171e-06
    endloop
  endfacet
  facet normal -5.205001e-08 -4.330636e-07 -1.000000e+00
    outer loop
      vertex 5.837448e+00 1.375760e+01 1.904555e-06
      vertex -5.837502e+00 1.375759e+01 2.512243e-06
      vertex -5.837502e+00 1.475759e+01 2.079178e-06
    endloop
  endfacet
  facet normal -5.185058e-08 -4.307353e-07 -1.000000e+00
    outer loop
      vertex -5.837502e+00 1.475759e+01 2.079178e-06
      vertex 5.837448e+00 1.475761e+01 1.473818e-06
      vertex 5.837448e+00 1.375760e+01 1.904555e-06
    endloop
  endfacet
  facet normal 3.267421e-07 0.000000e+00 1.000000e+00
    outer loop
      vertex -5.837502e+00 1.375758e+01 2.220084e+00
      vertex 5.837448e+00 1.375761e+01 2.220080e+00
      vertex 5.837448e+00 1.475761e+01 2.220080e+00
    endloop
  endfacet
  facet normal 2.450545e-07 9.536711e-07 1.000000e+00
    outer loop
      vertex 5.837448e+00 1.475761e+01 2.220080e+00
      vertex -5.837502e+00 1.475759e+01 2.220083e+00
      vertex -5.837502e+00 1.375758e+01 2.220084e+00
    endloop
  endfacet
  facet normal -2.205508e-06 1.000000e+00 2.577404e-06
    outer loop
      vertex -5.837502e+00 1.475759e+01 2.079178e-06
      vertex -5.837502e+00 1.475759e+01 2.220083e+00
      vertex 5.837448e+00 1.475761e+01 2.220080e+00
    endloop
  endfacet
  facet normal -1.388654e-06 1.000000e+00 -1.718271e-06
    outer loop
      vertex 5.837448e+00 1.475761e+01 2.220080e+00
      vertex 5.837448e+00 1.475761e+01 1.473818e-06
      vertex -5.837502e+00 1.475759e+01 2.079178e-06
    endloop
  endfacet
  facet normal 3.600268e-03 1.907336e-06 9.999935e-01
    outer loop
      vertex 5.837502e+00 -1.375757e+01 2.178062e+00
      vertex -5.837440e+00 -1.375760e+01 2.220095e+00
      vertex -5.837440e+00 -1.475760e+01 2.220097e+00
    endloop
  endfacet
  facet normal 3.600248e-03 2.145729e-06 9.999935e-01
    outer loop
      vertex -5.837440e+00 -1.475760e+01 2.220097e+00
      vertex 5.837502e+00 -1.475758e+01 2.178064e+00
      vertex 5.837502e+00 -1.375757e+01 2.178062e+00
    endloop
  endfacet
  facet normal -5.184805e-08 -1.913868e-06 -1.000000e+00
    outer loop
      vertex -5.837452e+00 -1.375760e+01 3.317837e-06
      vertex 5.837502e+00 -1.375758e+01 2.712477e-06
      vertex 5.837502e+00 -1.475758e+01 4.626345e-06
    endloop
  endfacet
  facet normal -5.204593e-08 -1.916178e-06 -1.000000e+00
    outer loop
      vertex 5.837502e+00 -1.475758e+01 4.626345e-06
      vertex -5.837440e+00 -1.475761e+01 5.234033e-06
      vertex -5.837452e+00 -1.375760e+01 3.317837e-06
    endloop
  endfacet
  facet normal 2.450567e-06 -1.000000e+00 4.295652e-06
    outer loop
      vertex -5.837440e+00 -1.475760e+01 2.220097e+00
      vertex -5.837440e+00 -1.475761e+01 5.234033e-06
      vertex 5.837502e+00 -1.475758e+01 4.626345e-06
    endloop
  endfacet
  facet normal 1.633711e-06 -1.000000e+00 0.000000e+00
    outer loop
      vertex 5.837502e+00 -1.475758e+01 4.626345e-06
      vertex 5.837502e+00 -1.475758e+01 2.178064e+00
      vertex -5.837440e+00 -1.475760e+01 2.220097e+00
    endloop
  endfacet
  facet normal 3.632158e-07 -1.913868e-06 -1.000000e+00
    outer loop
      vertex 5.837502e+00 -1.475758e+01 4.626345e-06
      vertex 5.837502e+00 -1.375758e+01 2.712477e-06
      vertex 6.087502e+00 -1.375758e+01 2.803281e-06
    endloop
  endfacet
  facet normal 5.494803e-07 -1.916171e-06 -1.000000e+00
    outer loop
      vertex -5.837452e+00 -1.375760e+01 3.317837e-06
      vertex -5.837440e+00 -1.475761e+01 5.234033e-06
      vertex -6.087452e+00 -1.375760e+01 3.180467e-06
    endloop
  endfacet
  facet normal 0.000000e+00 2.145743e-06 1.000000e+00
    outer loop
      vertex 5.837502e+00 -1.375757e+01 2.178062e+00
      vertex 5.837502e+00 -1.475758e+01 2.178064e+00
      vertex 6.087502e+00 -1.375757e+01 2.178062e+00
    endloop
  endfacet
  facet normal 0.000000e+00 1.907349e-06 1.000000e+00
    outer loop
      vertex -5.837440e+00 -1.475760e+01 2.220097e+00
      vertex -5.837440e+00 -1.375760e+01 2.220095e+00
      vertex -6.087452e+00 -1.375760e+01 2.220095e+00
    endloop
  endfacet
  facet normal 0.000000e+00 9.536711e-07 1.000000e+00
    outer loop
      vertex -5.837502e+00 1.375758e+01 2.220084e+00
      vertex -5.837502e+00 1.475759e+01 2.220083e+00
      vertex -6.087502e+00 1.375758e+01 2.220084e+00
    endloop
  endfacet
  facet normal 0.000000e+00 0.000000e+00 1.000000e+00
    outer loop
      vertex 5.837448e+00 1.475761e+01 2.220080e+00
      vertex 5.837448e+00 1.375761e+01 2.220080e+00
      vertex 6.087448e+00 1.375761e+01 2.220080e+00
    endloop
  endfacet
  facet normal 3.725298e-07 -4.307353e-07 -1.000000e+00
    outer loop
      vertex 5.837448e+00 1.375760e+01 1.904555e-06
      vertex 5.837448e+00 1.475761e+01 1.473818e-06
      vertex 6.087448e+00 1.375760e+01 1.997687e-06
    endloop
  endfacet
  facet normal 5.494820e-07 -4.330636e-07 -1.000000e+00
    outer loop
      vertex -5.837502e+00 1.475759e+01 2.079178e-06
      vertex -5.837502e+00 1.375759e+01 2.512243e-06
      vertex -6.087502e+00 1.375759e+01 2.374873e-06
    endloop
  endfacet
  facet normal 3.814697e-06 -1.000000e+00 1.718271e-06
    outer loop
      vertex 5.837448e+00 1.375761e+01 2.220080e+00
      vertex 5.837448e+00 1.375760e+01 1.904555e-06
      vertex 6.087448e+00 1.375760e+01 1.997687e-06
    endloop
  endfacet
  facet normal 3.814697e-06 -1.000000e+00 1.718271e-06
    outer loop
      vertex 6.087448e+00 1.375760e+01 1.997687e-06
      vertex 6.087448e+00 1.375761e+01 2.220080e+00
      vertex 5.837448e+00 1.375761e+01 2.220080e+00
    endloop
  endfacet
  facet normal 0.000000e+00 -1.000000e+00 -2.362620e-06
    outer loop
      vertex -5.837502e+00 1.375759e+01 2.512243e-06
      vertex -5.837502e+00 1.375758e+01 2.220084e+00
      vertex -6.087502e+00 1.375758e+01 2.220084e+00
    endloop
  endfacet
  facet normal 3.814698e-06 -1.000000e+00 -1.933052e-06
    outer loop
      vertex -6.087502e+00 1.375758e+01 2.220084e+00
      vertex -6.087502e+00 1.375759e+01 2.374873e-06
      vertex -5.837502e+00 1.375759e+01 2.512243e-06
    endloop
  endfacet
  facet normal 0.000000e+00 1.000000e+00 0.000000e+00
    outer loop
      vertex -5.837440e+00 -1.375760e+01 2.220095e+00
      vertex -5.837452e+00 -1.375760e+01 3.317837e-06
      vertex -6.087452e+00 -1.375760e+01 3.180467e-06
    endloop
  endfacet
  facet normal 0.000000e+00 1.000000e+00 0.000000e+00
    outer loop
      vertex -6.087452e+00 -1.375760e+01 3.180467e-06
      vertex -6.087452e+00 -1.375760e+01 2.220095e+00
      vertex -5.837440e+00 -1.375760e+01 2.220095e+00
    endloop
  endfacet
  facet normal 0.000000e+00 1.000000e+00 -5.254260e-06
    outer loop
      vertex 5.837502e+00 -1.375758e+01 2.712477e-06
      vertex 5.837502e+00 -1.375757e+01 2.178062e+00
      vertex 6.087502e+00 -1.375757e+01 2.178062e+00
    endloop
  endfacet
  facet normal 1.908430e-12 1.000000e+00 -5.254260e-06
    outer loop
      vertex 6.087502e+00 -1.375757e+01 2.178062e+00
      vertex 6.087502e+00 -1.375758e+01 2.803281e-06
      vertex 5.837502e+00 -1.375758e+01 2.712477e-06
    endloop
  endfacet
  facet normal 9.701431e-01 -2.425330e-01 1.274332e-06
    outer loop
      vertex 6.087502e+00 -1.375758e+01 2.803281e-06
      vertex 6.087502e+00 -1.375757e+01 2.178062e+00
      vertex 5.837502e+00 -1.475758e+01 2.178064e+00
    endloop
  endfacet
  facet normal 9.701425e-01 -2.425356e-01 0.000000e+00
    outer loop
      vertex 5.837502e+00 -1.475758e+01 2.178064e+00
      vertex 5.837502e+00 -1.475758e+01 4.626345e-06
      vertex 6.087502e+00 -1.375758e+01 2.803281e-06
    endloop
  endfacet
  facet normal -9.701405e-01 -2.425439e-01 -0.000000e+00
    outer loop
      vertex -6.087452e+00 -1.375760e+01 2.220095e+00
      vertex -6.087452e+00 -1.375760e+01 3.180467e-06
      vertex -5.837440e+00 -1.475761e+01 5.234033e-06
    endloop
  endfacet
  facet normal -9.701399e-01 -2.425461e-01 1.041894e-06
    outer loop
      vertex -5.837440e+00 -1.475761e+01 5.234033e-06
      vertex -5.837440e+00 -1.475760e+01 2.220097e+00
      vertex -6.087452e+00 -1.375760e+01 2.220095e+00
    endloop
  endfacet
  facet normal -9.701427e-01 2.425349e-01 4.688326e-07
    outer loop
      vertex -6.087502e+00 1.375759e+01 2.374873e-06
      vertex -6.087502e+00 1.375758e+01 2.220084e+00
      vertex -5.837502e+00 1.475759e+01 2.220083e+00
    endloop
  endfacet
  facet normal -9.701428e-01 2.425345e-01 6.251095e-07
    outer loop
      vertex -5.837502e+00 1.475759e+01 2.220083e+00
      vertex -5.837502e+00 1.475759e+01 2.079178e-06
      vertex -6.087502e+00 1.375759e+01 2.374873e-06
    endloop
  endfacet
  facet normal 9.701427e-01 2.425350e-01 -4.167409e-07
    outer loop
      vertex 6.087448e+00 1.375761e+01 2.220080e+00
      vertex 6.087448e+00 1.375760e+01 1.997687e-06
      vertex 5.837448e+00 1.475761e+01 1.473818e-06
    endloop
  endfacet
  facet normal 9.701427e-01 2.425350e-01 -4.167408e-07
    outer loop
      vertex 5.837448e+00 1.475761e+01 1.473818e-06
      vertex 5.837448e+00 1.475761e+01 2.220080e+00
      vertex 6.087448e+00 1.375761e+01 2.220080e+00
    endloop
  endfacet
endsolid Default
