solid Default
  facet normal -2.435624e-01 9.698852e-01 4.773557e-07
    outer loop
      vertex -9.755376e+00 3.193675e+00 2.220096e+00
      vertex -8.755636e+00 3.444735e+00 2.220094e+00
      vertex -9.755380e+00 3.193675e+00 3.933907e-06
    endloop
  endfacet
  facet normal -2.435625e-01 9.698852e-01 5.492863e-07
    outer loop
      vertex -8.755636e+00 3.444735e+00 2.220094e+00
      vertex -8.755641e+00 3.444735e+00 1.884997e-06
      vertex -9.755380e+00 3.193675e+00 3.933907e-06
    endloop
  endfacet
  facet normal -2.415079e-01 -9.703988e-01 4.692455e-07
    outer loop
      vertex -9.748836e+00 -2.997575e+00 2.178062e+00
      vertex -9.748841e+00 -2.997575e+00 2.764165e-06
      vertex -8.748573e+00 -3.246516e+00 7.972121e-07
    endloop
  endfacet
  facet normal -2.415080e-01 -9.703988e-01 4.362002e-07
    outer loop
      vertex -8.748573e+00 -3.246516e+00 7.972121e-07
      vertex -8.748569e+00 -3.246516e+00 2.178060e+00
      vertex -9.748836e+00 -2.997575e+00 2.178062e+00
    endloop
  endfacet
  facet normal 2.435630e-01 -9.698851e-01 -1.255522e-06
    outer loop
      vertex 9.755369e+00 -2.976975e+00 9.983778e-07
      vertex 9.755380e+00 -2.976975e+00 2.220079e+00
      vertex 8.755640e+00 -3.228036e+00 2.220080e+00
    endloop
  endfacet
  facet normal 2.435634e-01 -9.698850e-01 -1.046270e-06
    outer loop
      vertex 8.755640e+00 -3.228036e+00 2.220080e+00
      vertex 8.755630e+00 -3.228036e+00 1.378357e-06
      vertex 9.755369e+00 -2.976975e+00 9.983778e-07
    endloop
  endfacet
  facet normal 2.415150e-01 9.703971e-01 0.000000e+00
    outer loop
      vertex 9.748840e+00 3.214274e+00 2.220084e+00
      vertex 9.748840e+00 3.214274e+00 2.153218e-06
      vertex 8.748569e+00 3.463224e+00 2.458692e-06
    endloop
  endfacet
  facet normal 2.415150e-01 9.703971e-01 0.000000e+00
    outer loop
      vertex 8.748569e+00 3.463224e+00 2.458692e-06
      vertex 8.748569e+00 3.463224e+00 2.220084e+00
      vertex 9.748840e+00 3.214274e+00 2.220084e+00
    endloop
  endfacet
  facet normal 9.999995e-01 1.056194e-03 -1.806151e-06
    outer loop
      vertex -8.748569e+00 -3.246516e+00 2.178060e+00
      vertex -8.748573e+00 -3.246516e+00 7.972121e-07
      vertex -8.748837e+00 -2.996516e+00 8.493662e-07
    endloop
  endfacet
  facet normal 9.999995e-01 1.055717e-03 -1.860883e-06
    outer loop
      vertex -8.748837e+00 -2.996516e+00 8.493662e-07
      vertex -8.748833e+00 -2.996516e+00 2.178060e+00
      vertex -8.748569e+00 -3.246516e+00 2.178060e+00
    endloop
  endfacet
  facet normal 9.999995e-01 1.055717e-03 -2.255216e-06
    outer loop
      vertex -8.755641e+00 3.444735e+00 1.884997e-06
      vertex -8.755636e+00 3.444735e+00 2.220094e+00
      vertex -8.755373e+00 3.194735e+00 2.220094e+00
    endloop
  endfacet
  facet normal 9.999995e-01 1.056194e-03 -2.201520e-06
    outer loop
      vertex -8.755373e+00 3.194735e+00 2.220094e+00
      vertex -8.755377e+00 3.194735e+00 2.019107e-06
      vertex -8.755641e+00 3.444735e+00 1.884997e-06
    endloop
  endfacet
  facet normal -9.999994e-01 -1.083373e-03 -0.000000e+00
    outer loop
      vertex 8.748569e+00 3.463224e+00 2.220084e+00
      vertex 8.748569e+00 3.463224e+00 2.458692e-06
      vertex 8.748840e+00 3.213224e+00 2.592802e-06
    endloop
  endfacet
  facet normal -9.999995e-01 -1.037597e-03 -5.154804e-06
    outer loop
      vertex 8.748840e+00 3.213224e+00 2.592802e-06
      vertex 8.748829e+00 3.213224e+00 2.220084e+00
      vertex 8.748569e+00 3.463224e+00 2.220084e+00
    endloop
  endfacet
  facet normal -9.999994e-01 -1.083373e-03 4.295675e-06
    outer loop
      vertex 8.755630e+00 -3.228036e+00 1.378357e-06
      vertex 8.755640e+00 -3.228036e+00 2.220080e+00
      vertex 8.755369e+00 -2.978036e+00 2.220080e+00
    endloop
  endfacet
  facet normal -9.999995e-01 -1.045226e-03 -0.000000e+00
    outer loop
      vertex 8.755369e+00 -2.978036e+00 2.220080e+00
      vertex 8.755369e+00 -2.978036e+00 1.423061e-06
      vertex 8.755630e+00 -3.228036e+00 1.378357e-06
    endloop
  endfacet
  facet normal 1.907340e-06 2.013612e-09 1.000000e+00
    outer loop
      vertex -8.755373e+00 3.194735e+00 2.220094e+00
      vertex -8.755636e+00 3.444735e+00 2.220094e+00
      vertex -9.755376e+00 3.193675e+00 2.220096e+00
    endloop
  endfacet
  facet normal 2.145758e-06 2.265315e-09 1.000000e+00
    outer loop
      vertex -9.748836e+00 -2.997575e+00 2.178062e+00
      vertex -8.748569e+00 -3.246516e+00 2.178060e+00
      vertex -8.748833e+00 -2.996516e+00 2.178060e+00
    endloop
  endfacet
  facet normal -1.914223e-06 -5.384636e-07 -1.000000e+00
    outer loop
      vertex -9.755380e+00 3.193675e+00 3.933907e-06
      vertex -8.755641e+00 3.444735e+00 1.884997e-06
      vertex -8.755377e+00 3.194735e+00 2.019107e-06
    endloop
  endfacet
  facet normal -1.915012e-06 2.065936e-07 -1.000000e+00
    outer loop
      vertex -9.748841e+00 -2.997575e+00 2.764165e-06
      vertex -8.748837e+00 -2.996516e+00 8.493662e-07
      vertex -8.748573e+00 -3.246516e+00 7.972121e-07
    endloop
  endfacet
  facet normal -4.390205e-07 -5.369174e-07 -1.000000e+00
    outer loop
      vertex 9.748840e+00 3.214274e+00 2.153218e-06
      vertex 8.748840e+00 3.213224e+00 2.592802e-06
      vertex 8.748569e+00 3.463224e+00 2.458692e-06
    endloop
  endfacet
  facet normal -4.248722e-07 1.783698e-07 -1.000000e+00
    outer loop
      vertex 9.755369e+00 -2.976975e+00 9.983778e-07
      vertex 8.755630e+00 -3.228036e+00 1.378357e-06
      vertex 8.755369e+00 -2.978036e+00 1.423061e-06
    endloop
  endfacet
  facet normal 9.536623e-07 1.033173e-09 1.000000e+00
    outer loop
      vertex 9.755380e+00 -2.976975e+00 2.220079e+00
      vertex 8.755369e+00 -2.978036e+00 2.220080e+00
      vertex 8.755640e+00 -3.228036e+00 2.220080e+00
    endloop
  endfacet
  facet normal 0.000000e+00 0.000000e+00 1.000000e+00
    outer loop
      vertex 9.748840e+00 3.214274e+00 2.220084e+00
      vertex 8.748569e+00 3.463224e+00 2.220084e+00
      vertex 8.748829e+00 3.213224e+00 2.220084e+00
    endloop
  endfacet
  facet normal 9.999995e-01 1.054529e-03 -5.154812e-06
    outer loop
      vertex 9.755380e+00 -2.976975e+00 2.220079e+00
      vertex 9.755369e+00 -2.976975e+00 9.983778e-07
      vertex 9.748840e+00 3.214274e+00 2.153218e-06
    endloop
  endfacet
  facet normal 9.999995e-01 1.056377e-03 0.000000e+00
    outer loop
      vertex 9.748840e+00 3.214274e+00 2.153218e-06
      vertex 9.748840e+00 3.214274e+00 2.220084e+00
      vertex 9.755380e+00 -2.976975e+00 2.220079e+00
    endloop
  endfacet
  facet normal 8.491082e-10 -8.086872e-07 1.000000e+00
    outer loop
      vertex 9.755380e+00 -2.976975e+00 2.220079e+00
      vertex 9.748840e+00 3.214274e+00 2.220084e+00
      vertex 8.748829e+00 3.213224e+00 2.220084e+00
    endloop
  endfacet
  facet normal 9.543566e-07 -6.536430e-07 1.000000e+00
    outer loop
      vertex 8.748829e+00 3.213224e+00 2.220084e+00
      vertex 8.755369e+00 -2.978036e+00 2.220080e+00
      vertex 9.755380e+00 -2.976975e+00 2.220079e+00
    endloop
  endfacet
  facet normal -4.248804e-07 1.860797e-07 -1.000000e+00
    outer loop
      vertex 9.748840e+00 3.214274e+00 2.153218e-06
      vertex 9.755369e+00 -2.976975e+00 9.983778e-07
      vertex 8.755369e+00 -2.978036e+00 1.423061e-06
    endloop
  endfacet
  facet normal -4.397822e-07 1.884705e-07 -1.000000e+00
    outer loop
      vertex 8.755369e+00 -2.978036e+00 1.423061e-06
      vertex 8.748840e+00 3.213224e+00 2.592802e-06
      vertex 9.748840e+00 3.214274e+00 2.153218e-06
    endloop
  endfacet
  facet normal -9.999995e-01 -1.056275e-03 1.942981e-06
    outer loop
      vertex -9.748841e+00 -2.997575e+00 2.764165e-06
      vertex -9.748836e+00 -2.997575e+00 2.178062e+00
      vertex -9.755376e+00 3.193675e+00 2.220096e+00
    endloop
  endfacet
  facet normal -9.999995e-01 -1.056281e-03 1.959890e-06
    outer loop
      vertex -9.755376e+00 3.193675e+00 2.220096e+00
      vertex -9.755380e+00 3.193675e+00 3.933907e-06
      vertex -9.748841e+00 -2.997575e+00 2.764165e-06
    endloop
  endfacet
  facet normal -1.914992e-06 1.869118e-07 -1.000000e+00
    outer loop
      vertex -9.748841e+00 -2.997575e+00 2.764165e-06
      vertex -9.755380e+00 3.193675e+00 3.933907e-06
      vertex -8.755377e+00 3.194735e+00 2.019107e-06
    endloop
  endfacet
  facet normal -1.914991e-06 1.869117e-07 -1.000000e+00
    outer loop
      vertex -8.755377e+00 3.194735e+00 2.019107e-06
      vertex -8.748837e+00 -2.996516e+00 8.493662e-07
      vertex -9.748841e+00 -2.997575e+00 2.764165e-06
    endloop
  endfacet
  facet normal 9.332462e-06 -6.789078e-03 9.999769e-01
    outer loop
      vertex -9.755376e+00 3.193675e+00 2.220096e+00
      vertex -9.748836e+00 -2.997575e+00 2.178062e+00
      vertex -8.748833e+00 -2.996516e+00 2.178060e+00
    endloop
  endfacet
  facet normal 9.100560e-06 -6.789116e-03 9.999769e-01
    outer loop
      vertex -8.748833e+00 -2.996516e+00 2.178060e+00
      vertex -8.755373e+00 3.194735e+00 2.220094e+00
      vertex -9.755376e+00 3.193675e+00 2.220096e+00
    endloop
  endfacet
  facet normal 2.000201e-07 -7.921343e-08 -1.000000e+00
    outer loop
      vertex -7.184937e-01 -2.988046e+00 8.992851e-06
      vertex -6.233675e+00 -2.993865e+00 7.890165e-06
      vertex -6.240216e+00 3.197385e+00 7.398427e-06
    endloop
  endfacet
  facet normal 2.337614e-07 -4.909262e-08 -1.000000e+00
    outer loop
      vertex -6.240216e+00 3.197385e+00 7.398427e-06
      vertex -7.250330e-01 3.203215e+00 8.687377e-06
      vertex -7.184937e-01 -2.988046e+00 8.992851e-06
    endloop
  endfacet
  facet normal 2.378150e-07 -4.908830e-08 -1.000000e+00
    outer loop
      vertex 6.240150e+00 -2.980695e+00 1.616776e-06
      vertex 7.249897e-01 -2.986516e+00 3.054738e-07
      vertex 7.184494e-01 3.204744e+00 0.000000e+00
    endloop
  endfacet
  facet normal 1.309437e-06 9.075417e-07 -1.000000e+00
    outer loop
      vertex 7.184494e-01 3.204744e+00 0.000000e+00
      vertex 6.233629e+00 3.210565e+00 7.227063e-06
      vertex 6.240150e+00 -2.980695e+00 1.616776e-06
    endloop
  endfacet
  facet normal 1.053237e-03 -9.999995e-01 4.378542e-06
    outer loop
      vertex 8.755369e+00 -2.978036e+00 2.220080e+00
      vertex 6.240150e+00 -2.980685e+00 2.178064e+00
      vertex 6.240150e+00 -2.980695e+00 1.616776e-06
    endloop
  endfacet
  facet normal 1.057102e-03 -9.999995e-01 0.000000e+00
    outer loop
      vertex 6.240150e+00 -2.980695e+00 1.616776e-06
      vertex 8.755369e+00 -2.978036e+00 1.423061e-06
      vertex 8.755369e+00 -2.978036e+00 2.220080e+00
    endloop
  endfacet
  facet normal -1.057484e-03 9.999995e-01 -9.085223e-09
    outer loop
      vertex 8.748840e+00 3.213224e+00 2.592802e-06
      vertex 6.233629e+00 3.210565e+00 7.227063e-06
      vertex 6.233610e+00 3.210565e+00 2.220086e+00
    endloop
  endfacet
  facet normal -1.057481e-03 9.999995e-01 -5.451111e-09
    outer loop
      vertex 6.233610e+00 3.210565e+00 2.220086e+00
      vertex 8.748829e+00 3.213224e+00 2.220084e+00
      vertex 8.748840e+00 3.213224e+00 2.592802e-06
    endloop
  endfacet
  facet normal 7.935597e-06 -6.787155e-03 9.999770e-01
    outer loop
      vertex 8.748829e+00 3.213224e+00 2.220084e+00
      vertex 6.233610e+00 3.210565e+00 2.220086e+00
      vertex 6.240150e+00 -2.980685e+00 2.178064e+00
    endloop
  endfacet
  facet normal -1.670237e-02 -1.829854e-05 9.998605e-01
    outer loop
      vertex 6.240150e+00 -2.980685e+00 2.178064e+00
      vertex 8.755369e+00 -2.978036e+00 2.220080e+00
      vertex 8.748829e+00 3.213224e+00 2.220084e+00
    endloop
  endfacet
  facet normal -2.253311e-07 1.886965e-07 -1.000000e+00
    outer loop
      vertex -6.233675e+00 -2.993865e+00 2.831221e-07
      vertex -8.748837e+00 -2.996516e+00 8.493662e-07
      vertex -8.755377e+00 3.194735e+00 2.019107e-06
    endloop
  endfacet
  facet normal -2.194098e-07 1.911093e-07 -1.000000e+00
    outer loop
      vertex -8.755377e+00 3.194735e+00 2.019107e-06
      vertex -6.240216e+00 3.197394e+00 1.467764e-06
      vertex -6.233675e+00 -2.993865e+00 2.831221e-07
    endloop
  endfacet
  facet normal 1.054096e-03 -9.999995e-01 -1.961551e-09
    outer loop
      vertex -6.233680e+00 -2.993865e+00 2.178068e+00
      vertex -8.748833e+00 -2.996516e+00 2.178060e+00
      vertex -8.748837e+00 -2.996516e+00 8.493662e-07
    endloop
  endfacet
  facet normal 1.054092e-03 -9.999995e-01 2.538458e-09
    outer loop
      vertex -8.748837e+00 -2.996516e+00 8.493662e-07
      vertex -6.233675e+00 -2.993865e+00 2.831221e-07
      vertex -6.233680e+00 -2.993865e+00 2.178068e+00
    endloop
  endfacet
  facet normal -1.057505e-03 9.999995e-01 2.328120e-09
    outer loop
      vertex -6.240216e+00 3.197394e+00 1.467764e-06
      vertex -8.755377e+00 3.194735e+00 2.019107e-06
      vertex -8.755373e+00 3.194735e+00 2.220094e+00
    endloop
  endfacet
  facet normal -1.057509e-03 9.999995e-01 -2.271344e-09
    outer loop
      vertex -8.755373e+00 3.194735e+00 2.220094e+00
      vertex -6.240220e+00 3.197394e+00 2.220095e+00
      vertex -6.240216e+00 3.197394e+00 1.467764e-06
    endloop
  endfacet
  facet normal 6.800396e-06 -6.789119e-03 9.999769e-01
    outer loop
      vertex -6.240220e+00 3.197394e+00 2.220095e+00
      vertex -8.755373e+00 3.194735e+00 2.220094e+00
      vertex -8.748833e+00 -2.996516e+00 2.178060e+00
    endloop
  endfacet
  facet normal 3.932280e-06 -6.787957e-03 9.999769e-01
    outer loop
      vertex -8.748833e+00 -2.996516e+00 2.178060e+00
      vertex -6.233680e+00 -2.993865e+00 2.178068e+00
      vertex -6.240220e+00 3.197394e+00 2.220095e+00
    endloop
  endfacet
  facet normal 7.174675e-06 -6.787464e-03 9.999770e-01
    outer loop
      vertex -7.250397e-01 3.203215e+00 2.220092e+00
      vertex -6.240220e+00 3.197385e+00 2.220092e+00
      vertex -6.233680e+00 -2.993865e+00 2.178068e+00
    endloop
  endfacet
  facet normal 7.000423e-06 -6.787308e-03 9.999770e-01
    outer loop
      vertex -6.233680e+00 -2.993865e+00 2.178068e+00
      vertex -7.184994e-01 -2.988036e+00 2.178069e+00
      vertex -7.250397e-01 3.203215e+00 2.220092e+00
    endloop
  endfacet
  facet normal 9.999995e-01 1.054763e-03 8.591364e-06
    outer loop
      vertex 6.231519e+00 5.210565e+00 7.979572e-06
      vertex 6.231500e+00 5.210565e+00 2.220083e+00
      vertex 6.233610e+00 3.210565e+00 2.220084e+00
    endloop
  endfacet
  facet normal 9.999995e-01 1.054763e-03 8.591358e-06
    outer loop
      vertex 6.233610e+00 3.210565e+00 2.220084e+00
      vertex 6.233629e+00 3.210565e+00 7.227063e-06
      vertex 6.231519e+00 5.210565e+00 7.979572e-06
    endloop
  endfacet
  facet normal 4.403783e-07 9.419225e-07 -1.000000e+00
    outer loop
      vertex -6.242327e+00 5.197385e+00 8.136034e-06
      vertex -3.727146e+00 5.200045e+00 9.246171e-06
      vertex -7.250330e-01 3.203215e+00 8.687377e-06
    endloop
  endfacet
  facet normal 2.333194e-07 3.690501e-07 -1.000000e+00
    outer loop
      vertex -7.250330e-01 3.203215e+00 8.687377e-06
      vertex -6.240216e+00 3.197385e+00 7.398427e-06
      vertex -6.242327e+00 5.197385e+00 8.136034e-06
    endloop
  endfacet
  facet normal -3.796711e-07 4.764362e-07 1.000000e+00
    outer loop
      vertex -3.727152e+00 5.200045e+00 2.220092e+00
      vertex -6.242333e+00 5.197385e+00 2.220091e+00
      vertex -6.240220e+00 3.197385e+00 2.220092e+00
    endloop
  endfacet
  facet normal 0.000000e+00 0.000000e+00 1.000000e+00
    outer loop
      vertex -6.240220e+00 3.197385e+00 2.220092e+00
      vertex -7.250397e-01 3.203215e+00 2.220092e+00
      vertex -3.727152e+00 5.200045e+00 2.220092e+00
    endloop
  endfacet
  facet normal -9.999995e-01 -1.055955e-03 -2.362617e-06
    outer loop
      vertex -6.242333e+00 5.197385e+00 2.220091e+00
      vertex -6.242327e+00 5.197385e+00 8.136034e-06
      vertex -6.240216e+00 3.197385e+00 7.398427e-06
    endloop
  endfacet
  facet normal -9.999995e-01 -1.056194e-03 -2.147832e-06
    outer loop
      vertex -6.240216e+00 3.197385e+00 7.398427e-06
      vertex -6.240220e+00 3.197385e+00 2.220092e+00
      vertex -6.242333e+00 5.197385e+00 2.220091e+00
    endloop
  endfacet
  facet normal -1.057497e-03 9.999995e-01 -2.498462e-09
    outer loop
      vertex -3.727146e+00 5.200045e+00 9.246171e-06
      vertex -6.242327e+00 5.197385e+00 8.136034e-06
      vertex -6.242333e+00 5.197385e+00 2.220091e+00
    endloop
  endfacet
  facet normal -1.057497e-03 9.999995e-01 -2.498462e-09
    outer loop
      vertex -6.242333e+00 5.197385e+00 2.220091e+00
      vertex -3.727152e+00 5.200045e+00 2.220092e+00
      vertex -3.727146e+00 5.200045e+00 9.246171e-06
    endloop
  endfacet
  facet normal 8.526672e-07 4.311265e-07 1.000000e+00
    outer loop
      vertex 3.727310e+00 -5.200046e+00 2.178067e+00
      vertex 6.242500e+00 -5.197385e+00 2.178065e+00
      vertex 6.240150e+00 -2.980685e+00 2.178064e+00
    endloop
  endfacet
  facet normal -1.256637e-06 2.819357e-06 1.000000e+00
    outer loop
      vertex 6.240150e+00 -2.980685e+00 2.178064e+00
      vertex 7.249696e-01 -2.986516e+00 2.178057e+00
      vertex 3.727310e+00 -5.200046e+00 2.178067e+00
    endloop
  endfacet
  facet normal 9.999995e-01 1.054910e-03 -5.254264e-06
    outer loop
      vertex 6.242500e+00 -5.197385e+00 2.178065e+00
      vertex 6.242489e+00 -5.197385e+00 8.158386e-06
      vertex 6.240150e+00 -2.980695e+00 1.616776e-06
    endloop
  endfacet
  facet normal 9.999995e-01 1.060068e-03 -4.641554e-09
    outer loop
      vertex 6.240150e+00 -2.980695e+00 1.616776e-06
      vertex 6.240150e+00 -2.980685e+00 2.178064e+00
      vertex 6.242500e+00 -5.197385e+00 2.178065e+00
    endloop
  endfacet
  facet normal -9.999995e-01 -1.055981e-03 -2.408201e-06
    outer loop
      vertex -6.231334e+00 -5.210565e+00 8.329749e-06
      vertex -6.231340e+00 -5.210565e+00 2.178068e+00
      vertex -6.233680e+00 -2.993865e+00 2.178068e+00
    endloop
  endfacet
  facet normal -9.999995e-01 -1.055981e-03 -2.408201e-06
    outer loop
      vertex -6.233680e+00 -2.993865e+00 2.178068e+00
      vertex -6.233675e+00 -2.993865e+00 7.890165e-06
      vertex -6.231334e+00 -5.210565e+00 8.329749e-06
    endloop
  endfacet
  facet normal -3.797093e-07 5.127504e-07 1.000000e+00
    outer loop
      vertex -6.231340e+00 -5.210565e+00 2.178068e+00
      vertex -3.716159e+00 -5.207906e+00 2.178069e+00
      vertex -7.184994e-01 -2.988036e+00 2.178069e+00
    endloop
  endfacet
  facet normal -1.729179e-07 -1.825980e-10 1.000000e+00
    outer loop
      vertex -7.184994e-01 -2.988036e+00 2.178069e+00
      vertex -6.233680e+00 -2.993865e+00 2.178068e+00
      vertex -6.231340e+00 -5.210565e+00 2.178068e+00
    endloop
  endfacet
  facet normal 2.795722e-06 3.425117e-06 -1.000000e+00
    outer loop
      vertex 6.242489e+00 -5.197385e+00 8.158386e-06
      vertex 3.727330e+00 -5.200046e+00 1.117587e-06
      vertex 7.249897e-01 -2.986516e+00 3.054738e-07
    endloop
  endfacet
  facet normal 2.408778e-07 -2.950817e-06 -1.000000e+00
    outer loop
      vertex 7.249897e-01 -2.986516e+00 3.054738e-07
      vertex 6.240150e+00 -2.980695e+00 1.616776e-06
      vertex 6.242489e+00 -5.197385e+00 8.158386e-06
    endloop
  endfacet
  facet normal 4.445456e-07 -1.978363e-07 -1.000000e+00
    outer loop
      vertex -3.716152e+00 -5.207906e+00 9.447336e-06
      vertex -6.231334e+00 -5.210565e+00 8.329749e-06
      vertex -6.233675e+00 -2.993865e+00 7.890165e-06
    endloop
  endfacet
  facet normal 2.004381e-07 -4.754040e-07 -1.000000e+00
    outer loop
      vertex -6.233675e+00 -2.993865e+00 7.890165e-06
      vertex -7.184937e-01 -2.988046e+00 8.992851e-06
      vertex -3.716152e+00 -5.207906e+00 9.447336e-06
    endloop
  endfacet
  facet normal 1.057872e-03 -9.999995e-01 9.727059e-09
    outer loop
      vertex 6.242500e+00 -5.197385e+00 2.178065e+00
      vertex 3.727310e+00 -5.200046e+00 2.178067e+00
      vertex 3.727330e+00 -5.200046e+00 1.117587e-06
    endloop
  endfacet
  facet normal 1.057885e-03 -9.999995e-01 -5.558412e-09
    outer loop
      vertex 3.727330e+00 -5.200046e+00 1.117587e-06
      vertex 6.242489e+00 -5.197385e+00 8.158386e-06
      vertex 6.242500e+00 -5.197385e+00 2.178065e+00
    endloop
  endfacet
  facet normal 1.057118e-03 -9.999995e-01 2.545753e-09
    outer loop
      vertex -3.716159e+00 -5.207906e+00 2.178069e+00
      vertex -6.231340e+00 -5.210565e+00 2.178068e+00
      vertex -6.231334e+00 -5.210565e+00 8.329749e-06
    endloop
  endfacet
  facet normal 1.057117e-03 -9.999995e-01 3.008617e-09
    outer loop
      vertex -6.231334e+00 -5.210565e+00 8.329749e-06
      vertex -3.716152e+00 -5.207906e+00 9.447336e-06
      vertex -3.716159e+00 -5.207906e+00 2.178069e+00
    endloop
  endfacet
  facet normal -9.999995e-01 -1.056316e-03 -9.025430e-06
    outer loop
      vertex 7.249696e-01 -2.986516e+00 2.178057e+00
      vertex 7.184293e-01 3.204735e+00 2.220085e+00
      vertex 7.184494e-01 3.204744e+00 0.000000e+00
    endloop
  endfacet
  facet normal -9.999995e-01 -1.056375e-03 -9.194961e-06
    outer loop
      vertex 7.184494e-01 3.204744e+00 0.000000e+00
      vertex 7.249897e-01 -2.986516e+00 3.054738e-07
      vertex 7.249696e-01 -2.986516e+00 2.178057e+00
    endloop
  endfacet
  facet normal 9.999995e-01 1.056221e-03 3.006967e-06
    outer loop
      vertex -7.184937e-01 -2.988046e+00 8.992851e-06
      vertex -7.250330e-01 3.203215e+00 8.687377e-06
      vertex -7.250397e-01 3.203215e+00 2.220092e+00
    endloop
  endfacet
  facet normal 9.999995e-01 1.056359e-03 2.622503e-06
    outer loop
      vertex -7.250397e-01 3.203215e+00 2.220092e+00
      vertex -7.184994e-01 -2.988036e+00 2.178069e+00
      vertex -7.184937e-01 -2.988046e+00 8.992851e-06
    endloop
  endfacet
  facet normal -1.059723e-03 9.999995e-01 -9.744119e-09
    outer loop
      vertex 7.249696e-01 -2.986516e+00 2.178057e+00
      vertex 7.249897e-01 -2.986516e+00 3.054738e-07
      vertex -7.184937e-01 -2.988046e+00 8.992851e-06
    endloop
  endfacet
  facet normal -1.053127e-03 9.999995e-01 -4.381313e-06
    outer loop
      vertex -7.184937e-01 -2.988046e+00 8.992851e-06
      vertex -7.184994e-01 -2.988036e+00 2.178069e+00
      vertex 7.249696e-01 -2.986516e+00 2.178057e+00
    endloop
  endfacet
  facet normal 1.053127e-03 -9.999995e-01 -4.286163e-06
    outer loop
      vertex 7.184494e-01 3.204744e+00 0.000000e+00
      vertex 7.184293e-01 3.204735e+00 2.220085e+00
      vertex -7.250397e-01 3.203215e+00 2.220092e+00
    endloop
  endfacet
  facet normal 1.059724e-03 -9.999995e-01 3.186556e-09
    outer loop
      vertex -7.250397e-01 3.203215e+00 2.220092e+00
      vertex -7.250330e-01 3.203215e+00 8.687377e-06
      vertex 7.184494e-01 3.204744e+00 0.000000e+00
    endloop
  endfacet
  facet normal -1.117079e-06 -1.882046e-06 -1.000000e+00
    outer loop
      vertex 7.249897e-01 -2.986516e+00 3.054738e-07
      vertex 3.727330e+00 -5.200046e+00 1.117587e-06
      vertex -3.716152e+00 -5.207906e+00 9.447336e-06
    endloop
  endfacet
  facet normal -6.026750e-06 7.933678e-06 -1.000000e+00
    outer loop
      vertex -3.716152e+00 -5.207906e+00 9.447336e-06
      vertex -7.184937e-01 -2.988046e+00 8.992851e-06
      vertex 7.249897e-01 -2.986516e+00 3.054738e-07
    endloop
  endfacet
  facet normal 1.055983e-03 -9.999995e-01 9.709691e-09
    outer loop
      vertex 3.727330e+00 -5.200046e+00 1.117587e-06
      vertex 3.727310e+00 -5.200046e+00 2.178067e+00
      vertex -3.716159e+00 -5.207906e+00 2.178069e+00
    endloop
  endfacet
  facet normal 1.055981e-03 -9.999995e-01 3.005384e-09
    outer loop
      vertex -3.716159e+00 -5.207906e+00 2.178069e+00
      vertex -3.716152e+00 -5.207906e+00 9.447336e-06
      vertex 3.727330e+00 -5.200046e+00 1.117587e-06
    endloop
  endfacet
  facet normal 8.241990e-06 1.570290e-05 1.000000e+00
    outer loop
      vertex 3.727310e+00 -5.200046e+00 2.178067e+00
      vertex 7.249696e-01 -2.986516e+00 2.178057e+00
      vertex -7.184994e-01 -2.988036e+00 2.178069e+00
    endloop
  endfacet
  facet normal 2.566105e-07 -3.465207e-07 1.000000e+00
    outer loop
      vertex -7.184994e-01 -2.988036e+00 2.178069e+00
      vertex -3.716159e+00 -5.207906e+00 2.178069e+00
      vertex 3.727310e+00 -5.200046e+00 2.178067e+00
    endloop
  endfacet
  facet normal 1.345777e-06 -4.667847e-07 1.000000e+00
    outer loop
      vertex 7.184293e-01 3.204735e+00 2.220085e+00
      vertex 3.716320e+00 5.207905e+00 2.220082e+00
      vertex -3.727152e+00 5.200045e+00 2.220092e+00
    endloop
  endfacet
  facet normal 4.782374e-06 7.190007e-06 1.000000e+00
    outer loop
      vertex -3.727152e+00 5.200045e+00 2.220092e+00
      vertex -7.250397e-01 3.203215e+00 2.220092e+00
      vertex 7.184293e-01 3.204735e+00 2.220085e+00
    endloop
  endfacet
  facet normal -1.055982e-03 9.999995e-01 -4.536155e-09
    outer loop
      vertex 3.716320e+00 5.207905e+00 2.220082e+00
      vertex 3.716329e+00 5.207905e+00 9.387732e-07
      vertex -3.727146e+00 5.200045e+00 9.246171e-06
    endloop
  endfacet
  facet normal -1.055983e-03 9.999995e-01 -2.494885e-09
    outer loop
      vertex -3.727146e+00 5.200045e+00 9.246171e-06
      vertex -3.727152e+00 5.200045e+00 2.220092e+00
      vertex 3.716320e+00 5.207905e+00 2.220082e+00
    endloop
  endfacet
  facet normal -6.028404e-06 9.490604e-06 -1.000000e+00
    outer loop
      vertex 3.716329e+00 5.207905e+00 9.387732e-07
      vertex 7.184494e-01 3.204744e+00 0.000000e+00
      vertex -7.250330e-01 3.203215e+00 8.687377e-06
    endloop
  endfacet
  facet normal -1.114590e-06 -1.395879e-06 -1.000000e+00
    outer loop
      vertex -7.250330e-01 3.203215e+00 8.687377e-06
      vertex -3.727146e+00 5.200045e+00 9.246171e-06
      vertex 3.716329e+00 5.207905e+00 9.387732e-07
    endloop
  endfacet
  facet normal 5.921898e-06 -6.787157e-03 9.999770e-01
    outer loop
      vertex 7.249696e-01 -2.986516e+00 2.178057e+00
      vertex 6.240150e+00 -2.980685e+00 2.178064e+00
      vertex 6.233610e+00 3.210565e+00 2.220086e+00
    endloop
  endfacet
  facet normal 7.002452e-06 -6.788117e-03 9.999769e-01
    outer loop
      vertex 6.233610e+00 3.210565e+00 2.220086e+00
      vertex 7.184293e-01 3.204735e+00 2.220085e+00
      vertex 7.249696e-01 -2.986516e+00 2.178057e+00
    endloop
  endfacet
  facet normal 2.798910e-06 3.792065e-07 -1.000000e+00
    outer loop
      vertex 3.716329e+00 5.207905e+00 9.387732e-07
      vertex 6.231519e+00 5.210565e+00 7.979572e-06
      vertex 6.233629e+00 3.210565e+00 7.227063e-06
    endloop
  endfacet
  facet normal 1.311972e-06 -1.494819e-06 -1.000000e+00
    outer loop
      vertex 6.233629e+00 3.210565e+00 7.227063e-06
      vertex 7.184494e-01 3.204744e+00 0.000000e+00
      vertex 3.716329e+00 5.207905e+00 9.387732e-07
    endloop
  endfacet
  facet normal 1.715539e-07 1.290525e-06 1.000000e+00
    outer loop
      vertex 3.716320e+00 5.207905e+00 2.220082e+00
      vertex 7.184293e-01 3.204735e+00 2.220085e+00
      vertex 6.233610e+00 3.210565e+00 2.220084e+00
    endloop
  endfacet
  facet normal -4.744629e-07 4.763367e-07 1.000000e+00
    outer loop
      vertex 6.233610e+00 3.210565e+00 2.220084e+00
      vertex 6.231500e+00 5.210565e+00 2.220083e+00
      vertex 3.716320e+00 5.207905e+00 2.220082e+00
    endloop
  endfacet
  facet normal -1.057497e-03 9.999995e-01 -9.085348e-09
    outer loop
      vertex 3.716320e+00 5.207905e+00 2.220082e+00
      vertex 6.231500e+00 5.210565e+00 2.220083e+00
      vertex 6.231519e+00 5.210565e+00 7.979572e-06
    endloop
  endfacet
  facet normal -1.057493e-03 9.999995e-01 -4.542645e-09
    outer loop
      vertex 6.231519e+00 5.210565e+00 7.979572e-06
      vertex 3.716329e+00 5.207905e+00 9.387732e-07
      vertex 3.716320e+00 5.207905e+00 2.220082e+00
    endloop
  endfacet
  facet normal -7.721683e-08 1.888528e-07 -1.000000e+00
    outer loop
      vertex 8.748840e+00 3.213224e+00 2.592802e-06
      vertex 8.755369e+00 -2.978036e+00 1.423061e-06
      vertex 6.240150e+00 -2.980695e+00 1.616776e-06
    endloop
  endfacet
  facet normal -1.843450e-06 9.042208e-07 -1.000000e+00
    outer loop
      vertex 6.240150e+00 -2.980695e+00 1.616776e-06
      vertex 6.233629e+00 3.210565e+00 7.227063e-06
      vertex 8.748840e+00 3.213224e+00 2.592802e-06
    endloop
  endfacet
endsolid Default
