solid Default
  facet normal -1.000000e+00 6.123224e-17 1.610880e-06
    outer loop
      vertex -9.179895e+00 -1.854876e+01 1.907349e-05
      vertex -9.179895e+00 -2.054876e+01 1.907349e-05
      vertex -9.179891e+00 -2.054876e+01 2.220097e+00
    endloop
  endfacet
  facet normal -1.000000e+00 6.123224e-17 1.610880e-06
    outer loop
      vertex -9.179891e+00 -2.054876e+01 2.220097e+00
      vertex -9.179891e+00 -1.854876e+01 2.220097e+00
      vertex -9.179895e+00 -1.854876e+01 1.907349e-05
    endloop
  endfacet
  facet normal 1.000000e+00 -6.123247e-17 2.147840e-06
    outer loop
      vertex 9.179895e+00 -1.854876e+01 2.220097e+00
      vertex 9.179895e+00 -2.054876e+01 2.220097e+00
      vertex 9.179900e+00 -2.054876e+01 1.907349e-05
    endloop
  endfacet
  facet normal 1.000000e+00 -6.123247e-17 2.147840e-06
    outer loop
      vertex 9.179900e+00 -2.054876e+01 1.907349e-05
      vertex 9.179900e+00 -1.854876e+01 1.907349e-05
      vertex 9.179895e+00 -1.854876e+01 2.220097e+00
    endloop
  endfacet
  facet normal 3.749399e-33 6.123234e-17 -1.000000e+00
    outer loop
      vertex 1.288682e-02 -1.854876e+01 1.907349e-05
      vertex 9.179900e+00 -2.054876e+01 1.907349e-05
      vertex -9.179895e+00 -2.054876e+01 1.907349e-05
    endloop
  endfacet
  facet normal -3.749399e-33 -6.123234e-17 1.000000e+00
    outer loop
      vertex 1.289159e-02 -1.854876e+01 2.220097e+00
      vertex -9.179891e+00 -2.054876e+01 2.220097e+00
      vertex 9.179895e+00 -2.054876e+01 2.220097e+00
    endloop
  endfacet
  facet normal -3.749399e-33 -6.123234e-17 1.000000e+00
    outer loop
      vertex 1.125530e+01 -7.951237e+00 2.220097e+00
      vertex 9.179902e+00 -5.951234e+00 2.220097e+00
      vertex 5.558696e+00 -7.951237e+00 2.220097e+00
    endloop
  endfacet
  facet normal -3.749399e-33 -6.123234e-17 1.000000e+00
    outer loop
      vertex 5.558696e+00 -7.951237e+00 2.220097e+00
      vertex 9.179902e+00 -5.951234e+00 2.220097e+00
      vertex 1.288682e-02 1.931943e+00 2.220097e+00
    endloop
  endfacet
  facet normal 3.203763e-06 -3.735993e-06 1.000000e+00
    outer loop
      vertex 1.288682e-02 1.931943e+00 2.220097e+00
      vertex -9.179893e+00 -5.951234e+00 2.220097e+00
      vertex -5.558686e+00 -7.951237e+00 2.220078e+00
    endloop
  endfacet
  facet normal 3.363430e-06 -3.446899e-06 1.000000e+00
    outer loop
      vertex -5.558686e+00 -7.951237e+00 2.220078e+00
      vertex -9.179893e+00 -5.951234e+00 2.220097e+00
      vertex -1.122953e+01 -7.951237e+00 2.220097e+00
    endloop
  endfacet
  facet normal -3.363436e-06 -6.089823e-06 -1.000000e+00
    outer loop
      vertex -1.122952e+01 -7.951237e+00 1.907349e-05
      vertex -9.179887e+00 -5.951234e+00 0.000000e+00
      vertex -5.558691e+00 -7.951237e+00 0.000000e+00
    endloop
  endfacet
  facet normal 3.749399e-33 6.123234e-17 -1.000000e+00
    outer loop
      vertex -5.558691e+00 -7.951237e+00 0.000000e+00
      vertex -9.179887e+00 -5.951234e+00 0.000000e+00
      vertex 1.288205e-02 1.931943e+00 0.000000e+00
    endloop
  endfacet
  facet normal -3.207285e-06 -3.729617e-06 -1.000000e+00
    outer loop
      vertex 1.288205e-02 1.931943e+00 0.000000e+00
      vertex 9.179898e+00 -5.951234e+00 0.000000e+00
      vertex 5.558691e+00 -7.951237e+00 1.907349e-05
    endloop
  endfacet
  facet normal -3.348222e-06 -3.474438e-06 -1.000000e+00
    outer loop
      vertex 5.558691e+00 -7.951237e+00 1.907349e-05
      vertex 9.179898e+00 -5.951234e+00 0.000000e+00
      vertex 1.125529e+01 -7.951237e+00 0.000000e+00
    endloop
  endfacet
  facet normal 3.749399e-33 6.123234e-17 -1.000000e+00
    outer loop
      vertex 9.179900e+00 -1.854876e+01 1.907349e-05
      vertex 9.179900e+00 -2.054876e+01 1.907349e-05
      vertex 5.558694e+00 -1.854876e+01 1.907349e-05
    endloop
  endfacet
  facet normal 3.749399e-33 6.123234e-17 -1.000000e+00
    outer loop
      vertex 5.558694e+00 -1.854876e+01 1.907349e-05
      vertex 9.179900e+00 -2.054876e+01 1.907349e-05
      vertex 1.288682e-02 -1.854876e+01 1.907349e-05
    endloop
  endfacet
  facet normal 3.749399e-33 6.123234e-17 -1.000000e+00
    outer loop
      vertex 1.288682e-02 -1.854876e+01 1.907349e-05
      vertex -9.179895e+00 -2.054876e+01 1.907349e-05
      vertex -5.558688e+00 -1.854876e+01 1.907349e-05
    endloop
  endfacet
  facet normal 3.749399e-33 6.123234e-17 -1.000000e+00
    outer loop
      vertex -5.558688e+00 -1.854876e+01 1.907349e-05
      vertex -9.179895e+00 -2.054876e+01 1.907349e-05
      vertex -9.179895e+00 -1.854876e+01 1.907349e-05
    endloop
  endfacet
  facet normal -3.749399e-33 -6.123234e-17 1.000000e+00
    outer loop
      vertex -9.179891e+00 -1.854876e+01 2.220097e+00
      vertex -9.179891e+00 -2.054876e+01 2.220097e+00
      vertex -5.558685e+00 -1.854876e+01 2.220097e+00
    endloop
  endfacet
  facet normal -3.749399e-33 -6.123234e-17 1.000000e+00
    outer loop
      vertex -5.558685e+00 -1.854876e+01 2.220097e+00
      vertex -9.179891e+00 -2.054876e+01 2.220097e+00
      vertex 1.289159e-02 -1.854876e+01 2.220097e+00
    endloop
  endfacet
  facet normal -3.749399e-33 -6.123234e-17 1.000000e+00
    outer loop
      vertex 1.289159e-02 -1.854876e+01 2.220097e+00
      vertex 9.179895e+00 -2.054876e+01 2.220097e+00
      vertex 5.558698e+00 -1.854877e+01 2.220097e+00
    endloop
  endfacet
  facet normal -3.749399e-33 -6.123234e-17 1.000000e+00
    outer loop
      vertex 5.558698e+00 -1.854877e+01 2.220097e+00
      vertex 9.179895e+00 -2.054876e+01 2.220097e+00
      vertex 9.179895e+00 -1.854876e+01 2.220097e+00
    endloop
  endfacet
  facet normal 8.711125e-01 -4.910835e-01 -1.871010e-06
    outer loop
      vertex 1.288682e-02 1.931943e+00 2.220097e+00
      vertex -5.558686e+00 -7.951237e+00 2.220078e+00
      vertex -5.558691e+00 -7.951237e+00 0.000000e+00
    endloop
  endfacet
  facet normal 8.711125e-01 -4.910835e-01 -1.870994e-06
    outer loop
      vertex -5.558691e+00 -7.951237e+00 0.000000e+00
      vertex 1.288205e-02 1.931943e+00 0.000000e+00
      vertex 1.288682e-02 1.931943e+00 2.220097e+00
    endloop
  endfacet
  facet normal -8.720833e-01 -4.893574e-01 1.873079e-06
    outer loop
      vertex 1.288682e-02 1.931943e+00 2.220097e+00
      vertex 1.288205e-02 1.931943e+00 0.000000e+00
      vertex 5.558691e+00 -7.951237e+00 1.907349e-05
    endloop
  endfacet
  facet normal -8.720833e-01 -4.893574e-01 1.873095e-06
    outer loop
      vertex 5.558691e+00 -7.951237e+00 1.907349e-05
      vertex 5.558696e+00 -7.951237e+00 2.220097e+00
      vertex 1.288682e-02 1.931943e+00 2.220097e+00
    endloop
  endfacet
  facet normal 4.299078e-07 1.000000e+00 -9.233121e-13
    outer loop
      vertex 1.288682e-02 -1.854876e+01 1.907349e-05
      vertex 1.289159e-02 -1.854876e+01 2.220097e+00
      vertex 5.558698e+00 -1.854877e+01 2.220097e+00
    endloop
  endfacet
  facet normal 6.123234e-17 1.000000e+00 1.073920e-06
    outer loop
      vertex 5.558698e+00 -1.854877e+01 2.220097e+00
      vertex 5.558694e+00 -1.854876e+01 1.907349e-05
      vertex 1.288682e-02 -1.854876e+01 1.907349e-05
    endloop
  endfacet
  facet normal 6.123234e-17 1.000000e+00 6.123234e-17
    outer loop
      vertex 1.288682e-02 -1.854876e+01 1.907349e-05
      vertex -5.558688e+00 -1.854876e+01 1.907349e-05
      vertex -5.558685e+00 -1.854876e+01 2.220097e+00
    endloop
  endfacet
  facet normal 6.123234e-17 1.000000e+00 6.123234e-17
    outer loop
      vertex -5.558685e+00 -1.854876e+01 2.220097e+00
      vertex 1.289159e-02 -1.854876e+01 2.220097e+00
      vertex 1.288682e-02 -1.854876e+01 1.907349e-05
    endloop
  endfacet
  facet normal -8.782363e-01 4.782269e-01 -2.357869e-06
    outer loop
      vertex -9.179887e+00 -5.951234e+00 0.000000e+00
      vertex -9.179893e+00 -5.951234e+00 2.220097e+00
      vertex -3.734586e+00 4.048761e+00 2.220097e+00
    endloop
  endfacet
  facet normal -8.782364e-01 4.782267e-01 -1.330723e-06
    outer loop
      vertex -3.734586e+00 4.048761e+00 2.220097e+00
      vertex -3.734580e+00 4.048766e+00 0.000000e+00
      vertex -9.179887e+00 -5.951234e+00 0.000000e+00
    endloop
  endfacet
  facet normal 8.791861e-01 4.764786e-01 -1.888351e-06
    outer loop
      vertex 3.760355e+00 4.048766e+00 1.907349e-05
      vertex 3.760360e+00 4.048766e+00 2.220097e+00
      vertex 9.179902e+00 -5.951234e+00 2.220097e+00
    endloop
  endfacet
  facet normal 8.791861e-01 4.764786e-01 -1.888335e-06
    outer loop
      vertex 9.179902e+00 -5.951234e+00 2.220097e+00
      vertex 9.179898e+00 -5.951234e+00 0.000000e+00
      vertex 3.760355e+00 4.048766e+00 1.907349e-05
    endloop
  endfacet
  facet normal -3.749399e-33 -6.123234e-17 1.000000e+00
    outer loop
      vertex -9.179893e+00 -5.951234e+00 2.220097e+00
      vertex 1.288682e-02 1.931943e+00 2.220097e+00
      vertex -3.734586e+00 4.048761e+00 2.220097e+00
    endloop
  endfacet
  facet normal -3.749399e-33 -6.123234e-17 1.000000e+00
    outer loop
      vertex -3.734586e+00 4.048761e+00 2.220097e+00
      vertex 1.288682e-02 1.931943e+00 2.220097e+00
      vertex 3.760360e+00 4.048766e+00 2.220097e+00
    endloop
  endfacet
  facet normal -3.749399e-33 -6.123234e-17 1.000000e+00
    outer loop
      vertex 3.760360e+00 4.048766e+00 2.220097e+00
      vertex 1.288682e-02 1.931943e+00 2.220097e+00
      vertex 9.179902e+00 -5.951234e+00 2.220097e+00
    endloop
  endfacet
  facet normal 3.071891e-06 3.572173e-06 -1.000000e+00
    outer loop
      vertex 9.179898e+00 -5.951234e+00 0.000000e+00
      vertex 1.288205e-02 1.931943e+00 0.000000e+00
      vertex 3.760355e+00 4.048766e+00 1.907349e-05
    endloop
  endfacet
  facet normal 2.544851e-06 4.505209e-06 -1.000000e+00
    outer loop
      vertex 3.760355e+00 4.048766e+00 1.907349e-05
      vertex 1.288205e-02 1.931943e+00 0.000000e+00
      vertex -3.734580e+00 4.048766e+00 0.000000e+00
    endloop
  endfacet
  facet normal 3.749399e-33 6.123234e-17 -1.000000e+00
    outer loop
      vertex -3.734580e+00 4.048766e+00 0.000000e+00
      vertex 1.288205e-02 1.931943e+00 0.000000e+00
      vertex -9.179887e+00 -5.951234e+00 0.000000e+00
    endloop
  endfacet
  facet normal 9.935327e-01 1.135466e-01 -2.133949e-06
    outer loop
      vertex 3.760355e+00 4.048766e+00 1.907349e-05
      vertex 1.760354e+00 2.154877e+01 1.907349e-05
      vertex 1.760359e+00 2.154877e+01 2.220097e+00
    endloop
  endfacet
  facet normal 9.935327e-01 1.135466e-01 -2.133949e-06
    outer loop
      vertex 1.760359e+00 2.154877e+01 2.220097e+00
      vertex 3.760360e+00 4.048766e+00 2.220097e+00
      vertex 3.760355e+00 4.048766e+00 1.907349e-05
    endloop
  endfacet
  facet normal -9.935327e-01 1.135463e-01 -2.377828e-06
    outer loop
      vertex -3.734586e+00 4.048761e+00 2.220097e+00
      vertex -1.734590e+00 2.154877e+01 2.220097e+00
      vertex -1.734585e+00 2.154876e+01 1.907349e-05
    endloop
  endfacet
  facet normal -9.935327e-01 1.135463e-01 -2.423537e-06
    outer loop
      vertex -1.734585e+00 2.154876e+01 1.907349e-05
      vertex -3.734580e+00 4.048766e+00 0.000000e+00
      vertex -3.734586e+00 4.048761e+00 2.220097e+00
    endloop
  endfacet
  facet normal 6.123234e-17 1.000000e+00 -2.147840e-06
    outer loop
      vertex -1.734585e+00 2.154876e+01 1.907349e-05
      vertex -1.734590e+00 2.154877e+01 2.220097e+00
      vertex 1.760359e+00 2.154877e+01 2.220097e+00
    endloop
  endfacet
  facet normal -1.364364e-06 1.000000e+00 2.930498e-12
    outer loop
      vertex 1.760359e+00 2.154877e+01 2.220097e+00
      vertex 1.760354e+00 2.154877e+01 1.907349e-05
      vertex -1.734585e+00 2.154876e+01 1.907349e-05
    endloop
  endfacet
  facet normal 9.698845e-01 2.435652e-01 -5.203192e-06
    outer loop
      vertex -8.007380e-01 1.899045e+01 0.000000e+00
      vertex -8.007237e-01 1.899044e+01 2.220078e+00
      vertex -7.317254e-01 1.871569e+01 2.220097e+00
    endloop
  endfacet
  facet normal 9.698775e-01 2.435929e-01 -1.559930e-06
    outer loop
      vertex -7.317254e-01 1.871569e+01 2.220097e+00
      vertex -7.317302e-01 1.871569e+01 0.000000e+00
      vertex -8.007380e-01 1.899045e+01 0.000000e+00
    endloop
  endfacet
  facet normal 8.280618e-01 5.606367e-01 -5.743814e-07
    outer loop
      vertex -7.317302e-01 1.871569e+01 0.000000e+00
      vertex -7.317254e-01 1.871569e+01 2.220097e+00
      vertex -5.729005e-01 1.848110e+01 2.220097e+00
    endloop
  endfacet
  facet normal 8.280672e-01 5.606289e-01 -1.778541e-06
    outer loop
      vertex -5.729005e-01 1.848110e+01 2.220097e+00
      vertex -5.729052e-01 1.848110e+01 0.000000e+00
      vertex -7.317302e-01 1.871569e+01 0.000000e+00
    endloop
  endfacet
  facet normal 5.863678e-01 8.100449e-01 -1.259413e-06
    outer loop
      vertex -5.729052e-01 1.848110e+01 0.000000e+00
      vertex -5.729005e-01 1.848110e+01 2.220097e+00
      vertex -3.434178e-01 1.831499e+01 2.220097e+00
    endloop
  endfacet
  facet normal 5.863678e-01 8.100449e-01 -1.259413e-06
    outer loop
      vertex -3.434178e-01 1.831499e+01 2.220097e+00
      vertex -3.434226e-01 1.831499e+01 0.000000e+00
      vertex -5.729052e-01 1.848110e+01 0.000000e+00
    endloop
  endfacet
  facet normal 2.739563e-01 9.617422e-01 -5.884093e-07
    outer loop
      vertex -3.434226e-01 1.831499e+01 0.000000e+00
      vertex -3.434178e-01 1.831499e+01 2.220097e+00
      vertex -7.096261e-02 1.823738e+01 2.220097e+00
    endloop
  endfacet
  facet normal 2.739563e-01 9.617422e-01 -5.884093e-07
    outer loop
      vertex -7.096261e-02 1.823738e+01 2.220097e+00
      vertex -7.096738e-02 1.823738e+01 0.000000e+00
      vertex -3.434226e-01 1.831499e+01 0.000000e+00
    endloop
  endfacet
  facet normal -7.150304e-02 9.974404e-01 1.535758e-07
    outer loop
      vertex -7.096738e-02 1.823738e+01 0.000000e+00
      vertex -7.096261e-02 1.823738e+01 2.220097e+00
      vertex 2.116016e-01 1.825763e+01 2.220097e+00
    endloop
  endfacet
  facet normal -7.148629e-02 9.974416e-01 -1.988787e-06
    outer loop
      vertex 2.116016e-01 1.825763e+01 2.220097e+00
      vertex 2.115968e-01 1.825763e+01 0.000000e+00
      vertex -7.096738e-02 1.823738e+01 0.000000e+00
    endloop
  endfacet
  facet normal -4.083284e-01 9.128351e-01 -1.083590e-06
    outer loop
      vertex 2.115968e-01 1.825763e+01 0.000000e+00
      vertex 2.116016e-01 1.825763e+01 2.220097e+00
      vertex 4.701999e-01 1.837331e+01 2.220078e+00
    endloop
  endfacet
  facet normal -4.083284e-01 9.128351e-01 -1.083600e-06
    outer loop
      vertex 4.701999e-01 1.837331e+01 2.220078e+00
      vertex 4.701951e-01 1.837330e+01 0.000000e+00
      vertex 2.115968e-01 1.825763e+01 0.000000e+00
    endloop
  endfacet
  facet normal -6.959190e-01 7.181203e-01 -4.768507e-08
    outer loop
      vertex 4.701951e-01 1.837330e+01 0.000000e+00
      vertex 4.701999e-01 1.837331e+01 2.220078e+00
      vertex 6.736377e-01 1.857046e+01 2.220097e+00
    endloop
  endfacet
  facet normal -6.959103e-01 7.181287e-01 -1.590134e-06
    outer loop
      vertex 6.736377e-01 1.857046e+01 2.220097e+00
      vertex 6.736329e-01 1.857045e+01 0.000000e+00
      vertex 4.701951e-01 1.837330e+01 0.000000e+00
    endloop
  endfacet
  facet normal -8.995613e-01 4.367946e-01 5.578328e-08
    outer loop
      vertex 6.736329e-01 1.857045e+01 0.000000e+00
      vertex 6.736377e-01 1.857046e+01 2.220097e+00
      vertex 7.973769e-01 1.882529e+01 2.220097e+00
    endloop
  endfacet
  facet normal -8.995644e-01 4.367880e-01 9.939613e-07
    outer loop
      vertex 7.973769e-01 1.882529e+01 2.220097e+00
      vertex 7.973722e-01 1.882529e+01 0.000000e+00
      vertex 6.736329e-01 1.857045e+01 0.000000e+00
    endloop
  endfacet
  facet normal -9.947044e-01 1.027763e-01 1.915703e-06
    outer loop
      vertex 7.973722e-01 1.882529e+01 0.000000e+00
      vertex 7.973769e-01 1.882529e+01 2.220097e+00
      vertex 8.264926e-01 1.910708e+01 2.220078e+00
    endloop
  endfacet
  facet normal -9.947008e-01 1.028113e-01 -2.578103e-06
    outer loop
      vertex 8.264926e-01 1.910708e+01 2.220078e+00
      vertex 8.264974e-01 1.910707e+01 0.000000e+00
      vertex 7.973722e-01 1.882529e+01 0.000000e+00
    endloop
  endfacet
  facet normal -9.698686e-01 -2.436286e-01 -1.036572e-06
    outer loop
      vertex 8.264974e-01 1.910707e+01 0.000000e+00
      vertex 8.264926e-01 1.910708e+01 2.220078e+00
      vertex 7.574752e-01 1.938184e+01 2.220097e+00
    endloop
  endfacet
  facet normal -9.698766e-01 -2.435969e-01 -5.202960e-06
    outer loop
      vertex 7.574752e-01 1.938184e+01 2.220097e+00
      vertex 7.574895e-01 1.938183e+01 0.000000e+00
      vertex 8.264974e-01 1.910707e+01 0.000000e+00
    endloop
  endfacet
  facet normal -8.280513e-01 -5.606524e-01 -2.927157e-06
    outer loop
      vertex 7.574895e-01 1.938183e+01 0.000000e+00
      vertex 7.574752e-01 1.938184e+01 2.220097e+00
      vertex 5.986503e-01 1.961641e+01 2.220097e+00
    endloop
  endfacet
  facet normal -8.280618e-01 -5.606367e-01 -5.335587e-06
    outer loop
      vertex 5.986503e-01 1.961641e+01 2.220097e+00
      vertex 5.986646e-01 1.961641e+01 0.000000e+00
      vertex 7.574895e-01 1.938183e+01 0.000000e+00
    endloop
  endfacet
  facet normal -5.863728e-01 -8.100414e-01 -3.778272e-06
    outer loop
      vertex 5.986646e-01 1.961641e+01 0.000000e+00
      vertex 5.986503e-01 1.961641e+01 2.220097e+00
      vertex 3.691772e-01 1.978252e+01 2.220097e+00
    endloop
  endfacet
  facet normal -5.863838e-01 -8.100334e-01 -5.518150e-06
    outer loop
      vertex 3.691772e-01 1.978252e+01 2.220097e+00
      vertex 3.691915e-01 1.978253e+01 0.000000e+00
      vertex 5.986646e-01 1.961641e+01 0.000000e+00
    endloop
  endfacet
  facet normal -2.739652e-01 -9.617396e-01 -3.830930e-06
    outer loop
      vertex 3.691915e-01 1.978253e+01 0.000000e+00
      vertex 3.691772e-01 1.978252e+01 2.220097e+00
      vertex 9.673148e-02 1.986013e+01 2.220097e+00
    endloop
  endfacet
  facet normal -2.739719e-01 -9.617378e-01 -4.719725e-06
    outer loop
      vertex 9.673148e-02 1.986013e+01 2.220097e+00
      vertex 9.673625e-02 1.986014e+01 0.000000e+00
      vertex 3.691915e-01 1.978253e+01 0.000000e+00
    endloop
  endfacet
  facet normal 7.148629e-02 -9.974416e-01 -4.131114e-06
    outer loop
      vertex 9.673625e-02 1.986014e+01 0.000000e+00
      vertex 9.673148e-02 1.986013e+01 2.220097e+00
      vertex -1.858327e-01 1.983988e+01 2.220097e+00
    endloop
  endfacet
  facet normal 7.148629e-02 -9.974416e-01 -4.131114e-06
    outer loop
      vertex -1.858327e-01 1.983988e+01 2.220097e+00
      vertex -1.858279e-01 1.983989e+01 0.000000e+00
      vertex 9.673625e-02 1.986014e+01 0.000000e+00
    endloop
  endfacet
  facet normal 4.083284e-01 -9.128351e-01 -3.044197e-06
    outer loop
      vertex -1.858279e-01 1.983989e+01 0.000000e+00
      vertex -1.858327e-01 1.983988e+01 2.220097e+00
      vertex -4.444310e-01 1.972421e+01 2.220078e+00
    endloop
  endfacet
  facet normal 4.083284e-01 -9.128351e-01 -3.044223e-06
    outer loop
      vertex -4.444310e-01 1.972421e+01 2.220078e+00
      vertex -4.444262e-01 1.972422e+01 0.000000e+00
      vertex -1.858279e-01 1.983989e+01 0.000000e+00
    endloop
  endfacet
  facet normal 6.959103e-01 -7.181287e-01 -1.590148e-06
    outer loop
      vertex -4.444262e-01 1.972422e+01 0.000000e+00
      vertex -4.444310e-01 1.972421e+01 2.220078e+00
      vertex -6.478688e-01 1.952706e+01 2.220078e+00
    endloop
  endfacet
  facet normal 6.959103e-01 -7.181287e-01 -1.590148e-06
    outer loop
      vertex -6.478688e-01 1.952706e+01 2.220078e+00
      vertex -6.478640e-01 1.952707e+01 0.000000e+00
      vertex -4.444262e-01 1.972422e+01 0.000000e+00
    endloop
  endfacet
  facet normal 8.995613e-01 -4.367946e-01 5.578376e-08
    outer loop
      vertex -6.478640e-01 1.952707e+01 0.000000e+00
      vertex -6.478688e-01 1.952706e+01 2.220078e+00
      vertex -7.716081e-01 1.927223e+01 2.220078e+00
    endloop
  endfacet
  facet normal 8.995448e-01 -4.368285e-01 -4.746792e-06
    outer loop
      vertex -7.716081e-01 1.927223e+01 2.220078e+00
      vertex -7.716128e-01 1.927224e+01 0.000000e+00
      vertex -6.478640e-01 1.952707e+01 0.000000e+00
    endloop
  endfacet
  facet normal 9.947010e-01 -1.028096e-01 -6.851013e-06
    outer loop
      vertex -8.007237e-01 1.899044e+01 2.220078e+00
      vertex -8.007380e-01 1.899045e+01 0.000000e+00
      vertex -7.716128e-01 1.927224e+01 0.000000e+00
    endloop
  endfacet
  facet normal 9.947044e-01 -1.027780e-01 -2.798718e-06
    outer loop
      vertex -7.716128e-01 1.927224e+01 0.000000e+00
      vertex -7.716081e-01 1.927223e+01 2.220078e+00
      vertex -8.007237e-01 1.899044e+01 2.220078e+00
    endloop
  endfacet
  facet normal 3.749399e-33 6.123234e-17 -1.000000e+00
    outer loop
      vertex -7.317302e-01 1.871569e+01 0.000000e+00
      vertex -5.729052e-01 1.848110e+01 0.000000e+00
      vertex -3.734580e+00 4.048766e+00 0.000000e+00
    endloop
  endfacet
  facet normal 3.749399e-33 6.123234e-17 -1.000000e+00
    outer loop
      vertex -8.007380e-01 1.899045e+01 0.000000e+00
      vertex -7.317302e-01 1.871569e+01 0.000000e+00
      vertex -3.734580e+00 4.048766e+00 0.000000e+00
    endloop
  endfacet
  facet normal -9.221038e-06 4.477833e-06 -1.000000e+00
    outer loop
      vertex -6.478640e-01 1.952707e+01 0.000000e+00
      vertex -7.716128e-01 1.927224e+01 0.000000e+00
      vertex -1.734585e+00 2.154876e+01 1.907349e-05
    endloop
  endfacet
  facet normal 9.451506e-08 -1.318760e-06 -1.000000e+00
    outer loop
      vertex 2.115968e-01 1.825763e+01 0.000000e+00
      vertex 3.760355e+00 4.048766e+00 1.907349e-05
      vertex -7.096738e-02 1.823738e+01 0.000000e+00
    endloop
  endfacet
  facet normal 2.512552e-06 8.819941e-06 -1.000000e+00
    outer loop
      vertex 1.760354e+00 2.154877e+01 1.907349e-05
      vertex 3.691915e-01 1.978253e+01 0.000000e+00
      vertex 9.673625e-02 1.986014e+01 0.000000e+00
    endloop
  endfacet
  facet normal 5.401226e-07 -1.207466e-06 -1.000000e+00
    outer loop
      vertex 4.701951e-01 1.837330e+01 0.000000e+00
      vertex 3.760355e+00 4.048766e+00 1.907349e-05
      vertex 2.115968e-01 1.825763e+01 0.000000e+00
    endloop
  endfacet
  facet normal 4.978654e-06 6.877537e-06 -1.000000e+00
    outer loop
      vertex 1.760354e+00 2.154877e+01 1.907349e-05
      vertex 5.986646e-01 1.961641e+01 0.000000e+00
      vertex 3.691915e-01 1.978253e+01 0.000000e+00
    endloop
  endfacet
  facet normal 1.055414e-06 -1.089111e-06 -1.000000e+00
    outer loop
      vertex 6.736329e-01 1.857045e+01 0.000000e+00
      vertex 3.760355e+00 4.048766e+00 1.907349e-05
      vertex 4.701951e-01 1.837330e+01 0.000000e+00
    endloop
  endfacet
  facet normal 7.722109e-06 5.228230e-06 -1.000000e+00
    outer loop
      vertex 1.760354e+00 2.154877e+01 1.907349e-05
      vertex 7.574895e-01 1.938183e+01 0.000000e+00
      vertex 5.986646e-01 1.961641e+01 0.000000e+00
    endloop
  endfacet
  facet normal 1.881423e-06 -9.135345e-07 -1.000000e+00
    outer loop
      vertex 7.973722e-01 1.882529e+01 0.000000e+00
      vertex 3.760355e+00 4.048766e+00 1.907349e-05
      vertex 6.736329e-01 1.857045e+01 0.000000e+00
    endloop
  endfacet
  facet normal 1.232839e-05 3.096433e-06 -1.000000e+00
    outer loop
      vertex 1.760354e+00 2.154877e+01 1.907349e-05
      vertex 8.264974e-01 1.910707e+01 0.000000e+00
      vertex 7.574895e-01 1.938183e+01 0.000000e+00
    endloop
  endfacet
  facet normal 4.247738e-06 -4.390419e-07 -1.000000e+00
    outer loop
      vertex 8.264974e-01 1.910707e+01 0.000000e+00
      vertex 3.760355e+00 4.048766e+00 1.907349e-05
      vertex 7.973722e-01 1.882529e+01 0.000000e+00
    endloop
  endfacet
  facet normal 1.572542e-05 1.797192e-06 -1.000000e+00
    outer loop
      vertex 1.760354e+00 2.154877e+01 1.907349e-05
      vertex 3.760355e+00 4.048766e+00 1.907349e-05
      vertex 8.264974e-01 1.910707e+01 0.000000e+00
    endloop
  endfacet
  facet normal 3.749399e-33 6.123234e-17 -1.000000e+00
    outer loop
      vertex -3.734580e+00 4.048766e+00 0.000000e+00
      vertex -5.729052e-01 1.848110e+01 0.000000e+00
      vertex -3.434226e-01 1.831499e+01 0.000000e+00
    endloop
  endfacet
  facet normal 3.749399e-33 6.123234e-17 -1.000000e+00
    outer loop
      vertex -3.734580e+00 4.048766e+00 0.000000e+00
      vertex -7.716128e-01 1.927224e+01 0.000000e+00
      vertex -8.007380e-01 1.899045e+01 0.000000e+00
    endloop
  endfacet
  facet normal -1.356525e-05 2.640224e-06 -1.000000e+00
    outer loop
      vertex -3.734580e+00 4.048766e+00 0.000000e+00
      vertex -1.734585e+00 2.154876e+01 1.907349e-05
      vertex -7.716128e-01 1.927224e+01 0.000000e+00
    endloop
  endfacet
  facet normal -6.011264e-06 6.203187e-06 -1.000000e+00
    outer loop
      vertex -1.734585e+00 2.154876e+01 1.907349e-05
      vertex -4.444262e-01 1.972422e+01 0.000000e+00
      vertex -6.478640e-01 1.952707e+01 0.000000e+00
    endloop
  endfacet
  facet normal -3.552517e-06 7.941798e-06 -1.000000e+00
    outer loop
      vertex -1.858279e-01 1.983989e+01 0.000000e+00
      vertex -4.444262e-01 1.972422e+01 0.000000e+00
      vertex -1.734585e+00 2.154876e+01 1.907349e-05
    endloop
  endfacet
  facet normal 3.749399e-33 6.123234e-17 -1.000000e+00
    outer loop
      vertex -7.096738e-02 1.823738e+01 0.000000e+00
      vertex -3.734580e+00 4.048766e+00 0.000000e+00
      vertex -3.434226e-01 1.831499e+01 0.000000e+00
    endloop
  endfacet
  facet normal 2.544850e-06 -6.571007e-07 -1.000000e+00
    outer loop
      vertex -7.096738e-02 1.823738e+01 0.000000e+00
      vertex 3.760355e+00 4.048766e+00 1.907349e-05
      vertex -3.734580e+00 4.048766e+00 0.000000e+00
    endloop
  endfacet
  facet normal -1.541091e-11 1.129530e-05 -1.000000e+00
    outer loop
      vertex 9.673625e-02 1.986014e+01 0.000000e+00
      vertex -1.734585e+00 2.154876e+01 1.907349e-05
      vertex 1.760354e+00 2.154877e+01 1.907349e-05
    endloop
  endfacet
  facet normal -7.511476e-07 1.048069e-05 -1.000000e+00
    outer loop
      vertex 9.673625e-02 1.986014e+01 0.000000e+00
      vertex -1.858279e-01 1.983989e+01 0.000000e+00
      vertex -1.734585e+00 2.154876e+01 1.907349e-05
    endloop
  endfacet
  facet normal -3.749399e-33 -6.123234e-17 1.000000e+00
    outer loop
      vertex -7.317254e-01 1.871569e+01 2.220097e+00
      vertex -3.734586e+00 4.048761e+00 2.220097e+00
      vertex -5.729005e-01 1.848110e+01 2.220097e+00
    endloop
  endfacet
  facet normal -1.522827e-04 3.117788e-05 1.000000e+00
    outer loop
      vertex -8.007237e-01 1.899044e+01 2.220078e+00
      vertex -3.734586e+00 4.048761e+00 2.220097e+00
      vertex -7.317254e-01 1.871569e+01 2.220097e+00
    endloop
  endfacet
  facet normal 9.221425e-06 -4.477593e-06 1.000000e+00
    outer loop
      vertex -6.478688e-01 1.952706e+01 2.220078e+00
      vertex -1.734590e+00 2.154877e+01 2.220097e+00
      vertex -7.716081e-01 1.927223e+01 2.220078e+00
    endloop
  endfacet
  facet normal -3.749399e-33 -6.123234e-17 1.000000e+00
    outer loop
      vertex 2.116016e-01 1.825763e+01 2.220097e+00
      vertex -7.096261e-02 1.823738e+01 2.220097e+00
      vertex 3.760360e+00 4.048766e+00 2.220097e+00
    endloop
  endfacet
  facet normal -3.749399e-33 -6.123234e-17 1.000000e+00
    outer loop
      vertex 1.760359e+00 2.154877e+01 2.220097e+00
      vertex 9.673148e-02 1.986013e+01 2.220097e+00
      vertex 3.691772e-01 1.978252e+01 2.220097e+00
    endloop
  endfacet
  facet normal 6.634506e-05 1.657012e-05 1.000000e+00
    outer loop
      vertex 4.701999e-01 1.837331e+01 2.220078e+00
      vertex 2.116016e-01 1.825763e+01 2.220097e+00
      vertex 3.760360e+00 4.048766e+00 2.220097e+00
    endloop
  endfacet
  facet normal -3.749399e-33 -6.123234e-17 1.000000e+00
    outer loop
      vertex 1.760359e+00 2.154877e+01 2.220097e+00
      vertex 3.691772e-01 1.978252e+01 2.220097e+00
      vertex 5.986503e-01 1.961641e+01 2.220097e+00
    endloop
  endfacet
  facet normal -7.774196e-05 -1.652479e-05 1.000000e+00
    outer loop
      vertex 6.736377e-01 1.857046e+01 2.220097e+00
      vertex 4.701999e-01 1.837331e+01 2.220078e+00
      vertex 3.760360e+00 4.048766e+00 2.220097e+00
    endloop
  endfacet
  facet normal -3.749399e-33 -6.123234e-17 1.000000e+00
    outer loop
      vertex 1.760359e+00 2.154877e+01 2.220097e+00
      vertex 5.986503e-01 1.961641e+01 2.220097e+00
      vertex 7.574752e-01 1.938184e+01 2.220097e+00
    endloop
  endfacet
  facet normal -3.749399e-33 -6.123234e-17 1.000000e+00
    outer loop
      vertex 7.973769e-01 1.882529e+01 2.220097e+00
      vertex 6.736377e-01 1.857046e+01 2.220097e+00
      vertex 3.760360e+00 4.048766e+00 2.220097e+00
    endloop
  endfacet
  facet normal 9.722588e-05 -4.499744e-05 1.000000e+00
    outer loop
      vertex 1.760359e+00 2.154877e+01 2.220097e+00
      vertex 7.574752e-01 1.938184e+01 2.220097e+00
      vertex 8.264926e-01 1.910708e+01 2.220078e+00
    endloop
  endfacet
  facet normal 2.227679e-04 4.466933e-05 9.999999e-01
    outer loop
      vertex 8.264926e-01 1.910708e+01 2.220078e+00
      vertex 7.973769e-01 1.882529e+01 2.220097e+00
      vertex 3.760360e+00 4.048766e+00 2.220097e+00
    endloop
  endfacet
  facet normal -1.572531e-05 -1.797179e-06 1.000000e+00
    outer loop
      vertex 1.760359e+00 2.154877e+01 2.220097e+00
      vertex 8.264926e-01 1.910708e+01 2.220078e+00
      vertex 3.760360e+00 4.048766e+00 2.220097e+00
    endloop
  endfacet
  facet normal -3.749399e-33 -6.123234e-17 1.000000e+00
    outer loop
      vertex -3.734586e+00 4.048761e+00 2.220097e+00
      vertex -3.434178e-01 1.831499e+01 2.220097e+00
      vertex -5.729005e-01 1.848110e+01 2.220097e+00
    endloop
  endfacet
  facet normal 1.372182e-05 -1.417810e-06 1.000000e+00
    outer loop
      vertex -3.734586e+00 4.048761e+00 2.220097e+00
      vertex -8.007237e-01 1.899044e+01 2.220078e+00
      vertex -7.716081e-01 1.927223e+01 2.220078e+00
    endloop
  endfacet
  facet normal 1.559365e-05 -1.782127e-06 1.000000e+00
    outer loop
      vertex -3.734586e+00 4.048761e+00 2.220097e+00
      vertex -7.716081e-01 1.927223e+01 2.220078e+00
      vertex -1.734590e+00 2.154877e+01 2.220097e+00
    endloop
  endfacet
  facet normal 6.011236e-06 -6.203159e-06 1.000000e+00
    outer loop
      vertex -1.734590e+00 2.154877e+01 2.220097e+00
      vertex -6.478688e-01 1.952706e+01 2.220078e+00
      vertex -4.444310e-01 1.972421e+01 2.220078e+00
    endloop
  endfacet
  facet normal -5.248113e-05 -4.756352e-05 1.000000e+00
    outer loop
      vertex -1.858327e-01 1.983988e+01 2.220097e+00
      vertex -1.734590e+00 2.154877e+01 2.220097e+00
      vertex -4.444310e-01 1.972421e+01 2.220078e+00
    endloop
  endfacet
  facet normal -3.749399e-33 -6.123234e-17 1.000000e+00
    outer loop
      vertex -7.096261e-02 1.823738e+01 2.220097e+00
      vertex -3.434178e-01 1.831499e+01 2.220097e+00
      vertex -3.734586e+00 4.048761e+00 2.220097e+00
    endloop
  endfacet
  facet normal -3.749399e-33 -6.123234e-17 1.000000e+00
    outer loop
      vertex -7.096261e-02 1.823738e+01 2.220097e+00
      vertex -3.734586e+00 4.048761e+00 2.220097e+00
      vertex 3.760360e+00 4.048766e+00 2.220097e+00
    endloop
  endfacet
  facet normal -3.749399e-33 -6.123234e-17 1.000000e+00
    outer loop
      vertex 9.673148e-02 1.986013e+01 2.220097e+00
      vertex 1.760359e+00 2.154877e+01 2.220097e+00
      vertex -1.734590e+00 2.154877e+01 2.220097e+00
    endloop
  endfacet
  facet normal -3.749399e-33 -6.123234e-17 1.000000e+00
    outer loop
      vertex 9.673148e-02 1.986013e+01 2.220097e+00
      vertex -1.734590e+00 2.154877e+01 2.220097e+00
      vertex -1.858327e-01 1.983988e+01 2.220097e+00
    endloop
  endfacet
  facet normal -3.749399e-33 -6.123234e-17 1.000000e+00
    outer loop
      vertex 9.179893e+00 -1.018723e+01 2.220097e+00
      vertex 1.125530e+01 -7.951237e+00 2.220097e+00
      vertex 5.558696e+00 -7.951237e+00 2.220097e+00
    endloop
  endfacet
  facet normal -3.749399e-33 -6.123234e-17 1.000000e+00
    outer loop
      vertex 5.558696e+00 -7.951237e+00 2.220097e+00
      vertex 5.558696e+00 -1.018723e+01 2.220097e+00
      vertex 9.179893e+00 -1.018723e+01 2.220097e+00
    endloop
  endfacet
  facet normal -3.749399e-33 -6.123234e-17 1.000000e+00
    outer loop
      vertex 5.558696e+00 -1.018723e+01 2.220097e+00
      vertex 5.558698e+00 -1.854877e+01 2.220097e+00
      vertex 9.179895e+00 -1.854876e+01 2.220097e+00
    endloop
  endfacet
  facet normal -3.749399e-33 -6.123234e-17 1.000000e+00
    outer loop
      vertex 9.179895e+00 -1.854876e+01 2.220097e+00
      vertex 9.179893e+00 -1.018723e+01 2.220097e+00
      vertex 5.558696e+00 -1.018723e+01 2.220097e+00
    endloop
  endfacet
  facet normal -5.223254e-22 -8.530222e-06 -1.000000e+00
    outer loop
      vertex 1.125529e+01 -7.951237e+00 0.000000e+00
      vertex 9.179898e+00 -1.018723e+01 1.907349e-05
      vertex 5.558691e+00 -1.018723e+01 1.907349e-05
    endloop
  endfacet
  facet normal -3.348222e-06 6.123255e-17 -1.000000e+00
    outer loop
      vertex 5.558691e+00 -1.018723e+01 1.907349e-05
      vertex 5.558691e+00 -7.951237e+00 1.907349e-05
      vertex 1.125529e+01 -7.951237e+00 0.000000e+00
    endloop
  endfacet
  facet normal 3.749399e-33 6.123234e-17 -1.000000e+00
    outer loop
      vertex 9.179898e+00 -1.018723e+01 1.907349e-05
      vertex 9.179900e+00 -1.854876e+01 1.907349e-05
      vertex 5.558694e+00 -1.854876e+01 1.907349e-05
    endloop
  endfacet
  facet normal 3.749399e-33 6.123234e-17 -1.000000e+00
    outer loop
      vertex 5.558694e+00 -1.854876e+01 1.907349e-05
      vertex 5.558691e+00 -1.018723e+01 1.907349e-05
      vertex 9.179898e+00 -1.018723e+01 1.907349e-05
    endloop
  endfacet
  facet normal -1.000000e+00 6.123221e-17 2.147840e-06
    outer loop
      vertex 5.558691e+00 -7.951237e+00 1.907349e-05
      vertex 5.558691e+00 -1.018723e+01 1.907349e-05
      vertex 5.558696e+00 -1.018723e+01 2.220097e+00
    endloop
  endfacet
  facet normal -1.000000e+00 6.123221e-17 2.147840e-06
    outer loop
      vertex 5.558696e+00 -1.018723e+01 2.220097e+00
      vertex 5.558696e+00 -7.951237e+00 2.220097e+00
      vertex 5.558691e+00 -7.951237e+00 1.907349e-05
    endloop
  endfacet
  facet normal -1.000000e+00 -2.851372e-07 2.147840e-06
    outer loop
      vertex 5.558691e+00 -1.018723e+01 1.907349e-05
      vertex 5.558694e+00 -1.854876e+01 1.907349e-05
      vertex 5.558698e+00 -1.854877e+01 2.220097e+00
    endloop
  endfacet
  facet normal -1.000000e+00 -2.851372e-07 2.147840e-06
    outer loop
      vertex 5.558698e+00 -1.854877e+01 2.220097e+00
      vertex 5.558696e+00 -1.018723e+01 2.220097e+00
      vertex 5.558691e+00 -1.018723e+01 1.907349e-05
    endloop
  endfacet
  facet normal 1.000000e+00 2.851372e-07 2.147840e-06
    outer loop
      vertex 9.179893e+00 -1.018723e+01 2.220097e+00
      vertex 9.179895e+00 -1.854876e+01 2.220097e+00
      vertex 9.179900e+00 -1.854876e+01 1.907349e-05
    endloop
  endfacet
  facet normal 1.000000e+00 2.851372e-07 2.147840e-06
    outer loop
      vertex 9.179900e+00 -1.854876e+01 1.907349e-05
      vertex 9.179898e+00 -1.018723e+01 1.907349e-05
      vertex 9.179893e+00 -1.018723e+01 2.220097e+00
    endloop
  endfacet
  facet normal 1.000000e+00 -1.832146e-11 -2.147822e-06
    outer loop
      vertex -5.558686e+00 -7.951237e+00 2.220078e+00
      vertex -5.558686e+00 -1.018723e+01 2.220097e+00
      vertex -5.558691e+00 -1.018723e+01 0.000000e+00
    endloop
  endfacet
  facet normal 1.000000e+00 -6.123221e-17 -2.147840e-06
    outer loop
      vertex -5.558691e+00 -1.018723e+01 0.000000e+00
      vertex -5.558691e+00 -7.951237e+00 0.000000e+00
      vertex -5.558686e+00 -7.951237e+00 2.220078e+00
    endloop
  endfacet
  facet normal 1.000000e+00 1.425686e-07 -1.610880e-06
    outer loop
      vertex -5.558686e+00 -1.018723e+01 2.220097e+00
      vertex -5.558685e+00 -1.854876e+01 2.220097e+00
      vertex -5.558688e+00 -1.854876e+01 1.907349e-05
    endloop
  endfacet
  facet normal 1.000000e+00 2.851324e-07 -2.147822e-06
    outer loop
      vertex -5.558688e+00 -1.854876e+01 1.907349e-05
      vertex -5.558691e+00 -1.018723e+01 0.000000e+00
      vertex -5.558686e+00 -1.018723e+01 2.220097e+00
    endloop
  endfacet
  facet normal -3.749399e-33 -6.123234e-17 1.000000e+00
    outer loop
      vertex -1.122953e+01 -7.951237e+00 2.220097e+00
      vertex -9.179892e+00 -1.018723e+01 2.220097e+00
      vertex -5.558686e+00 -1.018723e+01 2.220097e+00
    endloop
  endfacet
  facet normal 3.363430e-06 8.530222e-06 1.000000e+00
    outer loop
      vertex -5.558686e+00 -1.018723e+01 2.220097e+00
      vertex -5.558686e+00 -7.951237e+00 2.220078e+00
      vertex -1.122953e+01 -7.951237e+00 2.220097e+00
    endloop
  endfacet
  facet normal -3.749399e-33 -6.123234e-17 1.000000e+00
    outer loop
      vertex -9.179892e+00 -1.018723e+01 2.220097e+00
      vertex -9.179891e+00 -1.854876e+01 2.220097e+00
      vertex -5.558685e+00 -1.854876e+01 2.220097e+00
    endloop
  endfacet
  facet normal -3.749399e-33 -6.123234e-17 1.000000e+00
    outer loop
      vertex -5.558685e+00 -1.854876e+01 2.220097e+00
      vertex -5.558686e+00 -1.018723e+01 2.220097e+00
      vertex -9.179892e+00 -1.018723e+01 2.220097e+00
    endloop
  endfacet
  facet normal -5.267178e-06 4.505667e-12 -1.000000e+00
    outer loop
      vertex -9.179895e+00 -1.854876e+01 1.907349e-05
      vertex -9.179887e+00 -1.018723e+01 1.907349e-05
      vertex -5.558691e+00 -1.018723e+01 0.000000e+00
    endloop
  endfacet
  facet normal -1.396770e-22 -2.281098e-06 -1.000000e+00
    outer loop
      vertex -5.558691e+00 -1.018723e+01 0.000000e+00
      vertex -5.558688e+00 -1.854876e+01 1.907349e-05
      vertex -9.179895e+00 -1.854876e+01 1.907349e-05
    endloop
  endfacet
  facet normal -3.363436e-06 -3.083120e-06 -1.000000e+00
    outer loop
      vertex -9.179887e+00 -1.018723e+01 1.907349e-05
      vertex -1.122952e+01 -7.951237e+00 1.907349e-05
      vertex -5.558691e+00 -7.951237e+00 0.000000e+00
    endloop
  endfacet
  facet normal -5.267178e-06 6.123267e-17 -1.000000e+00
    outer loop
      vertex -5.558691e+00 -7.951237e+00 0.000000e+00
      vertex -5.558691e+00 -1.018723e+01 0.000000e+00
      vertex -9.179887e+00 -1.018723e+01 1.907349e-05
    endloop
  endfacet
  facet normal -1.000000e+00 8.554118e-07 1.610880e-06
    outer loop
      vertex -9.179887e+00 -1.018723e+01 1.907349e-05
      vertex -9.179895e+00 -1.854876e+01 1.907349e-05
      vertex -9.179891e+00 -1.854876e+01 2.220097e+00
    endloop
  endfacet
  facet normal -1.000000e+00 -1.425686e-07 -2.147840e-06
    outer loop
      vertex -9.179891e+00 -1.854876e+01 2.220097e+00
      vertex -9.179892e+00 -1.018723e+01 2.220097e+00
      vertex -9.179887e+00 -1.018723e+01 1.907349e-05
    endloop
  endfacet
  facet normal -6.123234e-17 -1.000000e+00 -6.123234e-17
    outer loop
      vertex 9.179893e+00 -1.018723e+01 2.220097e+00
      vertex 9.179898e+00 -1.018723e+01 1.907349e-05
      vertex 1.374340e+01 -1.018723e+01 1.907349e-05
    endloop
  endfacet
  facet normal -6.123234e-17 -1.000000e+00 -6.123234e-17
    outer loop
      vertex 1.374340e+01 -1.018723e+01 1.907349e-05
      vertex 1.374340e+01 -1.018723e+01 2.220097e+00
      vertex 9.179893e+00 -1.018723e+01 2.220097e+00
    endloop
  endfacet
  facet normal 7.665861e-06 -1.564550e-05 -1.000000e+00
    outer loop
      vertex 9.179898e+00 -1.018723e+01 1.907349e-05
      vertex 1.125529e+01 -7.951237e+00 0.000000e+00
      vertex 1.374340e+01 -7.951237e+00 1.907349e-05
    endloop
  endfacet
  facet normal 3.749399e-33 6.123234e-17 -1.000000e+00
    outer loop
      vertex 1.374340e+01 -7.951237e+00 1.907349e-05
      vertex 1.374340e+01 -1.018723e+01 1.907349e-05
      vertex 9.179898e+00 -1.018723e+01 1.907349e-05
    endloop
  endfacet
  facet normal -3.749399e-33 -6.123234e-17 1.000000e+00
    outer loop
      vertex 1.125530e+01 -7.951237e+00 2.220097e+00
      vertex 9.179893e+00 -1.018723e+01 2.220097e+00
      vertex 1.374340e+01 -1.018723e+01 2.220097e+00
    endloop
  endfacet
  facet normal -3.749399e-33 -6.123234e-17 1.000000e+00
    outer loop
      vertex 1.374340e+01 -1.018723e+01 2.220097e+00
      vertex 1.374341e+01 -7.951237e+00 2.220097e+00
      vertex 1.125530e+01 -7.951237e+00 2.220097e+00
    endloop
  endfacet
  facet normal 6.123234e-17 1.000000e+00 6.123234e-17
    outer loop
      vertex 1.125529e+01 -7.951237e+00 0.000000e+00
      vertex 1.125530e+01 -7.951237e+00 2.220097e+00
      vertex 1.374341e+01 -7.951237e+00 2.220097e+00
    endloop
  endfacet
  facet normal 6.123234e-17 1.000000e+00 6.123234e-17
    outer loop
      vertex 1.374341e+01 -7.951237e+00 2.220097e+00
      vertex 1.374340e+01 -7.951237e+00 1.907349e-05
      vertex 1.125529e+01 -7.951237e+00 0.000000e+00
    endloop
  endfacet
  facet normal -6.123234e-17 -1.000000e+00 -6.123234e-17
    outer loop
      vertex -9.179887e+00 -1.018723e+01 1.907349e-05
      vertex -9.179892e+00 -1.018723e+01 2.220097e+00
      vertex -1.374341e+01 -1.018723e+01 2.220097e+00
    endloop
  endfacet
  facet normal -6.123234e-17 -1.000000e+00 -6.123234e-17
    outer loop
      vertex -1.374341e+01 -1.018723e+01 2.220097e+00
      vertex -1.374340e+01 -1.018723e+01 0.000000e+00
      vertex -9.179887e+00 -1.018723e+01 1.907349e-05
    endloop
  endfacet
  facet normal 4.179563e-06 3.831228e-06 -1.000000e+00
    outer loop
      vertex -1.122952e+01 -7.951237e+00 1.907349e-05
      vertex -9.179887e+00 -1.018723e+01 1.907349e-05
      vertex -1.374340e+01 -1.018723e+01 0.000000e+00
    endloop
  endfacet
  facet normal 7.587282e-06 2.022599e-12 -1.000000e+00
    outer loop
      vertex -1.374340e+01 -1.018723e+01 0.000000e+00
      vertex -1.374340e+01 -7.951237e+00 0.000000e+00
      vertex -1.122952e+01 -7.951237e+00 1.907349e-05
    endloop
  endfacet
  facet normal -3.749399e-33 -6.123234e-17 1.000000e+00
    outer loop
      vertex -9.179892e+00 -1.018723e+01 2.220097e+00
      vertex -1.122953e+01 -7.951237e+00 2.220097e+00
      vertex -1.374341e+01 -7.951237e+00 2.220097e+00
    endloop
  endfacet
  facet normal -3.749399e-33 -6.123234e-17 1.000000e+00
    outer loop
      vertex -1.374341e+01 -7.951237e+00 2.220097e+00
      vertex -1.374341e+01 -1.018723e+01 2.220097e+00
      vertex -9.179892e+00 -1.018723e+01 2.220097e+00
    endloop
  endfacet
  facet normal 6.123234e-17 1.000000e+00 6.123234e-17
    outer loop
      vertex -1.122953e+01 -7.951237e+00 2.220097e+00
      vertex -1.122952e+01 -7.951237e+00 1.907349e-05
      vertex -1.374340e+01 -7.951237e+00 0.000000e+00
    endloop
  endfacet
  facet normal 6.123234e-17 1.000000e+00 6.123234e-17
    outer loop
      vertex -1.374340e+01 -7.951237e+00 0.000000e+00
      vertex -1.374341e+01 -7.951237e+00 2.220097e+00
      vertex -1.122953e+01 -7.951237e+00 2.220097e+00
    endloop
  endfacet
  facet normal 6.123234e-17 1.000000e+00 6.123234e-17
    outer loop
      vertex 9.179898e+00 -5.951234e+00 0.000000e+00
      vertex 9.179902e+00 -5.951234e+00 2.220097e+00
      vertex 1.125530e+01 -5.951234e+00 2.220097e+00
    endloop
  endfacet
  facet normal 6.123234e-17 1.000000e+00 6.123234e-17
    outer loop
      vertex 1.125530e+01 -5.951234e+00 2.220097e+00
      vertex 1.125529e+01 -5.951234e+00 0.000000e+00
      vertex 9.179898e+00 -5.951234e+00 0.000000e+00
    endloop
  endfacet
  facet normal -3.749399e-33 -6.123234e-17 1.000000e+00
    outer loop
      vertex 9.179902e+00 -5.951234e+00 2.220097e+00
      vertex 1.125530e+01 -7.951237e+00 2.220097e+00
      vertex 1.125530e+01 -5.951234e+00 2.220097e+00
    endloop
  endfacet
  facet normal 3.749399e-33 6.123234e-17 -1.000000e+00
    outer loop
      vertex 1.125529e+01 -7.951237e+00 0.000000e+00
      vertex 9.179898e+00 -5.951234e+00 0.000000e+00
      vertex 1.125529e+01 -5.951234e+00 0.000000e+00
    endloop
  endfacet
  facet normal 1.000000e+00 -6.123221e-17 -2.147822e-06
    outer loop
      vertex 1.125530e+01 -5.951234e+00 2.220097e+00
      vertex 1.125530e+01 -7.951237e+00 2.220097e+00
      vertex 1.125529e+01 -7.951237e+00 0.000000e+00
    endloop
  endfacet
  facet normal 1.000000e+00 -6.123221e-17 -2.147822e-06
    outer loop
      vertex 1.125529e+01 -7.951237e+00 0.000000e+00
      vertex 1.125529e+01 -5.951234e+00 0.000000e+00
      vertex 1.125530e+01 -5.951234e+00 2.220097e+00
    endloop
  endfacet
  facet normal -3.749399e-33 -6.123234e-17 1.000000e+00
    outer loop
      vertex -1.122953e+01 -7.951237e+00 2.220097e+00
      vertex -9.179893e+00 -5.951234e+00 2.220097e+00
      vertex -1.122953e+01 -5.951234e+00 2.220097e+00
    endloop
  endfacet
  facet normal 6.123234e-17 1.000000e+00 6.123234e-17
    outer loop
      vertex -9.179893e+00 -5.951234e+00 2.220097e+00
      vertex -9.179887e+00 -5.951234e+00 0.000000e+00
      vertex -1.122952e+01 -5.951234e+00 1.907349e-05
    endloop
  endfacet
  facet normal 6.123234e-17 1.000000e+00 6.123234e-17
    outer loop
      vertex -1.122952e+01 -5.951234e+00 1.907349e-05
      vertex -1.122953e+01 -5.951234e+00 2.220097e+00
      vertex -9.179893e+00 -5.951234e+00 2.220097e+00
    endloop
  endfacet
  facet normal -9.305789e-06 6.123291e-17 -1.000000e+00
    outer loop
      vertex -9.179887e+00 -5.951234e+00 0.000000e+00
      vertex -1.122952e+01 -7.951237e+00 1.907349e-05
      vertex -1.122952e+01 -5.951234e+00 1.907349e-05
    endloop
  endfacet
  facet normal -1.000000e+00 -5.960456e-07 -2.684800e-06
    outer loop
      vertex -1.122953e+01 -7.951237e+00 2.220097e+00
      vertex -1.122953e+01 -5.951234e+00 2.220097e+00
      vertex -1.122952e+01 -5.951234e+00 1.907349e-05
    endloop
  endfacet
  facet normal -1.000000e+00 6.123247e-17 -2.147840e-06
    outer loop
      vertex -1.122952e+01 -5.951234e+00 1.907349e-05
      vertex -1.122952e+01 -7.951237e+00 1.907349e-05
      vertex -1.122953e+01 -7.951237e+00 2.220097e+00
    endloop
  endfacet
  facet normal NaN NaN NaN
    outer loop
      vertex 1.374341e+01 -7.951237e+00 2.220097e+00
      vertex 1.374340e+01 -1.018723e+01 2.220097e+00
      vertex 1.374340e+01 -1.018723e+01 2.220097e+00
    endloop
  endfacet
  facet normal -3.749399e-33 -6.123234e-17 1.000000e+00
    outer loop
      vertex 1.374340e+01 -1.018723e+01 2.220097e+00
      vertex 1.474341e+01 -7.951237e+00 2.220097e+00
      vertex 1.374341e+01 -7.951237e+00 2.220097e+00
    endloop
  endfacet
  facet normal 3.749399e-33 6.123234e-17 -1.000000e+00
    outer loop
      vertex 1.374340e+01 -1.018723e+01 1.907349e-05
      vertex 1.374340e+01 -7.951237e+00 1.907349e-05
      vertex 1.474340e+01 -7.951237e+00 1.907349e-05
    endloop
  endfacet
  facet normal NaN NaN NaN
    outer loop
      vertex 1.474340e+01 -7.951237e+00 1.907349e-05
      vertex 1.374340e+01 -1.018723e+01 1.907349e-05
      vertex 1.374340e+01 -1.018723e+01 1.907349e-05
    endloop
  endfacet
  facet normal NaN NaN NaN
    outer loop
      vertex 1.374340e+01 -1.018723e+01 2.220097e+00
      vertex 1.374340e+01 -1.018723e+01 1.907349e-05
      vertex 1.374340e+01 -1.018723e+01 1.907349e-05
    endloop
  endfacet
  facet normal NaN NaN NaN
    outer loop
      vertex 1.374340e+01 -1.018723e+01 1.907349e-05
      vertex 1.374340e+01 -1.018723e+01 2.220097e+00
      vertex 1.374340e+01 -1.018723e+01 2.220097e+00
    endloop
  endfacet
  facet normal 9.128636e-01 -4.082648e-01 1.960685e-06
    outer loop
      vertex 1.474341e+01 -7.951237e+00 2.220097e+00
      vertex 1.374340e+01 -1.018723e+01 2.220097e+00
      vertex 1.374340e+01 -1.018723e+01 1.907349e-05
    endloop
  endfacet
  facet normal 9.128651e-01 -4.082615e-01 -1.960688e-06
    outer loop
      vertex 1.374340e+01 -1.018723e+01 1.907349e-05
      vertex 1.474340e+01 -7.951237e+00 1.907349e-05
      vertex 1.474341e+01 -7.951237e+00 2.220097e+00
    endloop
  endfacet
  facet normal 3.749399e-33 6.123234e-17 -1.000000e+00
    outer loop
      vertex 1.474340e+01 -7.951237e+00 1.907349e-05
      vertex 1.374340e+01 -7.951237e+00 1.907349e-05
      vertex 1.374340e+01 -7.701236e+00 1.907349e-05
    endloop
  endfacet
  facet normal NaN NaN NaN
    outer loop
      vertex 1.374340e+01 -7.701236e+00 1.907349e-05
      vertex 1.474340e+01 -7.951237e+00 1.907349e-05
      vertex 1.474340e+01 -7.951237e+00 1.907349e-05
    endloop
  endfacet
  facet normal NaN NaN NaN
    outer loop
      vertex 1.474341e+01 -7.951237e+00 2.220097e+00
      vertex 1.474340e+01 -7.951237e+00 1.907349e-05
      vertex 1.474340e+01 -7.951237e+00 1.907349e-05
    endloop
  endfacet
  facet normal NaN NaN NaN
    outer loop
      vertex 1.474340e+01 -7.951237e+00 1.907349e-05
      vertex 1.474341e+01 -7.951237e+00 2.220097e+00
      vertex 1.474341e+01 -7.951237e+00 2.220097e+00
    endloop
  endfacet
  facet normal NaN NaN NaN
    outer loop
      vertex 1.374341e+01 -7.951237e+00 2.220097e+00
      vertex 1.474341e+01 -7.951237e+00 2.220097e+00
      vertex 1.474341e+01 -7.951237e+00 2.220097e+00
    endloop
  endfacet
  facet normal -3.749399e-33 -6.123234e-17 1.000000e+00
    outer loop
      vertex 1.474341e+01 -7.951237e+00 2.220097e+00
      vertex 1.374341e+01 -7.701236e+00 2.220097e+00
      vertex 1.374341e+01 -7.951237e+00 2.220097e+00
    endloop
  endfacet
  facet normal -1.000000e+00 6.123221e-17 2.147840e-06
    outer loop
      vertex 1.374340e+01 -7.951237e+00 1.907349e-05
      vertex 1.374341e+01 -7.951237e+00 2.220097e+00
      vertex 1.374341e+01 -7.701236e+00 2.220097e+00
    endloop
  endfacet
  facet normal -1.000000e+00 6.123221e-17 2.147840e-06
    outer loop
      vertex 1.374341e+01 -7.701236e+00 2.220097e+00
      vertex 1.374340e+01 -7.701236e+00 1.907349e-05
      vertex 1.374340e+01 -7.951237e+00 1.907349e-05
    endloop
  endfacet
  facet normal 2.425356e-01 9.701425e-01 -5.209278e-07
    outer loop
      vertex 1.374340e+01 -7.701236e+00 1.907349e-05
      vertex 1.374341e+01 -7.701236e+00 2.220097e+00
      vertex 1.474341e+01 -7.951237e+00 2.220097e+00
    endloop
  endfacet
  facet normal 2.425356e-01 9.701425e-01 -5.209278e-07
    outer loop
      vertex 1.474341e+01 -7.951237e+00 2.220097e+00
      vertex 1.474340e+01 -7.951237e+00 1.907349e-05
      vertex 1.374340e+01 -7.701236e+00 1.907349e-05
    endloop
  endfacet
  facet normal -3.749399e-33 -6.123234e-17 1.000000e+00
    outer loop
      vertex -1.374341e+01 -1.018723e+01 2.220097e+00
      vertex -1.374341e+01 -7.951237e+00 2.220097e+00
      vertex -1.474341e+01 -7.951237e+00 2.220097e+00
    endloop
  endfacet
  facet normal NaN NaN NaN
    outer loop
      vertex -1.474341e+01 -7.951237e+00 2.220097e+00
      vertex -1.374341e+01 -1.018723e+01 2.220097e+00
      vertex -1.374341e+01 -1.018723e+01 2.220097e+00
    endloop
  endfacet
  facet normal NaN NaN NaN
    outer loop
      vertex -1.374340e+01 -7.951237e+00 0.000000e+00
      vertex -1.374340e+01 -1.018723e+01 0.000000e+00
      vertex -1.374340e+01 -1.018723e+01 0.000000e+00
    endloop
  endfacet
  facet normal 3.749399e-33 6.123234e-17 -1.000000e+00
    outer loop
      vertex -1.374340e+01 -1.018723e+01 0.000000e+00
      vertex -1.474340e+01 -7.951237e+00 0.000000e+00
      vertex -1.374340e+01 -7.951237e+00 0.000000e+00
    endloop
  endfacet
  facet normal NaN NaN NaN
    outer loop
      vertex -1.374340e+01 -1.018723e+01 0.000000e+00
      vertex -1.374341e+01 -1.018723e+01 2.220097e+00
      vertex -1.374341e+01 -1.018723e+01 2.220097e+00
    endloop
  endfacet
  facet normal NaN NaN NaN
    outer loop
      vertex -1.374341e+01 -1.018723e+01 2.220097e+00
      vertex -1.374340e+01 -1.018723e+01 0.000000e+00
      vertex -1.374340e+01 -1.018723e+01 0.000000e+00
    endloop
  endfacet
  facet normal -9.128649e-01 -4.082617e-01 -2.205755e-06
    outer loop
      vertex -1.474340e+01 -7.951237e+00 0.000000e+00
      vertex -1.374340e+01 -1.018723e+01 0.000000e+00
      vertex -1.374341e+01 -1.018723e+01 2.220097e+00
    endloop
  endfacet
  facet normal -9.128649e-01 -4.082617e-01 -2.205755e-06
    outer loop
      vertex -1.374341e+01 -1.018723e+01 2.220097e+00
      vertex -1.474341e+01 -7.951237e+00 2.220097e+00
      vertex -1.474340e+01 -7.951237e+00 0.000000e+00
    endloop
  endfacet
  facet normal -3.749399e-33 -6.123234e-17 1.000000e+00
    outer loop
      vertex -1.474341e+01 -7.951237e+00 2.220097e+00
      vertex -1.374341e+01 -7.951237e+00 2.220097e+00
      vertex -1.374341e+01 -7.701236e+00 2.220097e+00
    endloop
  endfacet
  facet normal NaN NaN NaN
    outer loop
      vertex -1.374341e+01 -7.701236e+00 2.220097e+00
      vertex -1.474341e+01 -7.951237e+00 2.220097e+00
      vertex -1.474341e+01 -7.951237e+00 2.220097e+00
    endloop
  endfacet
  facet normal NaN NaN NaN
    outer loop
      vertex -1.474340e+01 -7.951237e+00 0.000000e+00
      vertex -1.474341e+01 -7.951237e+00 2.220097e+00
      vertex -1.474341e+01 -7.951237e+00 2.220097e+00
    endloop
  endfacet
  facet normal NaN NaN NaN
    outer loop
      vertex -1.474341e+01 -7.951237e+00 2.220097e+00
      vertex -1.474340e+01 -7.951237e+00 0.000000e+00
      vertex -1.474340e+01 -7.951237e+00 0.000000e+00
    endloop
  endfacet
  facet normal NaN NaN NaN
    outer loop
      vertex -1.374340e+01 -7.951237e+00 0.000000e+00
      vertex -1.474340e+01 -7.951237e+00 0.000000e+00
      vertex -1.474340e+01 -7.951237e+00 0.000000e+00
    endloop
  endfacet
  facet normal 4.671639e-21 7.629365e-05 -1.000000e+00
    outer loop
      vertex -1.474340e+01 -7.951237e+00 0.000000e+00
      vertex -1.374340e+01 -7.701236e+00 1.907349e-05
      vertex -1.374340e+01 -7.951237e+00 0.000000e+00
    endloop
  endfacet
  facet normal 1.000000e+00 -1.843484e-10 2.416299e-06
    outer loop
      vertex -1.374341e+01 -7.951237e+00 2.220097e+00
      vertex -1.374340e+01 -7.951237e+00 0.000000e+00
      vertex -1.374340e+01 -7.701236e+00 1.907349e-05
    endloop
  endfacet
  facet normal 1.000000e+00 -6.123249e-17 2.416320e-06
    outer loop
      vertex -1.374340e+01 -7.701236e+00 1.907349e-05
      vertex -1.374341e+01 -7.701236e+00 2.220097e+00
      vertex -1.374341e+01 -7.951237e+00 2.220097e+00
    endloop
  endfacet
  facet normal -2.425356e-01 9.701425e-01 -5.860437e-07
    outer loop
      vertex -1.374341e+01 -7.701236e+00 2.220097e+00
      vertex -1.374340e+01 -7.701236e+00 1.907349e-05
      vertex -1.474340e+01 -7.951237e+00 0.000000e+00
    endloop
  endfacet
  facet normal -2.425356e-01 9.701425e-01 -5.860387e-07
    outer loop
      vertex -1.474340e+01 -7.951237e+00 0.000000e+00
      vertex -1.474341e+01 -7.951237e+00 2.220097e+00
      vertex -1.374341e+01 -7.701236e+00 2.220097e+00
    endloop
  endfacet
  facet normal -3.749399e-33 -6.123234e-17 1.000000e+00
    outer loop
      vertex 9.179895e+00 -2.054876e+01 2.220097e+00
      vertex -9.179891e+00 -2.054876e+01 2.220097e+00
      vertex -9.179890e+00 -2.154877e+01 2.220097e+00
    endloop
  endfacet
  facet normal -3.749399e-33 -6.123234e-17 1.000000e+00
    outer loop
      vertex -9.179890e+00 -2.154877e+01 2.220097e+00
      vertex 9.179895e+00 -2.154877e+01 2.220097e+00
      vertex 9.179895e+00 -2.054876e+01 2.220097e+00
    endloop
  endfacet
  facet normal 3.749399e-33 6.123234e-17 -1.000000e+00
    outer loop
      vertex -9.179895e+00 -2.054876e+01 1.907349e-05
      vertex 9.179900e+00 -2.054876e+01 1.907349e-05
      vertex 9.179900e+00 -2.154876e+01 1.907349e-05
    endloop
  endfacet
  facet normal 3.749399e-33 6.123234e-17 -1.000000e+00
    outer loop
      vertex 9.179900e+00 -2.154876e+01 1.907349e-05
      vertex -9.179895e+00 -2.154877e+01 1.907349e-05
      vertex -9.179895e+00 -2.054876e+01 1.907349e-05
    endloop
  endfacet
  facet normal 1.298591e-07 -1.000000e+00 -2.789778e-13
    outer loop
      vertex -9.179890e+00 -2.154877e+01 2.220097e+00
      vertex -9.179895e+00 -2.154877e+01 1.907349e-05
      vertex 9.179900e+00 -2.154876e+01 1.907349e-05
    endloop
  endfacet
  facet normal -6.123234e-17 -1.000000e+00 -1.073920e-06
    outer loop
      vertex 9.179900e+00 -2.154876e+01 1.907349e-05
      vertex 9.179895e+00 -2.154877e+01 2.220097e+00
      vertex -9.179890e+00 -2.154877e+01 2.220097e+00
    endloop
  endfacet
  facet normal NaN NaN NaN
    outer loop
      vertex -9.179895e+00 -2.154877e+01 1.907349e-05
      vertex -9.179890e+00 -2.154877e+01 2.220097e+00
      vertex -9.179890e+00 -2.154877e+01 2.220097e+00
    endloop
  endfacet
  facet normal NaN NaN NaN
    outer loop
      vertex -9.179890e+00 -2.154877e+01 2.220097e+00
      vertex -9.179895e+00 -2.154877e+01 1.907349e-05
      vertex -9.179895e+00 -2.154877e+01 1.907349e-05
    endloop
  endfacet
  facet normal NaN NaN NaN
    outer loop
      vertex 9.179895e+00 -2.154877e+01 2.220097e+00
      vertex 9.179900e+00 -2.154876e+01 1.907349e-05
      vertex 9.179900e+00 -2.154876e+01 1.907349e-05
    endloop
  endfacet
  facet normal NaN NaN NaN
    outer loop
      vertex 9.179900e+00 -2.154876e+01 1.907349e-05
      vertex 9.179895e+00 -2.154877e+01 2.220097e+00
      vertex 9.179895e+00 -2.154877e+01 2.220097e+00
    endloop
  endfacet
  facet normal NaN NaN NaN
    outer loop
      vertex -9.179895e+00 -2.054876e+01 1.907349e-05
      vertex -9.179895e+00 -2.154877e+01 1.907349e-05
      vertex -9.179895e+00 -2.154877e+01 1.907349e-05
    endloop
  endfacet
  facet normal 3.749399e-33 6.123234e-17 -1.000000e+00
    outer loop
      vertex -9.179895e+00 -2.154877e+01 1.907349e-05
      vertex -9.429891e+00 -2.054876e+01 1.907349e-05
      vertex -9.179895e+00 -2.054876e+01 1.907349e-05
    endloop
  endfacet
  facet normal 3.749399e-33 6.123234e-17 -1.000000e+00
    outer loop
      vertex 9.179900e+00 -2.154876e+01 1.907349e-05
      vertex 9.179900e+00 -2.054876e+01 1.907349e-05
      vertex 9.429896e+00 -2.054876e+01 1.907349e-05
    endloop
  endfacet
  facet normal NaN NaN NaN
    outer loop
      vertex 9.429896e+00 -2.054876e+01 1.907349e-05
      vertex 9.179900e+00 -2.154876e+01 1.907349e-05
      vertex 9.179900e+00 -2.154876e+01 1.907349e-05
    endloop
  endfacet
  facet normal NaN NaN NaN
    outer loop
      vertex 9.179895e+00 -2.054876e+01 2.220097e+00
      vertex 9.179895e+00 -2.154877e+01 2.220097e+00
      vertex 9.179895e+00 -2.154877e+01 2.220097e+00
    endloop
  endfacet
  facet normal -3.749399e-33 -6.123234e-17 1.000000e+00
    outer loop
      vertex 9.179895e+00 -2.154877e+01 2.220097e+00
      vertex 9.429891e+00 -2.054876e+01 2.220097e+00
      vertex 9.179895e+00 -2.054876e+01 2.220097e+00
    endloop
  endfacet
  facet normal -3.749399e-33 -6.123234e-17 1.000000e+00
    outer loop
      vertex -9.179890e+00 -2.154877e+01 2.220097e+00
      vertex -9.179891e+00 -2.054876e+01 2.220097e+00
      vertex -9.429887e+00 -2.054876e+01 2.220097e+00
    endloop
  endfacet
  facet normal NaN NaN NaN
    outer loop
      vertex -9.429887e+00 -2.054876e+01 2.220097e+00
      vertex -9.179890e+00 -2.154877e+01 2.220097e+00
      vertex -9.179890e+00 -2.154877e+01 2.220097e+00
    endloop
  endfacet
  facet normal 6.123234e-17 1.000000e+00 6.123234e-17
    outer loop
      vertex 9.179900e+00 -2.054876e+01 1.907349e-05
      vertex 9.179895e+00 -2.054876e+01 2.220097e+00
      vertex 9.429891e+00 -2.054876e+01 2.220097e+00
    endloop
  endfacet
  facet normal 6.123234e-17 1.000000e+00 6.123234e-17
    outer loop
      vertex 9.429891e+00 -2.054876e+01 2.220097e+00
      vertex 9.429896e+00 -2.054876e+01 1.907349e-05
      vertex 9.179900e+00 -2.054876e+01 1.907349e-05
    endloop
  endfacet
  facet normal 6.123234e-17 1.000000e+00 6.123234e-17
    outer loop
      vertex -9.179891e+00 -2.054876e+01 2.220097e+00
      vertex -9.179895e+00 -2.054876e+01 1.907349e-05
      vertex -9.429891e+00 -2.054876e+01 1.907349e-05
    endloop
  endfacet
  facet normal 6.123234e-17 1.000000e+00 6.123234e-17
    outer loop
      vertex -9.429891e+00 -2.054876e+01 1.907349e-05
      vertex -9.429887e+00 -2.054876e+01 2.220097e+00
      vertex -9.179891e+00 -2.054876e+01 2.220097e+00
    endloop
  endfacet
  facet normal -9.701434e-01 -2.425318e-01 1.562785e-06
    outer loop
      vertex -9.429887e+00 -2.054876e+01 2.220097e+00
      vertex -9.429891e+00 -2.054876e+01 1.907349e-05
      vertex -9.179895e+00 -2.154877e+01 1.907349e-05
    endloop
  endfacet
  facet normal -9.701431e-01 -2.425329e-01 2.083712e-06
    outer loop
      vertex -9.179895e+00 -2.154877e+01 1.907349e-05
      vertex -9.179890e+00 -2.154877e+01 2.220097e+00
      vertex -9.429887e+00 -2.054876e+01 2.220097e+00
    endloop
  endfacet
  facet normal 9.701434e-01 -2.425318e-01 2.083713e-06
    outer loop
      vertex 9.429896e+00 -2.054876e+01 1.907349e-05
      vertex 9.429891e+00 -2.054876e+01 2.220097e+00
      vertex 9.179895e+00 -2.154877e+01 2.220097e+00
    endloop
  endfacet
  facet normal 9.701433e-01 -2.425324e-01 1.823252e-06
    outer loop
      vertex 9.179895e+00 -2.154877e+01 2.220097e+00
      vertex 9.179900e+00 -2.154876e+01 1.907349e-05
      vertex 9.429896e+00 -2.054876e+01 1.907349e-05
    endloop
  endfacet
endsolid Default
