solid Default
  facet normal 1.839751e-05 7.585573e-06 1.000000e+00
    outer loop
      vertex -5.523257e+00 1.282214e+01 2.515197e+00
      vertex -6.441798e+00 1.504991e+01 2.515197e+00
      vertex -6.700988e+00 1.504992e+01 2.515202e+00
    endloop
  endfacet
  facet normal 8.014401e-07 1.675357e-06 1.000000e+00
    outer loop
      vertex 3.081191e+01 1.504988e+01 2.515171e+00
      vertex 2.951914e+01 1.282211e+01 2.515175e+00
      vertex 3.546891e+01 1.282211e+01 2.515171e+00
    endloop
  endfacet
  facet normal -1.151978e-06 -2.408133e-06 1.000000e+00
    outer loop
      vertex 3.546891e+01 1.282211e+01 2.515171e+00
      vertex 3.702086e+01 1.504987e+01 2.515178e+00
      vertex 3.081191e+01 1.504988e+01 2.515171e+00
    endloop
  endfacet
  facet normal -3.205772e-07 -2.987323e-06 1.000000e+00
    outer loop
      vertex 3.702086e+01 1.504987e+01 2.515178e+00
      vertex 3.546891e+01 1.282211e+01 2.515171e+00
      vertex 4.290612e+01 1.282211e+01 2.515173e+00
    endloop
  endfacet
  facet normal 7.679831e-07 -1.115886e-07 1.000000e+00
    outer loop
      vertex 4.290612e+01 1.282211e+01 2.515173e+00
      vertex 4.322981e+01 1.504987e+01 2.515173e+00
      vertex 3.702086e+01 1.504987e+01 2.515178e+00
    endloop
  endfacet
  facet normal 7.679857e-07 6.223805e-07 1.000000e+00
    outer loop
      vertex -2.902883e+01 -1.282211e+01 2.515204e+00
      vertex -3.032791e+01 -1.504987e+01 2.515206e+00
      vertex -2.411896e+01 -1.504989e+01 2.515202e+00
    endloop
  endfacet
  facet normal -8.014405e-07 -2.836533e-06 1.000000e+00
    outer loop
      vertex -2.411896e+01 -1.504989e+01 2.515202e+00
      vertex -2.307908e+01 -1.282211e+01 2.515209e+00
      vertex -2.902883e+01 -1.282211e+01 2.515204e+00
    endloop
  endfacet
  facet normal -3.277005e-07 -4.166022e-06 1.000000e+00
    outer loop
      vertex -2.267433e+01 -1.282213e+01 2.515206e+00
      vertex -2.345502e+01 -1.504989e+01 2.515197e+00
      vertex -1.617949e+01 -1.504989e+01 2.515199e+00
    endloop
  endfacet
  facet normal 9.254105e-07 -5.126964e-07 1.000000e+00
    outer loop
      vertex -1.617949e+01 -1.504989e+01 2.515199e+00
      vertex -6.179481e+00 3.000001e+00 2.515199e+00
      vertex -2.267433e+01 -1.282213e+01 2.515206e+00
    endloop
  endfacet
  facet normal -1.151972e-06 -3.076944e-06 1.000000e+00
    outer loop
      vertex 4.141867e+01 -2.822166e+00 2.515168e+00
      vertex 4.322978e+01 -5.049933e+00 2.515163e+00
      vertex 4.943875e+01 -5.049935e+00 2.515171e+00
    endloop
  endfacet
  facet normal 8.014476e-07 3.955463e-06 1.000000e+00
    outer loop
      vertex 4.943875e+01 -5.049935e+00 2.515171e+00
      vertex 4.736842e+01 -2.822176e+00 2.515163e+00
      vertex 4.141867e+01 -2.822166e+00 2.515168e+00
    endloop
  endfacet
  facet normal -8.175163e-07 1.542340e-06 1.000000e+00
    outer loop
      vertex -4.241582e+01 -8.911038e+00 2.515213e+00
      vertex -2.646604e+01 1.088960e+00 2.515211e+00
      vertex -2.200373e+01 5.000028e+00 2.515209e+00
    endloop
  endfacet
  facet normal 1.050245e-06 -1.198278e-06 1.000000e+00
    outer loop
      vertex -2.200373e+01 5.000028e+00 2.515209e+00
      vertex -3.795349e+01 -4.999970e+00 2.515213e+00
      vertex -4.241582e+01 -8.911038e+00 2.515213e+00
    endloop
  endfacet
  facet normal 1.050250e-06 -1.198287e-06 1.000000e+00
    outer loop
      vertex -3.795349e+01 -4.999970e+00 2.515213e+00
      vertex -2.200373e+01 5.000028e+00 2.515209e+00
      vertex -1.754138e+01 8.911096e+00 2.515209e+00
    endloop
  endfacet
  facet normal -8.014429e-07 -9.978238e-07 1.000000e+00
    outer loop
      vertex -3.204589e+00 1.082214e+01 2.515202e+00
      vertex -2.483020e+00 7.853197e+00 2.515199e+00
      vertex -2.297163e-01 1.082214e+01 2.515204e+00
    endloop
  endfacet
  facet normal 5.429562e-07 -2.664500e-06 1.000000e+00
    outer loop
      vertex 2.356936e+01 6.911051e+00 2.515180e+00
      vertex 2.080693e+01 1.082212e+01 2.515192e+00
      vertex 1.933457e+01 9.627296e+00 2.515190e+00
    endloop
  endfacet
  facet normal 8.800184e-07 -3.079855e-06 1.000000e+00
    outer loop
      vertex 1.538844e+01 1.082212e+01 2.515197e+00
      vertex 1.933457e+01 9.627296e+00 2.515190e+00
      vertex 2.080693e+01 1.082212e+01 2.515192e+00
    endloop
  endfacet
  facet normal -1.068577e-06 -9.515454e-06 1.000000e+00
    outer loop
      vertex 1.933457e+01 9.627296e+00 2.515190e+00
      vertex 1.538844e+01 1.082212e+01 2.515197e+00
      vertex 1.315726e+01 1.082212e+01 2.515194e+00
    endloop
  endfacet
  facet normal -2.137172e-06 4.126571e-06 1.000000e+00
    outer loop
      vertex 4.943877e+01 1.504986e+01 2.515168e+00
      vertex 4.513728e+01 1.282210e+01 2.515168e+00
      vertex 4.736844e+01 1.282210e+01 2.515173e+00
    endloop
  endfacet
  facet normal -2.137172e-06 2.031997e-06 1.000000e+00
    outer loop
      vertex 4.141867e+01 -2.822166e+00 2.515168e+00
      vertex 4.513726e+01 1.088893e+00 2.515168e+00
      vertex 4.290610e+01 1.088893e+00 2.515163e+00
    endloop
  endfacet
  facet normal -1.385087e-12 -8.641247e-07 1.000000e+00
    outer loop
      vertex 1.315726e+01 1.082212e+01 2.515194e+00
      vertex 4.232621e+00 1.082214e+01 2.515194e+00
      vertex 4.960217e+00 8.063058e+00 2.515192e+00
    endloop
  endfacet
  facet normal -9.164397e-07 1.858568e-06 1.000000e+00
    outer loop
      vertex 4.960217e+00 8.063058e+00 2.515192e+00
      vertex 1.157288e+01 8.758075e+00 2.515197e+00
      vertex 1.315726e+01 1.082212e+01 2.515194e+00
    endloop
  endfacet
  facet normal 7.679820e-07 -1.482862e-06 1.000000e+00
    outer loop
      vertex 4.513728e+01 1.282210e+01 2.515168e+00
      vertex 4.943877e+01 1.504986e+01 2.515168e+00
      vertex 4.322981e+01 1.504987e+01 2.515173e+00
    endloop
  endfacet
  facet normal -2.137172e-06 3.474123e-12 1.000000e+00
    outer loop
      vertex 4.290610e+01 1.088893e+00 2.515163e+00
      vertex 4.513726e+01 1.088893e+00 2.515168e+00
      vertex 4.513728e+01 1.282210e+01 2.515168e+00
    endloop
  endfacet
  facet normal 5.061607e-07 5.319924e-08 1.000000e+00
    outer loop
      vertex 1.870030e+01 4.510173e+00 2.515192e+00
      vertex 2.356936e+01 2.999980e+00 2.515190e+00
      vertex 1.818083e+01 9.452602e+00 2.515192e+00
    endloop
  endfacet
  facet normal 0.000000e+00 -6.123234e-17 1.000000e+00
    outer loop
      vertex 5.477319e+00 3.120384e+00 2.515192e+00
      vertex 4.977574e+00 3.067853e+00 2.515192e+00
      vertex 5.330644e+00 7.722205e-01 2.515192e+00
    endloop
  endfacet
  facet normal 4.788917e-06 -1.722818e-07 1.000000e+00
    outer loop
      vertex 1.259053e+01 3.868005e+00 2.515194e+00
      vertex 1.209078e+01 3.815483e+00 2.515197e+00
      vertex 1.198130e+01 7.722181e-01 2.515197e+00
    endloop
  endfacet
  facet normal 0.000000e+00 6.123234e-17 -1.000000e+00
    outer loop
      vertex 1.198130e+01 7.722181e-01 2.861023e-05
      vertex 1.209078e+01 3.815483e+00 2.861023e-05
      vertex 1.259051e+01 3.868005e+00 2.861023e-05
    endloop
  endfacet
  facet normal -2.137172e-06 3.474244e-12 -1.000000e+00
    outer loop
      vertex 4.513726e+01 1.088893e+00 2.384186e-06
      vertex 4.290610e+01 1.088893e+00 7.152557e-06
      vertex 4.290612e+01 1.282211e+01 7.152557e-06
    endloop
  endfacet
  facet normal 1.068587e-06 6.095977e-07 -1.000000e+00
    outer loop
      vertex 4.290612e+01 1.282211e+01 7.152557e-06
      vertex 4.513728e+01 1.282210e+01 9.536743e-06
      vertex 4.513726e+01 1.088893e+00 2.384186e-06
    endloop
  endfacet
  facet normal 2.137154e-06 -4.470384e-06 -1.000000e+00
    outer loop
      vertex 4.141867e+01 -2.822166e+00 1.192093e-05
      vertex 4.513726e+01 1.088893e+00 2.384186e-06
      vertex 4.736844e+01 1.088893e+00 7.152557e-06
    endloop
  endfacet
  facet normal -7.679838e-07 -9.586324e-07 -1.000000e+00
    outer loop
      vertex 4.290612e+01 1.282211e+01 7.152557e-06
      vertex 4.322979e+01 1.504987e+01 4.768372e-06
      vertex 4.943875e+01 1.504986e+01 0.000000e+00
    endloop
  endfacet
  facet normal 1.068573e-06 -6.344109e-06 -1.000000e+00
    outer loop
      vertex 4.943875e+01 1.504986e+01 0.000000e+00
      vertex 4.513728e+01 1.282210e+01 9.536743e-06
      vertex 4.290612e+01 1.282211e+01 7.152557e-06
    endloop
  endfacet
  facet normal -2.137172e-06 -1.543059e-07 -1.000000e+00
    outer loop
      vertex 4.513728e+01 1.282210e+01 9.536743e-06
      vertex 4.943875e+01 1.504986e+01 0.000000e+00
      vertex 4.736844e+01 1.282210e+01 4.768372e-06
    endloop
  endfacet
  facet normal -8.800184e-07 -2.906424e-06 -1.000000e+00
    outer loop
      vertex 1.933457e+01 9.627296e+00 3.099442e-05
      vertex 1.538844e+01 1.082212e+01 3.099442e-05
      vertex 2.080693e+01 1.082212e+01 2.622604e-05
    endloop
  endfacet
  facet normal 1.282305e-06 7.999994e-01 6.000008e-01
    outer loop
      vertex -3.204589e+00 1.082214e+01 3.576279e-05
      vertex -2.297163e-01 1.082214e+01 3.576279e-05
      vertex 2.001443e+00 1.082214e+01 3.099442e-05
    endloop
  endfacet
  facet normal -4.229774e-07 4.190202e-06 -1.000000e+00
    outer loop
      vertex -6.179481e+00 6.911070e+00 4.053116e-05
      vertex -2.483020e+00 7.853197e+00 4.291534e-05
      vertex -1.652465e+00 7.368047e+00 4.053116e-05
    endloop
  endfacet
  facet normal 7.812247e-07 2.865634e-06 -1.000000e+00
    outer loop
      vertex 1.315726e+01 1.082212e+01 3.576279e-05
      vertex 1.818083e+01 9.452602e+00 3.576279e-05
      vertex 1.157288e+01 8.758075e+00 2.861023e-05
    endloop
  endfacet
  facet normal -5.500125e-07 4.004205e-07 -1.000000e+00
    outer loop
      vertex -2.200371e+01 5.000028e+00 4.291534e-05
      vertex -3.795349e+01 -4.999970e+00 4.768372e-05
      vertex -2.349116e+01 8.911096e+00 4.529953e-05
    endloop
  endfacet
  facet normal 4.320342e-06 -7.367687e-06 -1.000000e+00
    outer loop
      vertex -3.795349e+01 -4.999970e+00 4.768372e-05
      vertex -2.200371e+01 5.000028e+00 4.291534e-05
      vertex -2.646604e+01 1.088960e+00 5.245209e-05
    endloop
  endfacet
  facet normal 1.050235e-06 -1.198264e-06 -1.000000e+00
    outer loop
      vertex -2.646604e+01 1.088960e+00 5.245209e-05
      vertex -4.241581e+01 -8.911038e+00 4.768372e-05
      vertex -3.795349e+01 -4.999970e+00 4.768372e-05
    endloop
  endfacet
  facet normal -7.679826e-07 1.426722e-06 -1.000000e+00
    outer loop
      vertex 4.736842e+01 -2.822176e+00 7.152557e-06
      vertex 4.943875e+01 -5.049935e+00 2.384186e-06
      vertex 4.322979e+01 -5.049933e+00 7.152557e-06
    endloop
  endfacet
  facet normal -8.701962e-07 1.432978e-06 -1.000000e+00
    outer loop
      vertex 4.141867e+01 -2.822166e+00 1.192093e-05
      vertex 4.322979e+01 -5.049933e+00 7.152557e-06
      vertex 2.128287e+01 -1.504992e+01 1.192093e-05
    endloop
  endfacet
  facet normal 1.370095e-06 -2.256175e-06 -1.000000e+00
    outer loop
      vertex 2.128287e+01 -1.504992e+01 1.192093e-05
      vertex 1.973090e+01 -1.282216e+01 4.768372e-06
      vertex 4.141867e+01 -2.822166e+00 1.192093e-05
    endloop
  endfacet
  facet normal -1.236365e-06 -4.071971e-06 -1.000000e+00
    outer loop
      vertex 1.973090e+01 -1.282216e+01 4.768372e-06
      vertex 2.128287e+01 -1.504992e+01 1.192093e-05
      vertex 1.356934e+01 -1.504992e+01 2.145767e-05
    endloop
  endfacet
  facet normal 1.151974e-06 -2.812176e-06 -1.000000e+00
    outer loop
      vertex -2.902885e+01 -1.282211e+01 4.529953e-05
      vertex -3.032791e+01 -1.504987e+01 5.006790e-05
      vertex -3.653686e+01 -1.504987e+01 4.291534e-05
    endloop
  endfacet
  facet normal -8.014373e-07 3.771229e-06 -1.000000e+00
    outer loop
      vertex -3.653686e+01 -1.504987e+01 4.291534e-05
      vertex -3.497861e+01 -1.282211e+01 5.006790e-05
      vertex -2.902885e+01 -1.282211e+01 4.529953e-05
    endloop
  endfacet
  facet normal -7.124418e-07 2.721637e-06 -1.000000e+00
    outer loop
      vertex -4.092839e+01 -1.282210e+01 5.245209e-05
      vertex -4.274581e+01 -1.504987e+01 4.768372e-05
      vertex -4.943877e+01 -1.504986e+01 5.245209e-05
    endloop
  endfacet
  facet normal 8.014382e-07 -3.061617e-06 -1.000000e+00
    outer loop
      vertex -4.943877e+01 -1.504986e+01 5.245209e-05
      vertex -4.687815e+01 -1.282210e+01 4.768372e-05
      vertex -4.092839e+01 -1.282210e+01 5.245209e-05
    endloop
  endfacet
  facet normal 7.019031e-07 -1.477526e-06 -1.000000e+00
    outer loop
      vertex 3.081191e+01 1.504988e+01 1.430511e-05
      vertex 2.951914e+01 1.282211e+01 1.668930e-05
      vertex 2.272566e+01 1.282212e+01 1.192093e-05
    endloop
  endfacet
  facet normal -7.679802e-07 3.857804e-06 -1.000000e+00
    outer loop
      vertex 2.272566e+01 1.282212e+01 1.192093e-05
      vertex 2.460295e+01 1.504988e+01 1.907349e-05
      vertex 3.081191e+01 1.504988e+01 1.430511e-05
    endloop
  endfacet
  facet normal -1.839735e-05 -6.515279e-06 -1.000000e+00
    outer loop
      vertex -5.523257e+00 1.282214e+01 3.814697e-05
      vertex -6.700988e+00 1.504992e+01 4.529953e-05
      vertex -6.441798e+00 1.504991e+01 4.053116e-05
    endloop
  endfacet
  facet normal 8.014385e-07 -9.144043e-07 -1.000000e+00
    outer loop
      vertex -4.092839e+01 -1.282210e+01 5.245209e-05
      vertex -4.687815e+01 -1.282210e+01 4.768372e-05
      vertex -4.241581e+01 -8.911038e+00 4.768372e-05
    endloop
  endfacet
  facet normal 8.586276e-07 -8.926546e-07 -1.000000e+00
    outer loop
      vertex -4.241581e+01 -8.911038e+00 4.768372e-05
      vertex -2.646604e+01 1.088960e+00 5.245209e-05
      vertex -4.092839e+01 -1.282210e+01 5.245209e-05
    endloop
  endfacet
  facet normal 1.185573e-06 -2.120985e-06 -1.000000e+00
    outer loop
      vertex -6.179481e+00 6.911070e+00 4.053116e-05
      vertex -3.204589e+00 1.082214e+01 3.576279e-05
      vertex -2.483020e+00 7.853197e+00 4.291534e-05
    endloop
  endfacet
  facet normal 3.609157e-07 1.610513e-06 -1.000000e+00
    outer loop
      vertex -1.212924e+01 1.282215e+01 3.576279e-05
      vertex -5.523257e+00 1.282214e+01 3.814697e-05
      vertex -3.204589e+00 1.082214e+01 3.576279e-05
    endloop
  endfacet
  facet normal -2.334320e-07 -1.041642e-06 -1.000000e+00
    outer loop
      vertex -3.204589e+00 1.082214e+01 3.576279e-05
      vertex -6.179481e+00 6.911070e+00 4.053116e-05
      vertex -1.212924e+01 1.282215e+01 3.576279e-05
    endloop
  endfacet
  facet normal 1.115248e-07 -6.944288e-07 1.000000e+00
    outer loop
      vertex -1.212924e+01 1.282215e+01 2.515204e+00
      vertex -6.179481e+00 6.911070e+00 2.515199e+00
      vertex -3.204589e+00 1.082214e+01 2.515202e+00
    endloop
  endfacet
  facet normal 1.082745e-06 3.639444e-06 1.000000e+00
    outer loop
      vertex -3.204589e+00 1.082214e+01 2.515202e+00
      vertex -5.523257e+00 1.282214e+01 2.515197e+00
      vertex -1.212924e+01 1.282215e+01 2.515204e+00
    endloop
  endfacet
  facet normal -1.062332e-06 -1.407377e-07 -1.000000e+00
    outer loop
      vertex 2.951914e+01 1.282211e+01 1.668930e-05
      vertex 2.356936e+01 6.911051e+00 2.384186e-05
      vertex 2.080693e+01 1.082212e+01 2.622604e-05
    endloop
  endfacet
  facet normal 7.018986e-07 -7.825944e-06 -1.000000e+00
    outer loop
      vertex 2.080693e+01 1.082212e+01 2.622604e-05
      vertex 2.272566e+01 1.282212e+01 1.192093e-05
      vertex 2.951914e+01 1.282211e+01 1.668930e-05
    endloop
  endfacet
  facet normal 6.123963e-06 1.277426e-06 1.000000e+00
    outer loop
      vertex 2.272566e+01 1.282212e+01 2.515178e+00
      vertex 2.080693e+01 1.082212e+01 2.515192e+00
      vertex 2.356936e+01 6.911051e+00 2.515180e+00
    endloop
  endfacet
  facet normal 3.509524e-07 4.534346e-07 1.000000e+00
    outer loop
      vertex 2.356936e+01 6.911051e+00 2.515180e+00
      vertex 2.951914e+01 1.282211e+01 2.515175e+00
      vertex 2.272566e+01 1.282212e+01 2.515178e+00
    endloop
  endfacet
  facet normal 7.181923e-06 -6.797693e-06 1.000000e+00
    outer loop
      vertex -2.411896e+01 -1.504989e+01 2.515202e+00
      vertex -2.345502e+01 -1.504989e+01 2.515197e+00
      vertex -2.267433e+01 -1.282213e+01 2.515206e+00
    endloop
  endfacet
  facet normal 5.890355e-06 -5.960150e-06 1.000000e+00
    outer loop
      vertex -2.267433e+01 -1.282213e+01 2.515206e+00
      vertex -2.307908e+01 -1.282211e+01 2.515209e+00
      vertex -2.411896e+01 -1.504989e+01 2.515202e+00
    endloop
  endfacet
  facet normal -7.182002e-06 2.282208e-06 -1.000000e+00
    outer loop
      vertex -2.345502e+01 -1.504989e+01 4.053116e-05
      vertex -2.411895e+01 -1.504987e+01 4.529953e-05
      vertex -2.307908e+01 -1.282211e+01 4.291534e-05
    endloop
  endfacet
  facet normal -1.178104e-05 3.058318e-06 -1.000000e+00
    outer loop
      vertex -2.307908e+01 -1.282211e+01 4.291534e-05
      vertex -2.267433e+01 -1.282212e+01 3.814697e-05
      vertex -2.345502e+01 -1.504989e+01 4.053116e-05
    endloop
  endfacet
  facet normal -6.141105e-07 -9.578258e-01 2.873497e-01
    outer loop
      vertex -3.204589e+00 1.082214e+01 3.576279e-05
      vertex 2.001443e+00 1.082214e+01 3.099442e-05
      vertex 4.232621e+00 1.082214e+01 3.576279e-05
    endloop
  endfacet
  facet normal -1.544613e-12 -2.409126e-06 -1.000000e+00
    outer loop
      vertex 4.232621e+00 1.082214e+01 3.576279e-05
      vertex -2.483020e+00 7.853197e+00 4.291534e-05
      vertex -3.204589e+00 1.082214e+01 3.576279e-05
    endloop
  endfacet
  facet normal 0.000000e+00 6.123234e-17 -1.000000e+00
    outer loop
      vertex 4.736844e+01 1.088893e+00 7.152557e-06
      vertex 4.736842e+01 -2.822176e+00 7.152557e-06
      vertex 4.322979e+01 -5.049933e+00 7.152557e-06
    endloop
  endfacet
  facet normal -1.439279e-06 9.703259e-07 -1.000000e+00
    outer loop
      vertex 4.322979e+01 -5.049933e+00 7.152557e-06
      vertex 4.141867e+01 -2.822166e+00 1.192093e-05
      vertex 4.736844e+01 1.088893e+00 7.152557e-06
    endloop
  endfacet
  facet normal 8.929202e-07 -1.634831e-06 1.000000e+00
    outer loop
      vertex 2.001462e+00 1.082214e+01 2.515199e+00
      vertex -1.652465e+00 7.368047e+00 2.515197e+00
      vertex 4.960217e+00 8.063058e+00 2.515192e+00
    endloop
  endfacet
  facet normal 2.137172e-06 -3.005306e-07 1.000000e+00
    outer loop
      vertex 4.960217e+00 8.063058e+00 2.515192e+00
      vertex 4.232621e+00 1.082214e+01 2.515194e+00
      vertex 2.001462e+00 1.082214e+01 2.515199e+00
    endloop
  endfacet
  facet normal -4.669287e-07 3.372955e-06 -1.000000e+00
    outer loop
      vertex 2.272566e+01 1.282212e+01 1.192093e-05
      vertex 1.761960e+01 1.282212e+01 1.430511e-05
      vertex 1.839400e+01 1.504989e+01 2.145767e-05
    endloop
  endfacet
  facet normal -3.839889e-07 3.534223e-06 -1.000000e+00
    outer loop
      vertex 1.839400e+01 1.504989e+01 2.145767e-05
      vertex 2.460295e+01 1.504988e+01 1.907349e-05
      vertex 2.272566e+01 1.282212e+01 1.192093e-05
    endloop
  endfacet
  facet normal -2.330644e-06 2.904011e-05 1.000000e+00
    outer loop
      vertex 1.157288e+01 8.758075e+00 2.515197e+00
      vertex 1.818083e+01 9.452602e+00 2.515192e+00
      vertex 1.933457e+01 9.627296e+00 2.515190e+00
    endloop
  endfacet
  facet normal 8.666637e-07 4.898453e-07 1.000000e+00
    outer loop
      vertex 1.933457e+01 9.627296e+00 2.515190e+00
      vertex 1.315726e+01 1.082212e+01 2.515194e+00
      vertex 1.157288e+01 8.758075e+00 2.515197e+00
    endloop
  endfacet
  facet normal 4.899914e-07 -2.714653e-07 1.000000e+00
    outer loop
      vertex -6.179481e+00 3.000001e+00 2.515199e+00
      vertex -1.617949e+01 -1.504989e+01 2.515199e+00
      vertex -1.131372e+01 -1.504989e+01 2.515197e+00
    endloop
  endfacet
  facet normal 4.430649e-07 -2.581172e-07 1.000000e+00
    outer loop
      vertex -1.131372e+01 -1.504989e+01 2.515197e+00
      vertex -1.132979e+00 2.425618e+00 2.515197e+00
      vertex -6.179481e+00 3.000001e+00 2.515199e+00
    endloop
  endfacet
  facet normal -7.237463e-07 2.603685e-08 1.000000e+00
    outer loop
      vertex 1.198130e+01 7.722181e-01 2.515197e+00
      vertex 1.209078e+01 3.815483e+00 2.515197e+00
      vertex 5.477319e+00 3.120384e+00 2.515192e+00
    endloop
  endfacet
  facet normal -7.169774e-07 4.478511e-08 1.000000e+00
    outer loop
      vertex 5.477319e+00 3.120384e+00 2.515192e+00
      vertex 5.330644e+00 7.722205e-01 2.515192e+00
      vertex 1.198130e+01 7.722181e-01 2.515197e+00
    endloop
  endfacet
  facet normal 0.000000e+00 6.123234e-17 -1.000000e+00
    outer loop
      vertex -1.132998e+00 2.425618e+00 4.053116e-05
      vertex -6.179500e+00 3.000001e+00 4.053116e-05
      vertex -6.179481e+00 6.911070e+00 4.053116e-05
    endloop
  endfacet
  facet normal 0.000000e+00 6.123234e-17 -1.000000e+00
    outer loop
      vertex -6.179481e+00 6.911070e+00 4.053116e-05
      vertex -1.652465e+00 7.368047e+00 4.053116e-05
      vertex -1.132998e+00 2.425618e+00 4.053116e-05
    endloop
  endfacet
  facet normal -2.404317e-06 -5.141705e-07 -1.000000e+00
    outer loop
      vertex 1.761960e+01 1.282212e+01 1.430511e-05
      vertex 1.166983e+01 1.282213e+01 2.861023e-05
      vertex 1.218504e+01 1.504989e+01 2.622604e-05
    endloop
  endfacet
  facet normal -7.679805e-07 3.477605e-06 -1.000000e+00
    outer loop
      vertex 1.218504e+01 1.504989e+01 2.622604e-05
      vertex 1.839400e+01 1.504989e+01 2.145767e-05
      vertex 1.761960e+01 1.282212e+01 1.430511e-05
    endloop
  endfacet
  facet normal 1.313679e-06 9.704866e-07 1.000000e+00
    outer loop
      vertex -1.290993e+01 1.504992e+01 2.515206e+00
      vertex -1.653972e+01 1.504992e+01 2.515211e+00
      vertex -1.307906e+01 1.282216e+01 2.515209e+00
    endloop
  endfacet
  facet normal 5.020285e-06 6.890924e-07 1.000000e+00
    outer loop
      vertex -1.307906e+01 1.282216e+01 2.515209e+00
      vertex -1.212924e+01 1.282215e+01 2.515204e+00
      vertex -1.290993e+01 1.504992e+01 2.515206e+00
    endloop
  endfacet
  facet normal -2.901701e-06 -4.151454e-07 -1.000000e+00
    outer loop
      vertex 2.356934e+01 2.999980e+00 2.145767e-05
      vertex 1.933457e+01 9.627296e+00 3.099442e-05
      vertex 2.080693e+01 1.082212e+01 2.622604e-05
    endloop
  endfacet
  facet normal 0.000000e+00 6.095992e-07 -1.000000e+00
    outer loop
      vertex 2.080693e+01 1.082212e+01 2.622604e-05
      vertex 2.356936e+01 6.911051e+00 2.384186e-05
      vertex 2.356934e+01 2.999980e+00 2.145767e-05
    endloop
  endfacet
  facet normal 2.003597e-06 3.737357e-07 1.000000e+00
    outer loop
      vertex 1.166983e+01 1.282213e+01 2.515194e+00
      vertex 1.761960e+01 1.282212e+01 2.515182e+00
      vertex 1.839400e+01 1.504989e+01 2.515180e+00
    endloop
  endfacet
  facet normal 2.303949e-06 -5.328322e-07 1.000000e+00
    outer loop
      vertex 1.839400e+01 1.504989e+01 2.515180e+00
      vertex 1.218504e+01 1.504989e+01 2.515194e+00
      vertex 1.166983e+01 1.282213e+01 2.515194e+00
    endloop
  endfacet
  facet normal -1.048881e-06 3.118686e-06 -1.000000e+00
    outer loop
      vertex 4.960198e+00 8.063058e+00 3.576279e-05
      vertex -1.652465e+00 7.368047e+00 4.053116e-05
      vertex -2.483020e+00 7.853197e+00 4.291534e-05
    endloop
  endfacet
  facet normal -9.538576e-07 -2.515352e-07 -1.000000e+00
    outer loop
      vertex -2.483020e+00 7.853197e+00 4.291534e-05
      vertex 4.232621e+00 1.082214e+01 3.576279e-05
      vertex 4.960198e+00 8.063058e+00 3.576279e-05
    endloop
  endfacet
  facet normal -1.753535e-13 -1.070211e-06 -1.000000e+00
    outer loop
      vertex -1.617949e+01 -1.504989e+01 4.053116e-05
      vertex -2.345502e+01 -1.504989e+01 4.053116e-05
      vertex -2.267433e+01 -1.282212e+01 3.814697e-05
    endloop
  endfacet
  facet normal 3.084701e-07 -1.708984e-07 -1.000000e+00
    outer loop
      vertex -2.267433e+01 -1.282212e+01 3.814697e-05
      vertex -6.179500e+00 3.000001e+00 4.053116e-05
      vertex -1.617949e+01 -1.504989e+01 4.053116e-05
    endloop
  endfacet
  facet normal 5.251167e-07 -5.991314e-07 1.000000e+00
    outer loop
      vertex -2.646604e+01 1.088960e+00 2.515211e+00
      vertex -4.241582e+01 -8.911038e+00 2.515213e+00
      vertex -4.687814e+01 -1.282210e+01 2.515213e+00
    endloop
  endfacet
  facet normal 4.007199e-07 -4.166003e-07 1.000000e+00
    outer loop
      vertex -4.687814e+01 -1.282210e+01 2.515213e+00
      vertex -4.092839e+01 -1.282210e+01 2.515211e+00
      vertex -2.646604e+01 1.088960e+00 2.515211e+00
    endloop
  endfacet
  facet normal -2.657160e-06 -9.746810e-06 -1.000000e+00
    outer loop
      vertex 1.933457e+01 9.627296e+00 3.099442e-05
      vertex 1.818083e+01 9.452602e+00 3.576279e-05
      vertex 1.315726e+01 1.082212e+01 3.576279e-05
    endloop
  endfacet
  facet normal -2.137154e-06 -7.058349e-06 -1.000000e+00
    outer loop
      vertex 1.315726e+01 1.082212e+01 3.576279e-05
      vertex 1.538844e+01 1.082212e+01 3.099442e-05
      vertex 1.933457e+01 9.627296e+00 3.099442e-05
    endloop
  endfacet
  facet normal -1.075466e-06 3.869001e-08 -1.000000e+00
    outer loop
      vertex 1.209078e+01 3.815483e+00 2.861023e-05
      vertex 1.198130e+01 7.722181e-01 2.861023e-05
      vertex 5.330644e+00 7.722205e-01 3.576279e-05
    endloop
  endfacet
  facet normal -6.183531e-07 -9.767161e-07 -1.000000e+00
    outer loop
      vertex 5.330644e+00 7.722205e-01 3.576279e-05
      vertex 5.477319e+00 3.120384e+00 3.337860e-05
      vertex 1.209078e+01 3.815483e+00 2.861023e-05
    endloop
  endfacet
  facet normal 5.593964e-06 -8.128081e-07 1.000000e+00
    outer loop
      vertex 4.322981e+01 1.504987e+01 2.515173e+00
      vertex 4.290612e+01 1.282211e+01 2.515173e+00
      vertex 4.290610e+01 1.088893e+00 2.515163e+00
    endloop
  endfacet
  facet normal 1.657165e-06 -7.215249e-07 1.000000e+00
    outer loop
      vertex 4.290610e+01 1.088893e+00 2.515163e+00
      vertex 4.513728e+01 1.282210e+01 2.515168e+00
      vertex 4.322981e+01 1.504987e+01 2.515173e+00
    endloop
  endfacet
  facet normal 5.154535e-07 -4.135641e-07 1.000000e+00
    outer loop
      vertex -3.795349e+01 -4.999970e+00 2.515213e+00
      vertex -1.754138e+01 8.911096e+00 2.515209e+00
      vertex -1.902883e+01 1.282216e+01 2.515211e+00
    endloop
  endfacet
  facet normal 6.016481e-06 -6.254899e-06 1.000000e+00
    outer loop
      vertex -1.902883e+01 1.282216e+01 2.515211e+00
      vertex -2.349116e+01 8.911096e+00 2.515213e+00
      vertex -3.795349e+01 -4.999970e+00 2.515213e+00
    endloop
  endfacet
  facet normal -1.202154e-06 1.381563e-07 1.000000e+00
    outer loop
      vertex -2.297163e-01 1.282214e+01 2.515192e+00
      vertex 5.720067e+00 1.282213e+01 2.515199e+00
      vertex 5.976090e+00 1.504990e+01 2.515199e+00
    endloop
  endfacet
  facet normal -1.151978e-06 -1.617518e-09 1.000000e+00
    outer loop
      vertex 5.976090e+00 1.504990e+01 2.515199e+00
      vertex -2.328444e-01 1.504990e+01 2.515192e+00
      vertex -2.297163e-01 1.282214e+01 2.515192e+00
    endloop
  endfacet
  facet normal 7.679837e-07 1.603250e-06 1.000000e+00
    outer loop
      vertex -4.274581e+01 -1.504987e+01 2.515216e+00
      vertex -3.653686e+01 -1.504987e+01 2.515211e+00
      vertex -3.497860e+01 -1.282211e+01 2.515206e+00
    endloop
  endfacet
  facet normal 8.014392e-07 1.486605e-06 1.000000e+00
    outer loop
      vertex -3.497860e+01 -1.282211e+01 2.515206e+00
      vertex -4.092839e+01 -1.282210e+01 2.515211e+00
      vertex -4.274581e+01 -1.504987e+01 2.515216e+00
    endloop
  endfacet
  facet normal 4.070425e-07 -4.547947e-07 1.000000e+00
    outer loop
      vertex -1.653972e+01 1.504992e+01 2.515211e+00
      vertex -1.902883e+01 1.282216e+01 2.515211e+00
      vertex -1.754138e+01 8.911096e+00 2.515209e+00
    endloop
  endfacet
  facet normal 3.972032e-07 -4.531892e-07 1.000000e+00
    outer loop
      vertex -1.754138e+01 8.911096e+00 2.515209e+00
      vertex -1.307906e+01 1.282216e+01 2.515209e+00
      vertex -1.653972e+01 1.504992e+01 2.515211e+00
    endloop
  endfacet
  facet normal 0.000000e+00 6.123234e-17 -1.000000e+00
    outer loop
      vertex 4.960198e+00 8.063058e+00 3.576279e-05
      vertex 4.232621e+00 1.082214e+01 3.576279e-05
      vertex 1.315726e+01 1.082212e+01 3.576279e-05
    endloop
  endfacet
  facet normal -1.572745e-06 4.672558e-06 -1.000000e+00
    outer loop
      vertex 1.315726e+01 1.082212e+01 3.576279e-05
      vertex 1.157288e+01 8.758075e+00 2.861023e-05
      vertex 4.960198e+00 8.063058e+00 3.576279e-05
    endloop
  endfacet
  facet normal -6.234515e-07 1.017267e-07 -1.000000e+00
    outer loop
      vertex -1.653973e+01 1.504992e+01 4.291534e-05
      vertex -1.307906e+01 1.282216e+01 4.053116e-05
      vertex -1.754138e+01 8.911096e+00 4.291534e-05
    endloop
  endfacet
  facet normal -1.121652e-06 1.830165e-07 -1.000000e+00
    outer loop
      vertex -1.754138e+01 8.911096e+00 4.291534e-05
      vertex -1.902883e+01 1.282216e+01 4.529953e-05
      vertex -1.653973e+01 1.504992e+01 4.291534e-05
    endloop
  endfacet
  facet normal 3.562263e-07 1.849812e-06 1.000000e+00
    outer loop
      vertex -4.943877e+01 -1.504986e+01 2.515218e+00
      vertex -4.274581e+01 -1.504987e+01 2.515216e+00
      vertex -4.092839e+01 -1.282210e+01 2.515211e+00
    endloop
  endfacet
  facet normal 4.007204e-07 1.679838e-06 1.000000e+00
    outer loop
      vertex -4.092839e+01 -1.282210e+01 2.515211e+00
      vertex -4.687814e+01 -1.282210e+01 2.515213e+00
      vertex -4.943877e+01 -1.504986e+01 2.515218e+00
    endloop
  endfacet
  facet normal -4.503945e-07 8.845083e-07 -1.000000e+00
    outer loop
      vertex -2.297163e-01 1.282214e+01 3.576279e-05
      vertex -5.523257e+00 1.282214e+01 3.814697e-05
      vertex -6.441798e+00 1.504991e+01 4.053116e-05
    endloop
  endfacet
  facet normal -7.679855e-07 -1.084920e-09 -1.000000e+00
    outer loop
      vertex -6.441798e+00 1.504991e+01 4.053116e-05
      vertex -2.328634e-01 1.504990e+01 3.576279e-05
      vertex -2.297163e-01 1.282214e+01 3.576279e-05
    endloop
  endfacet
  facet normal -5.020316e-06 -6.728491e-06 -1.000000e+00
    outer loop
      vertex -1.212924e+01 1.282215e+01 3.576279e-05
      vertex -1.307906e+01 1.282216e+01 4.053116e-05
      vertex -1.653973e+01 1.504992e+01 4.291534e-05
    endloop
  endfacet
  facet normal -1.313673e-06 6.098516e-07 -1.000000e+00
    outer loop
      vertex -1.653973e+01 1.504992e+01 4.291534e-05
      vertex -1.290993e+01 1.504992e+01 3.814697e-05
      vertex -1.212924e+01 1.282215e+01 3.576279e-05
    endloop
  endfacet
  facet normal -4.007213e-07 -8.376776e-07 -1.000000e+00
    outer loop
      vertex 3.546889e+01 1.282211e+01 1.430511e-05
      vertex 2.951914e+01 1.282211e+01 1.668930e-05
      vertex 3.081191e+01 1.504988e+01 1.430511e-05
    endloop
  endfacet
  facet normal -7.679856e-07 -1.605416e-06 -1.000000e+00
    outer loop
      vertex 3.081191e+01 1.504988e+01 1.430511e-05
      vertex 3.702086e+01 1.504987e+01 9.536743e-06
      vertex 3.546889e+01 1.282211e+01 1.430511e-05
    endloop
  endfacet
  facet normal -7.131555e-07 -7.472699e-08 -1.000000e+00
    outer loop
      vertex 1.157288e+01 8.758075e+00 2.861023e-05
      vertex 1.209078e+01 3.815483e+00 2.861023e-05
      vertex 5.477319e+00 3.120384e+00 3.337860e-05
    endloop
  endfacet
  facet normal -1.120025e-06 3.651865e-07 -1.000000e+00
    outer loop
      vertex 5.477319e+00 3.120384e+00 3.337860e-05
      vertex 4.960198e+00 8.063058e+00 3.576279e-05
      vertex 1.157288e+01 8.758075e+00 2.861023e-05
    endloop
  endfacet
  facet normal 0.000000e+00 6.123234e-17 -1.000000e+00
    outer loop
      vertex -1.131372e+01 -1.504989e+01 4.053116e-05
      vertex -1.617949e+01 -1.504989e+01 4.053116e-05
      vertex -6.179500e+00 3.000001e+00 4.053116e-05
    endloop
  endfacet
  facet normal 0.000000e+00 6.123234e-17 -1.000000e+00
    outer loop
      vertex -6.179500e+00 3.000001e+00 4.053116e-05
      vertex -1.132998e+00 2.425618e+00 4.053116e-05
      vertex -1.131372e+01 -1.504989e+01 4.053116e-05
    endloop
  endfacet
  facet normal 9.338641e-07 2.832676e-07 1.000000e+00
    outer loop
      vertex 1.761960e+01 1.282212e+01 2.515182e+00
      vertex 2.272566e+01 1.282212e+01 2.515178e+00
      vertex 2.460295e+01 1.504988e+01 2.515175e+00
    endloop
  endfacet
  facet normal 7.679837e-07 8.032525e-07 1.000000e+00
    outer loop
      vertex 2.460295e+01 1.504988e+01 2.515175e+00
      vertex 1.839400e+01 1.504989e+01 2.515180e+00
      vertex 1.761960e+01 1.282212e+01 2.515182e+00
    endloop
  endfacet
  facet normal 3.609151e-07 1.196694e-06 -1.000000e+00
    outer loop
      vertex -5.523257e+00 1.282214e+01 3.814697e-05
      vertex -1.212924e+01 1.282215e+01 3.576279e-05
      vertex -1.290993e+01 1.504992e+01 3.814697e-05
    endloop
  endfacet
  facet normal 1.151976e-06 3.819632e-06 -1.000000e+00
    outer loop
      vertex -1.290993e+01 1.504992e+01 3.814697e-05
      vertex -6.700988e+00 1.504992e+01 4.529953e-05
      vertex -5.523257e+00 1.282214e+01 3.814697e-05
    endloop
  endfacet
  facet normal -4.007181e-07 -5.660877e-10 -1.000000e+00
    outer loop
      vertex 5.720067e+00 1.282213e+01 3.337860e-05
      vertex -2.297163e-01 1.282214e+01 3.576279e-05
      vertex -2.328634e-01 1.504990e+01 3.576279e-05
    endloop
  endfacet
  facet normal -7.679839e-07 -9.819549e-07 -1.000000e+00
    outer loop
      vertex -2.328634e-01 1.504990e+01 3.576279e-05
      vertex 5.976090e+00 1.504990e+01 3.099442e-05
      vertex 5.720067e+00 1.282213e+01 3.337860e-05
    endloop
  endfacet
  facet normal 3.509534e-07 1.936772e-06 1.000000e+00
    outer loop
      vertex 2.272566e+01 1.282212e+01 2.515178e+00
      vertex 2.951914e+01 1.282211e+01 2.515175e+00
      vertex 3.081191e+01 1.504988e+01 2.515171e+00
    endloop
  endfacet
  facet normal 7.679834e-07 4.230515e-07 1.000000e+00
    outer loop
      vertex 3.081191e+01 1.504988e+01 2.515171e+00
      vertex 2.460295e+01 1.504988e+01 2.515175e+00
      vertex 2.272566e+01 1.282212e+01 2.515178e+00
    endloop
  endfacet
  facet normal -8.014396e-07 -9.781101e-07 -1.000000e+00
    outer loop
      vertex 1.166983e+01 1.282213e+01 2.861023e-05
      vertex 5.720067e+00 1.282213e+01 3.337860e-05
      vertex 5.976090e+00 1.504990e+01 3.099442e-05
    endloop
  endfacet
  facet normal -7.679838e-07 -8.926037e-07 -1.000000e+00
    outer loop
      vertex 5.976090e+00 1.504990e+01 3.099442e-05
      vertex 1.218504e+01 1.504989e+01 2.622604e-05
      vertex 1.166983e+01 1.282213e+01 2.861023e-05
    endloop
  endfacet
  facet normal -4.140137e-06 4.724877e-08 -1.000000e+00
    outer loop
      vertex 1.870030e+01 4.510173e+00 3.337860e-05
      vertex 1.818083e+01 9.452602e+00 3.576279e-05
      vertex 1.933457e+01 9.627296e+00 3.099442e-05
    endloop
  endfacet
  facet normal -2.496833e-06 -1.564395e-07 -1.000000e+00
    outer loop
      vertex 1.933457e+01 9.627296e+00 3.099442e-05
      vertex 2.356934e+01 2.999980e+00 2.145767e-05
      vertex 1.870030e+01 4.510173e+00 3.337860e-05
    endloop
  endfacet
  facet normal 7.679832e-07 6.223819e-07 1.000000e+00
    outer loop
      vertex -3.653686e+01 -1.504987e+01 2.515211e+00
      vertex -3.032791e+01 -1.504987e+01 2.515206e+00
      vertex -2.902883e+01 -1.282211e+01 2.515204e+00
    endloop
  endfacet
  facet normal 4.007195e-07 1.860141e-06 1.000000e+00
    outer loop
      vertex -2.902883e+01 -1.282211e+01 2.515204e+00
      vertex -3.497860e+01 -1.282211e+01 2.515206e+00
      vertex -3.653686e+01 -1.504987e+01 2.515211e+00
    endloop
  endfacet
  facet normal -4.007189e-07 4.571997e-07 -1.000000e+00
    outer loop
      vertex -1.902883e+01 1.282216e+01 4.529953e-05
      vertex -1.754138e+01 8.911096e+00 4.291534e-05
      vertex -2.200371e+01 5.000028e+00 4.291534e-05
    endloop
  endfacet
  facet normal -4.007186e-07 4.571995e-07 -1.000000e+00
    outer loop
      vertex -2.200371e+01 5.000028e+00 4.291534e-05
      vertex -2.349116e+01 8.911096e+00 4.529953e-05
      vertex -1.902883e+01 1.282216e+01 4.529953e-05
    endloop
  endfacet
  facet normal 4.347544e-07 -3.311328e-07 1.000000e+00
    outer loop
      vertex -2.483020e+00 7.853197e+00 2.515199e+00
      vertex -6.179481e+00 3.000001e+00 2.515199e+00
      vertex -1.132979e+00 2.425618e+00 2.515197e+00
    endloop
  endfacet
  facet normal 3.058366e-06 3.214566e-07 1.000000e+00
    outer loop
      vertex -1.132979e+00 2.425618e+00 2.515197e+00
      vertex -1.652465e+00 7.368047e+00 2.515197e+00
      vertex -2.483020e+00 7.853197e+00 2.515199e+00
    endloop
  endfacet
  facet normal -7.679838e-07 -1.692605e-06 -1.000000e+00
    outer loop
      vertex -2.411895e+01 -1.504987e+01 4.529953e-05
      vertex -3.032791e+01 -1.504987e+01 5.006790e-05
      vertex -2.902885e+01 -1.282211e+01 4.529953e-05
    endloop
  endfacet
  facet normal -4.007189e-07 -8.831683e-07 -1.000000e+00
    outer loop
      vertex -2.902885e+01 -1.282211e+01 4.529953e-05
      vertex -2.307908e+01 -1.282211e+01 4.291534e-05
      vertex -2.411895e+01 -1.504987e+01 4.529953e-05
    endloop
  endfacet
  facet normal -7.132419e-07 -7.473604e-08 1.000000e+00
    outer loop
      vertex 1.209078e+01 3.815483e+00 2.515197e+00
      vertex 1.157288e+01 8.758075e+00 2.515197e+00
      vertex 4.960217e+00 8.063058e+00 2.515192e+00
    endloop
  endfacet
  facet normal -7.131677e-07 -7.461141e-08 1.000000e+00
    outer loop
      vertex 4.960217e+00 8.063058e+00 2.515192e+00
      vertex 5.477319e+00 3.120384e+00 2.515192e+00
      vertex 1.209078e+01 3.815483e+00 2.515197e+00
    endloop
  endfacet
  facet normal -7.679820e-07 2.766947e-06 -1.000000e+00
    outer loop
      vertex -3.653686e+01 -1.504987e+01 4.291534e-05
      vertex -4.274581e+01 -1.504987e+01 4.768372e-05
      vertex -4.092839e+01 -1.282210e+01 5.245209e-05
    endloop
  endfacet
  facet normal -4.007117e-07 3.490934e-06 -1.000000e+00
    outer loop
      vertex -4.092839e+01 -1.282210e+01 5.245209e-05
      vertex -3.497861e+01 -1.282211e+01 5.006790e-05
      vertex -3.653686e+01 -1.504987e+01 4.291534e-05
    endloop
  endfacet
  facet normal -9.617244e-07 -1.470447e-06 -1.000000e+00
    outer loop
      vertex 4.290612e+01 1.282211e+01 7.152557e-06
      vertex 3.546889e+01 1.282211e+01 1.430511e-05
      vertex 3.702086e+01 1.504987e+01 9.536743e-06
    endloop
  endfacet
  facet normal -7.679855e-07 -9.586322e-07 -1.000000e+00
    outer loop
      vertex 3.702086e+01 1.504987e+01 9.536743e-06
      vertex 4.322979e+01 1.504987e+01 4.768372e-06
      vertex 4.290612e+01 1.282211e+01 7.152557e-06
    endloop
  endfacet
  facet normal 8.014414e-07 -3.908528e-12 1.000000e+00
    outer loop
      vertex 4.141867e+01 -2.822166e+00 2.515168e+00
      vertex 4.736842e+01 -2.822176e+00 2.515163e+00
      vertex 4.736844e+01 1.088893e+00 2.515163e+00
    endloop
  endfacet
  facet normal 2.137154e-06 -2.031979e-06 1.000000e+00
    outer loop
      vertex 4.736844e+01 1.088893e+00 2.515163e+00
      vertex 4.513726e+01 1.088893e+00 2.515168e+00
      vertex 4.141867e+01 -2.822166e+00 2.515168e+00
    endloop
  endfacet
  facet normal 8.014387e-07 -1.853480e-07 1.000000e+00
    outer loop
      vertex 5.720067e+00 1.282213e+01 2.515199e+00
      vertex 1.166983e+01 1.282213e+01 2.515194e+00
      vertex 1.218504e+01 1.504989e+01 2.515194e+00
    endloop
  endfacet
  facet normal 7.679830e-07 -8.825963e-08 1.000000e+00
    outer loop
      vertex 1.218504e+01 1.504989e+01 2.515194e+00
      vertex 5.976090e+00 1.504990e+01 2.515199e+00
      vertex 5.720067e+00 1.282213e+01 2.515199e+00
    endloop
  endfacet
  facet normal 2.137154e-06 -2.951050e-06 1.000000e+00
    outer loop
      vertex -1.652465e+00 7.368047e+00 2.515197e+00
      vertex 2.001462e+00 1.082214e+01 2.515199e+00
      vertex -2.297163e-01 1.082214e+01 2.515204e+00
    endloop
  endfacet
  facet normal 1.338871e-06 -2.622235e-06 1.000000e+00
    outer loop
      vertex -2.297163e-01 1.082214e+01 2.515204e+00
      vertex -2.483020e+00 7.853197e+00 2.515199e+00
      vertex -1.652465e+00 7.368047e+00 2.515197e+00
    endloop
  endfacet
  facet normal 9.007906e-07 1.264819e-09 1.000000e+00
    outer loop
      vertex -5.523257e+00 1.282214e+01 2.515197e+00
      vertex -2.297163e-01 1.282214e+01 2.515192e+00
      vertex -2.328444e-01 1.504990e+01 2.515192e+00
    endloop
  endfacet
  facet normal 7.679834e-07 3.166512e-07 1.000000e+00
    outer loop
      vertex -5.523257e+00 1.282214e+01 2.515197e+00
      vertex -2.328444e-01 1.504990e+01 2.515192e+00
      vertex -6.441798e+00 1.504991e+01 2.515197e+00
    endloop
  endfacet
  facet normal -9.980548e-01 6.234226e-02 3.817363e-18
    outer loop
      vertex 5.477319e+00 3.120384e+00 3.337860e-05
      vertex 5.330644e+00 7.722205e-01 3.576279e-05
      vertex 5.330644e+00 7.722205e-01 2.515192e+00
    endloop
  endfacet
  facet normal 8.701992e-07 -1.432983e-06 1.000000e+00
    outer loop
      vertex 2.128287e+01 -1.504992e+01 2.515168e+00
      vertex 4.322978e+01 -5.049933e+00 2.515163e+00
      vertex 4.141867e+01 -2.822166e+00 2.515168e+00
    endloop
  endfacet
  facet normal 9.133967e-07 -1.504117e-06 1.000000e+00
    outer loop
      vertex 4.141867e+01 -2.822166e+00 2.515168e+00
      vertex 1.973090e+01 -1.282216e+01 2.515173e+00
      vertex 2.128287e+01 -1.504992e+01 2.515168e+00
    endloop
  endfacet
  facet normal 1.082738e-06 -1.568022e-06 1.000000e+00
    outer loop
      vertex -1.212924e+01 1.282215e+01 2.515204e+00
      vertex -5.523257e+00 1.282214e+01 2.515197e+00
      vertex -6.700988e+00 1.504992e+01 2.515202e+00
    endloop
  endfacet
  facet normal 7.679843e-07 -8.010826e-07 1.000000e+00
    outer loop
      vertex -6.700988e+00 1.504992e+01 2.515202e+00
      vertex -1.290993e+01 1.504992e+01 2.515206e+00
      vertex -1.212924e+01 1.282215e+01 2.515204e+00
    endloop
  endfacet
  facet normal -1.972713e-06 1.533386e-06 -1.000000e+00
    outer loop
      vertex 1.870030e+01 4.510173e+00 3.337860e-05
      vertex 2.356934e+01 2.999980e+00 2.145767e-05
      vertex 1.973090e+01 -1.282216e+01 4.768372e-06
    endloop
  endfacet
  facet normal 2.781823e-06 -2.024733e-07 1.000000e+00
    outer loop
      vertex 2.128287e+01 -1.504992e+01 2.515168e+00
      vertex 1.973090e+01 -1.282216e+01 2.515173e+00
      vertex 1.356934e+01 -1.504992e+01 2.515190e+00
    endloop
  endfacet
  facet normal 3.387085e-06 -1.876516e-06 1.000000e+00
    outer loop
      vertex 1.973090e+01 -1.282216e+01 2.515173e+00
      vertex 2.356936e+01 2.999980e+00 2.515190e+00
      vertex 1.356934e+01 -1.504992e+01 2.515190e+00
    endloop
  endfacet
  facet normal 0.000000e+00 -6.123234e-17 1.000000e+00
    outer loop
      vertex -1.131372e+01 -1.504989e+01 2.515197e+00
      vertex -9.651170e+00 -1.282211e+01 2.515197e+00
      vertex -1.132979e+00 2.425618e+00 2.515197e+00
    endloop
  endfacet
  facet normal 0.000000e+00 -6.123234e-17 1.000000e+00
    outer loop
      vertex -9.651170e+00 -1.282211e+01 2.515197e+00
      vertex -6.332541e-01 2.478139e+00 2.515197e+00
      vertex -1.132979e+00 2.425618e+00 2.515197e+00
    endloop
  endfacet
  facet normal -5.068386e-06 2.831463e-06 -1.000000e+00
    outer loop
      vertex -6.332541e-01 2.478139e+00 3.814697e-05
      vertex -9.651170e+00 -1.282211e+01 4.053116e-05
      vertex -1.132998e+00 2.425618e+00 4.053116e-05
    endloop
  endfacet
  facet normal 0.000000e+00 6.123234e-17 -1.000000e+00
    outer loop
      vertex -9.651170e+00 -1.282211e+01 4.053116e-05
      vertex -1.131372e+01 -1.504989e+01 4.053116e-05
      vertex -1.132998e+00 2.425618e+00 4.053116e-05
    endloop
  endfacet
  facet normal -8.368689e-07 6.245395e-07 -1.000000e+00
    outer loop
      vertex 8.628812e+00 -1.504992e+01 2.384186e-05
      vertex -1.131372e+01 -1.504989e+01 4.053116e-05
      vertex -9.651170e+00 -1.282211e+01 4.053116e-05
    endloop
  endfacet
  facet normal -8.846914e-07 2.321382e-07 -1.000000e+00
    outer loop
      vertex -9.651170e+00 -1.282211e+01 4.053116e-05
      vertex 9.213376e+00 -1.282211e+01 2.384186e-05
      vertex 8.628812e+00 -1.504992e+01 2.384186e-05
    endloop
  endfacet
  facet normal 2.391055e-07 -6.273998e-08 1.000000e+00
    outer loop
      vertex -1.131372e+01 -1.504989e+01 2.515197e+00
      vertex 8.628812e+00 -1.504992e+01 2.515192e+00
      vertex 9.213376e+00 -1.282211e+01 2.515192e+00
    endloop
  endfacet
  facet normal 2.527690e-07 -1.886367e-07 1.000000e+00
    outer loop
      vertex 9.213376e+00 -1.282211e+01 2.515192e+00
      vertex -9.651170e+00 -1.282211e+01 2.515197e+00
      vertex -1.131372e+01 -1.504989e+01 2.515197e+00
    endloop
  endfacet
  facet normal -2.137172e-06 -4.064077e-07 -1.000000e+00
    outer loop
      vertex 4.513726e+01 1.088893e+00 2.384186e-06
      vertex 4.141867e+01 -2.822166e+00 1.192093e-05
      vertex 4.290610e+01 1.088893e+00 7.152557e-06
    endloop
  endfacet
  facet normal 7.679831e-07 1.000000e+00 6.123234e-17
    outer loop
      vertex 2.460295e+01 1.504988e+01 2.515175e+00
      vertex 2.460295e+01 1.504988e+01 1.907349e-05
      vertex 1.839400e+01 1.504989e+01 2.145767e-05
    endloop
  endfacet
  facet normal 7.679831e-07 1.000000e+00 6.123234e-17
    outer loop
      vertex 1.839400e+01 1.504989e+01 2.145767e-05
      vertex 1.839400e+01 1.504989e+01 2.515180e+00
      vertex 2.460295e+01 1.504988e+01 2.515175e+00
    endloop
  endfacet
  facet normal -2.154615e-05 -1.000000e+00 -6.123234e-17
    outer loop
      vertex -2.411895e+01 -1.504987e+01 4.529953e-05
      vertex -2.345502e+01 -1.504989e+01 4.053116e-05
      vertex -2.345502e+01 -1.504989e+01 2.515197e+00
    endloop
  endfacet
  facet normal -3.591008e-06 -1.000000e+00 -4.739651e-06
    outer loop
      vertex -2.345502e+01 -1.504989e+01 2.515197e+00
      vertex -2.411896e+01 -1.504989e+01 2.515202e+00
      vertex -2.411895e+01 -1.504987e+01 4.529953e-05
    endloop
  endfacet
  facet normal 7.679831e-07 1.000000e+00 6.123234e-17
    outer loop
      vertex 3.081191e+01 1.504988e+01 2.515171e+00
      vertex 3.081191e+01 1.504988e+01 1.430511e-05
      vertex 2.460295e+01 1.504988e+01 1.907349e-05
    endloop
  endfacet
  facet normal 7.679831e-07 1.000000e+00 6.123234e-17
    outer loop
      vertex 2.460295e+01 1.504988e+01 1.907349e-05
      vertex 2.460295e+01 1.504988e+01 2.515175e+00
      vertex 3.081191e+01 1.504988e+01 2.515171e+00
    endloop
  endfacet
  facet normal 1.535966e-06 1.000000e+00 6.123234e-17
    outer loop
      vertex 3.702086e+01 1.504987e+01 9.536743e-06
      vertex 3.081191e+01 1.504988e+01 1.430511e-05
      vertex 3.081191e+01 1.504988e+01 2.515171e+00
    endloop
  endfacet
  facet normal 1.535966e-06 1.000000e+00 6.123234e-17
    outer loop
      vertex 3.081191e+01 1.504988e+01 2.515171e+00
      vertex 3.702086e+01 1.504987e+01 2.515178e+00
      vertex 3.702086e+01 1.504987e+01 9.536743e-06
    endloop
  endfacet
  facet normal -8.014414e-07 -1.000000e+00 6.077605e-12
    outer loop
      vertex 2.951914e+01 1.282211e+01 1.668930e-05
      vertex 3.546889e+01 1.282211e+01 1.430511e-05
      vertex 3.546891e+01 1.282211e+01 2.515171e+00
    endloop
  endfacet
  facet normal -8.014387e-07 -1.000000e+00 -6.123234e-17
    outer loop
      vertex 3.546891e+01 1.282211e+01 2.515171e+00
      vertex 2.951914e+01 1.282211e+01 2.515175e+00
      vertex 2.951914e+01 1.282211e+01 1.668930e-05
    endloop
  endfacet
  facet normal 1.313674e-06 1.000000e+00 6.123234e-17
    outer loop
      vertex -1.290993e+01 1.504992e+01 2.515206e+00
      vertex -1.290993e+01 1.504992e+01 3.814697e-05
      vertex -1.653973e+01 1.504992e+01 4.291534e-05
    endloop
  endfacet
  facet normal 1.313677e-06 1.000000e+00 -4.980998e-12
    outer loop
      vertex -1.653973e+01 1.504992e+01 4.291534e-05
      vertex -1.653972e+01 1.504992e+01 2.515211e+00
      vertex -1.290993e+01 1.504992e+01 2.515206e+00
    endloop
  endfacet
  facet normal 6.591278e-01 -7.520309e-01 4.998424e-06
    outer loop
      vertex -2.646604e+01 1.088960e+00 5.245209e-05
      vertex -2.200371e+01 5.000028e+00 4.291534e-05
      vertex -2.200373e+01 5.000028e+00 2.515209e+00
    endloop
  endfacet
  facet normal 6.591294e-01 -7.520295e-01 -4.604853e-17
    outer loop
      vertex -2.200373e+01 5.000028e+00 2.515209e+00
      vertex -2.646604e+01 1.088960e+00 2.515211e+00
      vertex -2.646604e+01 1.088960e+00 5.245209e-05
    endloop
  endfacet
  facet normal 0.000000e+00 1.000000e+00 6.123234e-17
    outer loop
      vertex 9.213376e+00 -1.282211e+01 2.515192e+00
      vertex 9.213376e+00 -1.282211e+01 2.384186e-05
      vertex -9.651170e+00 -1.282211e+01 4.053116e-05
    endloop
  endfacet
  facet normal 0.000000e+00 1.000000e+00 6.123234e-17
    outer loop
      vertex -9.651170e+00 -1.282211e+01 4.053116e-05
      vertex -9.651170e+00 -1.282211e+01 2.515197e+00
      vertex 9.213376e+00 -1.282211e+01 2.515192e+00
    endloop
  endfacet
  facet normal -9.945219e-01 -1.045277e-01 -6.400476e-18
    outer loop
      vertex 1.818083e+01 9.452602e+00 3.576279e-05
      vertex 1.870030e+01 4.510173e+00 3.337860e-05
      vertex 1.870030e+01 4.510173e+00 2.515192e+00
    endloop
  endfacet
  facet normal -9.945219e-01 -1.045277e-01 -6.400476e-18
    outer loop
      vertex 1.870030e+01 4.510173e+00 2.515192e+00
      vertex 1.818083e+01 9.452602e+00 2.515192e+00
      vertex 1.818083e+01 9.452602e+00 3.576279e-05
    endloop
  endfacet
  facet normal 1.000000e+00 -4.876794e-06 -2.986175e-22
    outer loop
      vertex 2.356934e+01 2.999980e+00 2.145767e-05
      vertex 2.356936e+01 6.911051e+00 2.384186e-05
      vertex 2.356936e+01 6.911051e+00 2.515180e+00
    endloop
  endfacet
  facet normal 1.000000e+00 -1.849130e-11 -7.583385e-06
    outer loop
      vertex 2.356936e+01 6.911051e+00 2.515180e+00
      vertex 2.356936e+01 2.999980e+00 2.515190e+00
      vertex 2.356934e+01 2.999980e+00 2.145767e-05
    endloop
  endfacet
  facet normal 0.000000e+00 1.000000e+00 6.123234e-17
    outer loop
      vertex 4.232621e+00 1.082214e+01 3.576279e-05
      vertex 2.001443e+00 1.082214e+01 3.099442e-05
      vertex 2.001462e+00 1.082214e+01 2.515199e+00
    endloop
  endfacet
  facet normal 0.000000e+00 1.000000e+00 6.123234e-17
    outer loop
      vertex 2.001462e+00 1.082214e+01 2.515199e+00
      vertex 4.232621e+00 1.082214e+01 2.515194e+00
      vertex 4.232621e+00 1.082214e+01 3.576279e-05
    endloop
  endfacet
  facet normal 1.000000e+00 -1.625599e-06 -9.953921e-23
    outer loop
      vertex 4.513726e+01 1.088893e+00 2.384186e-06
      vertex 4.513728e+01 1.282210e+01 9.536743e-06
      vertex 4.513728e+01 1.282210e+01 2.515168e+00
    endloop
  endfacet
  facet normal 1.000000e+00 -1.625599e-06 -9.953921e-23
    outer loop
      vertex 4.513728e+01 1.282210e+01 2.515168e+00
      vertex 4.513726e+01 1.088893e+00 2.515168e+00
      vertex 4.513726e+01 1.088893e+00 2.384186e-06
    endloop
  endfacet
  facet normal 1.602879e-06 1.000000e+00 6.123234e-17
    outer loop
      vertex 1.315726e+01 1.082212e+01 3.576279e-05
      vertex 4.232621e+00 1.082214e+01 3.576279e-05
      vertex 4.232621e+00 1.082214e+01 2.515194e+00
    endloop
  endfacet
  facet normal 1.602879e-06 1.000000e+00 6.123234e-17
    outer loop
      vertex 4.232621e+00 1.082214e+01 2.515194e+00
      vertex 1.315726e+01 1.082212e+01 2.515194e+00
      vertex 1.315726e+01 1.082212e+01 3.576279e-05
    endloop
  endfacet
  facet normal 1.045274e-01 -9.945220e-01 -6.089691e-17
    outer loop
      vertex -1.652465e+00 7.368047e+00 2.515197e+00
      vertex -1.652465e+00 7.368047e+00 4.053116e-05
      vertex 4.960198e+00 8.063058e+00 3.576279e-05
    endloop
  endfacet
  facet normal 1.045271e-01 -9.945220e-01 -7.926728e-07
    outer loop
      vertex 4.960198e+00 8.063058e+00 3.576279e-05
      vertex 4.960217e+00 8.063058e+00 2.515192e+00
      vertex -1.652465e+00 7.368047e+00 2.515197e+00
    endloop
  endfacet
  facet normal -1.781116e-06 -1.000000e+00 -6.123234e-17
    outer loop
      vertex -4.943877e+01 -1.504986e+01 5.245209e-05
      vertex -4.274581e+01 -1.504987e+01 4.768372e-05
      vertex -4.274581e+01 -1.504987e+01 2.515216e+00
    endloop
  endfacet
  facet normal -1.603005e-06 -1.000000e+00 -4.739620e-07
    outer loop
      vertex -4.274581e+01 -1.504987e+01 2.515216e+00
      vertex -4.943877e+01 -1.504986e+01 2.515218e+00
      vertex -4.943877e+01 -1.504986e+01 5.245209e-05
    endloop
  endfacet
  facet normal -1.045245e-01 9.945223e-01 7.926500e-07
    outer loop
      vertex 1.259053e+01 3.868005e+00 2.515194e+00
      vertex 1.259051e+01 3.868005e+00 2.861023e-05
      vertex 1.209078e+01 3.815483e+00 2.861023e-05
    endloop
  endfacet
  facet normal -1.045205e-01 9.945227e-01 6.089695e-17
    outer loop
      vertex 1.209078e+01 3.815483e+00 2.861023e-05
      vertex 1.209078e+01 3.815483e+00 2.515197e+00
      vertex 1.259053e+01 3.868005e+00 2.515194e+00
    endloop
  endfacet
  facet normal 6.591272e-01 -7.520315e-01 -4.604865e-17
    outer loop
      vertex -1.754138e+01 8.911096e+00 2.515209e+00
      vertex -1.754138e+01 8.911096e+00 4.291534e-05
      vertex -1.307906e+01 1.282216e+01 4.053116e-05
    endloop
  endfacet
  facet normal 6.591272e-01 -7.520315e-01 -4.604865e-17
    outer loop
      vertex -1.307906e+01 1.282216e+01 4.053116e-05
      vertex -1.307906e+01 1.282216e+01 2.515209e+00
      vertex -1.754138e+01 8.911096e+00 2.515209e+00
    endloop
  endfacet
  facet normal -8.014362e-07 -1.000000e+00 -6.123234e-17
    outer loop
      vertex -2.297163e-01 1.282214e+01 3.576279e-05
      vertex 5.720067e+00 1.282213e+01 3.337860e-05
      vertex 5.720067e+00 1.282213e+01 2.515199e+00
    endloop
  endfacet
  facet normal -8.014362e-07 -1.000000e+00 -6.123234e-17
    outer loop
      vertex 5.720067e+00 1.282213e+01 2.515199e+00
      vertex -2.297163e-01 1.282214e+01 2.515192e+00
      vertex -2.297163e-01 1.282214e+01 3.576279e-05
    endloop
  endfacet
  facet normal 0.000000e+00 -1.000000e+00 -6.123234e-17
    outer loop
      vertex 4.513728e+01 1.282210e+01 2.515168e+00
      vertex 4.513728e+01 1.282210e+01 9.536743e-06
      vertex 4.736844e+01 1.282210e+01 4.768372e-06
    endloop
  endfacet
  facet normal 0.000000e+00 -1.000000e+00 -6.123234e-17
    outer loop
      vertex 4.736844e+01 1.282210e+01 4.768372e-06
      vertex 4.736844e+01 1.282210e+01 2.515173e+00
      vertex 4.513728e+01 1.282210e+01 2.515168e+00
    endloop
  endfacet
  facet normal -4.899914e-07 -1.000000e+00 -4.739633e-07
    outer loop
      vertex -1.617949e+01 -1.504989e+01 2.515199e+00
      vertex -1.617949e+01 -1.504989e+01 4.053116e-05
      vertex -1.131372e+01 -1.504989e+01 4.053116e-05
    endloop
  endfacet
  facet normal -2.449957e-07 -1.000000e+00 -6.123234e-17
    outer loop
      vertex -1.131372e+01 -1.504989e+01 4.053116e-05
      vertex -1.131372e+01 -1.504989e+01 2.515197e+00
      vertex -1.617949e+01 -1.504989e+01 2.515199e+00
    endloop
  endfacet
  facet normal -3.839915e-07 -1.000000e+00 -6.123234e-17
    outer loop
      vertex -4.274581e+01 -1.504987e+01 4.768372e-05
      vertex -3.653686e+01 -1.504987e+01 4.291534e-05
      vertex -3.653686e+01 -1.504987e+01 2.515211e+00
    endloop
  endfacet
  facet normal -3.839915e-07 -1.000000e+00 -6.123234e-17
    outer loop
      vertex -3.653686e+01 -1.504987e+01 2.515211e+00
      vertex -4.274581e+01 -1.504987e+01 2.515216e+00
      vertex -4.274581e+01 -1.504987e+01 4.768372e-05
    endloop
  endfacet
  facet normal -1.638495e-07 -1.000000e+00 -4.739633e-07
    outer loop
      vertex -2.345502e+01 -1.504989e+01 4.053116e-05
      vertex -1.617949e+01 -1.504989e+01 4.053116e-05
      vertex -1.617949e+01 -1.504989e+01 2.515199e+00
    endloop
  endfacet
  facet normal -3.276991e-07 -1.000000e+00 -6.123234e-17
    outer loop
      vertex -1.617949e+01 -1.504989e+01 2.515199e+00
      vertex -2.345502e+01 -1.504989e+01 2.515197e+00
      vertex -2.345502e+01 -1.504989e+01 4.053116e-05
    endloop
  endfacet
  facet normal -3.839952e-07 -1.000000e+00 -4.739639e-06
    outer loop
      vertex -3.032791e+01 -1.504987e+01 5.006790e-05
      vertex -2.411895e+01 -1.504987e+01 4.529953e-05
      vertex -2.411896e+01 -1.504989e+01 2.515202e+00
    endloop
  endfacet
  facet normal -2.303953e-06 -1.000000e+00 -6.123234e-17
    outer loop
      vertex -2.411896e+01 -1.504989e+01 2.515202e+00
      vertex -3.032791e+01 -1.504987e+01 2.515206e+00
      vertex -3.032791e+01 -1.504987e+01 5.006790e-05
    endloop
  endfacet
  facet normal 9.945219e-01 1.045277e-01 6.400476e-18
    outer loop
      vertex -1.132998e+00 2.425618e+00 4.053116e-05
      vertex -1.652465e+00 7.368047e+00 4.053116e-05
      vertex -1.652465e+00 7.368047e+00 2.515197e+00
    endloop
  endfacet
  facet normal 9.945216e-01 1.045315e-01 -7.541876e-06
    outer loop
      vertex -1.652465e+00 7.368047e+00 2.515197e+00
      vertex -1.132979e+00 2.425618e+00 2.515197e+00
      vertex -1.132998e+00 2.425618e+00 4.053116e-05
    endloop
  endfacet
  facet normal -1.919958e-07 -1.000000e+00 -6.123234e-17
    outer loop
      vertex -3.653686e+01 -1.504987e+01 4.291534e-05
      vertex -3.032791e+01 -1.504987e+01 5.006790e-05
      vertex -3.032791e+01 -1.504987e+01 2.515206e+00
    endloop
  endfacet
  facet normal -1.919958e-07 -1.000000e+00 -6.123234e-17
    outer loop
      vertex -3.032791e+01 -1.504987e+01 2.515206e+00
      vertex -3.653686e+01 -1.504987e+01 2.515211e+00
      vertex -3.653686e+01 -1.504987e+01 4.291534e-05
    endloop
  endfacet
  facet normal 0.000000e+00 1.000000e+00 6.123234e-17
    outer loop
      vertex 2.001462e+00 1.082214e+01 2.515199e+00
      vertex 2.001443e+00 1.082214e+01 3.099442e-05
      vertex -2.297163e-01 1.082214e+01 3.576279e-05
    endloop
  endfacet
  facet normal 0.000000e+00 1.000000e+00 6.123234e-17
    outer loop
      vertex -2.297163e-01 1.082214e+01 3.576279e-05
      vertex -2.297163e-01 1.082214e+01 2.515204e+00
      vertex 2.001462e+00 1.082214e+01 2.515199e+00
    endloop
  endfacet
  facet normal 7.992901e-07 -6.087832e-07 1.000000e+00
    outer loop
      vertex -6.179481e+00 3.000001e+00 2.515199e+00
      vertex -2.483020e+00 7.853197e+00 2.515199e+00
      vertex -3.204589e+00 1.082214e+01 2.515202e+00
    endloop
  endfacet
  facet normal -8.014362e-07 -6.123234e-17 1.000000e+00
    outer loop
      vertex -3.204589e+00 1.082214e+01 2.515202e+00
      vertex -6.179481e+00 6.911070e+00 2.515199e+00
      vertex -6.179481e+00 3.000001e+00 2.515199e+00
    endloop
  endfacet
  facet normal -6.591278e-01 7.520309e-01 -2.499212e-06
    outer loop
      vertex -3.795349e+01 -4.999970e+00 4.768372e-05
      vertex -4.241581e+01 -8.911038e+00 4.768372e-05
      vertex -4.241582e+01 -8.911038e+00 2.515213e+00
    endloop
  endfacet
  facet normal -6.591270e-01 7.520316e-01 4.604866e-17
    outer loop
      vertex -4.241582e+01 -8.911038e+00 2.515213e+00
      vertex -3.795349e+01 -4.999970e+00 2.515213e+00
      vertex -3.795349e+01 -4.999970e+00 4.768372e-05
    endloop
  endfacet
  facet normal 0.000000e+00 1.000000e+00 6.123234e-17
    outer loop
      vertex 4.322979e+01 1.504987e+01 4.768372e-06
      vertex 3.702086e+01 1.504987e+01 9.536743e-06
      vertex 3.702086e+01 1.504987e+01 2.515178e+00
    endloop
  endfacet
  facet normal 0.000000e+00 1.000000e+00 6.123234e-17
    outer loop
      vertex 3.702086e+01 1.504987e+01 2.515178e+00
      vertex 4.322981e+01 1.504987e+01 2.515173e+00
      vertex 4.322979e+01 1.504987e+01 4.768372e-06
    endloop
  endfacet
  facet normal -9.945715e-01 -1.040556e-01 -6.371570e-18
    outer loop
      vertex 4.960198e+00 8.063058e+00 3.576279e-05
      vertex 5.477319e+00 3.120384e+00 3.337860e-05
      vertex 5.477319e+00 3.120384e+00 2.515192e+00
    endloop
  endfacet
  facet normal -9.945719e-01 -1.040518e-01 7.542256e-06
    outer loop
      vertex 5.477319e+00 3.120384e+00 2.515192e+00
      vertex 4.960217e+00 8.063058e+00 2.515192e+00
      vertex 4.960198e+00 8.063058e+00 3.576279e-05
    endloop
  endfacet
  facet normal 9.718111e-01 -2.357609e-01 -7.369617e-06
    outer loop
      vertex 1.973090e+01 -1.282216e+01 4.768372e-06
      vertex 2.356934e+01 2.999980e+00 2.145767e-05
      vertex 2.356936e+01 2.999980e+00 2.515190e+00
    endloop
  endfacet
  facet normal 9.718108e-01 -2.357620e-01 -1.117421e-07
    outer loop
      vertex 2.356936e+01 2.999980e+00 2.515190e+00
      vertex 1.973090e+01 -1.282216e+01 2.515173e+00
      vertex 1.973090e+01 -1.282216e+01 4.768372e-06
    endloop
  endfacet
  facet normal 7.679831e-07 1.000000e+00 6.123234e-17
    outer loop
      vertex 1.839400e+01 1.504989e+01 2.145767e-05
      vertex 1.218504e+01 1.504989e+01 2.622604e-05
      vertex 1.218504e+01 1.504989e+01 2.515194e+00
    endloop
  endfacet
  facet normal 7.679831e-07 1.000000e+00 6.123234e-17
    outer loop
      vertex 1.218504e+01 1.504989e+01 2.515194e+00
      vertex 1.839400e+01 1.504989e+01 2.515180e+00
      vertex 1.839400e+01 1.504989e+01 2.145767e-05
    endloop
  endfacet
  facet normal 2.003594e-06 1.000000e+00 6.123234e-17
    outer loop
      vertex -3.497861e+01 -1.282211e+01 5.006790e-05
      vertex -4.092839e+01 -1.282210e+01 5.245209e-05
      vertex -4.092839e+01 -1.282210e+01 2.515211e+00
    endloop
  endfacet
  facet normal 2.003590e-06 1.000000e+00 -7.596973e-12
    outer loop
      vertex -4.092839e+01 -1.282210e+01 2.515211e+00
      vertex -3.497860e+01 -1.282211e+01 2.515206e+00
      vertex -3.497861e+01 -1.282211e+01 5.006790e-05
    endloop
  endfacet
  facet normal 4.007194e-07 1.000000e+00 -3.038759e-12
    outer loop
      vertex -2.902883e+01 -1.282211e+01 2.515204e+00
      vertex -2.902885e+01 -1.282211e+01 4.529953e-05
      vertex -3.497861e+01 -1.282211e+01 5.006790e-05
    endloop
  endfacet
  facet normal 4.007187e-07 1.000000e+00 -1.519348e-12
    outer loop
      vertex -3.497861e+01 -1.282211e+01 5.006790e-05
      vertex -3.497860e+01 -1.282211e+01 2.515206e+00
      vertex -2.902883e+01 -1.282211e+01 2.515204e+00
    endloop
  endfacet
  facet normal -6.563683e-01 7.544407e-01 3.575762e-07
    outer loop
      vertex -4.943877e+01 -1.504986e+01 5.245209e-05
      vertex -4.943877e+01 -1.504986e+01 2.515218e+00
      vertex -4.687814e+01 -1.282210e+01 2.515213e+00
    endloop
  endfacet
  facet normal -6.563694e-01 7.544396e-01 2.488753e-06
    outer loop
      vertex -4.687814e+01 -1.282210e+01 2.515213e+00
      vertex -4.687815e+01 -1.282210e+01 4.768372e-05
      vertex -4.943877e+01 -1.504986e+01 5.245209e-05
    endloop
  endfacet
  facet normal -1.315081e-06 -1.000000e+00 -4.739615e-07
    outer loop
      vertex -1.131372e+01 -1.504989e+01 4.053116e-05
      vertex 8.628812e+00 -1.504992e+01 2.384186e-05
      vertex 8.628812e+00 -1.504992e+01 2.515192e+00
    endloop
  endfacet
  facet normal -1.374857e-06 -1.000000e+00 -6.123234e-17
    outer loop
      vertex 8.628812e+00 -1.504992e+01 2.515192e+00
      vertex -1.131372e+01 -1.504989e+01 2.515197e+00
      vertex -1.131372e+01 -1.504989e+01 4.053116e-05
    endloop
  endfacet
  facet normal -2.303180e-06 1.123220e-11 -1.000000e+00
    outer loop
      vertex 4.943875e+01 -5.049935e+00 2.384186e-06
      vertex 4.736842e+01 -2.822176e+00 7.152557e-06
      vertex 4.736844e+01 1.088893e+00 7.152557e-06
    endloop
  endfacet
  facet normal -2.303213e-06 6.123234e-17 -1.000000e+00
    outer loop
      vertex 4.736844e+01 1.088893e+00 7.152557e-06
      vertex 4.943875e+01 1.088890e+00 2.384186e-06
      vertex 4.943875e+01 -5.049935e+00 2.384186e-06
    endloop
  endfacet
  facet normal 0.000000e+00 1.000000e+00 6.123234e-17
    outer loop
      vertex 4.736844e+01 1.088893e+00 2.515163e+00
      vertex 4.736844e+01 1.088893e+00 7.152557e-06
      vertex 4.513726e+01 1.088893e+00 2.384186e-06
    endloop
  endfacet
  facet normal 0.000000e+00 1.000000e+00 6.123234e-17
    outer loop
      vertex 4.513726e+01 1.088893e+00 2.384186e-06
      vertex 4.513726e+01 1.088893e+00 2.515168e+00
      vertex 4.736844e+01 1.088893e+00 2.515163e+00
    endloop
  endfacet
  facet normal -1.000000e+00 1.625598e-06 9.953917e-23
    outer loop
      vertex 4.290612e+01 1.282211e+01 7.152557e-06
      vertex 4.290610e+01 1.088893e+00 7.152557e-06
      vertex 4.290610e+01 1.088893e+00 2.515163e+00
    endloop
  endfacet
  facet normal -1.000000e+00 1.625598e-06 9.953917e-23
    outer loop
      vertex 4.290610e+01 1.088893e+00 2.515163e+00
      vertex 4.290612e+01 1.282211e+01 2.515173e+00
      vertex 4.290612e+01 1.282211e+01 7.152557e-06
    endloop
  endfacet
  facet normal 1.045198e-01 -9.945228e-01 -3.921060e-06
    outer loop
      vertex 4.977574e+00 3.067853e+00 2.515192e+00
      vertex 4.977593e+00 3.067865e+00 3.576279e-05
      vertex 5.477319e+00 3.120384e+00 3.337860e-05
    endloop
  endfacet
  facet normal -9.692670e-01 -1.490737e-01 -1.957001e-01
    outer loop
      vertex 5.477319e+00 3.120384e+00 3.337860e-05
      vertex 5.330644e+00 7.722205e-01 2.515192e+00
      vertex 4.977574e+00 3.067853e+00 2.515192e+00
    endloop
  endfacet
  facet normal 8.614967e-01 -5.077631e-01 -3.109153e-17
    outer loop
      vertex -6.332541e-01 2.478139e+00 3.814697e-05
      vertex -6.332541e-01 2.478139e+00 2.515197e+00
      vertex -9.651170e+00 -1.282211e+01 2.515197e+00
    endloop
  endfacet
  facet normal 8.614967e-01 -5.077631e-01 -3.109153e-17
    outer loop
      vertex -9.651170e+00 -1.282211e+01 2.515197e+00
      vertex -9.651170e+00 -1.282211e+01 4.053116e-05
      vertex -6.332541e-01 2.478139e+00 3.814697e-05
    endloop
  endfacet
  facet normal 2.003594e-07 1.000000e+00 6.123234e-17
    outer loop
      vertex -2.307908e+01 -1.282211e+01 2.515209e+00
      vertex -2.307908e+01 -1.282211e+01 4.291534e-05
      vertex -2.902885e+01 -1.282211e+01 4.529953e-05
    endloop
  endfacet
  facet normal 2.003600e-07 1.000000e+00 -1.519351e-12
    outer loop
      vertex -2.902885e+01 -1.282211e+01 4.529953e-05
      vertex -2.902883e+01 -1.282211e+01 2.515204e+00
      vertex -2.307908e+01 -1.282211e+01 2.515209e+00
    endloop
  endfacet
  facet normal -9.338638e-07 -1.000000e+00 -6.123234e-17
    outer loop
      vertex 1.761960e+01 1.282212e+01 1.430511e-05
      vertex 2.272566e+01 1.282212e+01 1.192093e-05
      vertex 2.272566e+01 1.282212e+01 2.515178e+00
    endloop
  endfacet
  facet normal -9.338638e-07 -1.000000e+00 -6.123234e-17
    outer loop
      vertex 2.272566e+01 1.282212e+01 2.515178e+00
      vertex 1.761960e+01 1.282212e+01 2.515182e+00
      vertex 1.761960e+01 1.282212e+01 1.430511e-05
    endloop
  endfacet
  facet normal -3.839915e-07 -1.000000e+00 -6.123234e-17
    outer loop
      vertex 4.322979e+01 -5.049933e+00 7.152557e-06
      vertex 4.943875e+01 -5.049935e+00 2.384186e-06
      vertex 4.943875e+01 -5.049935e+00 2.515171e+00
    endloop
  endfacet
  facet normal -3.839904e-07 -1.000000e+00 -2.912021e-12
    outer loop
      vertex 4.943875e+01 -5.049935e+00 2.515171e+00
      vertex 4.322978e+01 -5.049933e+00 2.515163e+00
      vertex 4.322979e+01 -5.049933e+00 7.152557e-06
    endloop
  endfacet
  facet normal -7.047976e-01 -7.094085e-01 -4.343874e-17
    outer loop
      vertex -1.212924e+01 1.282215e+01 3.576279e-05
      vertex -6.179481e+00 6.911070e+00 4.053116e-05
      vertex -6.179481e+00 6.911070e+00 2.515199e+00
    endloop
  endfacet
  facet normal -7.047976e-01 -7.094085e-01 -4.343874e-17
    outer loop
      vertex -6.179481e+00 6.911070e+00 2.515199e+00
      vertex -1.212924e+01 1.282215e+01 2.515204e+00
      vertex -1.212924e+01 1.282215e+01 3.576279e-05
    endloop
  endfacet
  facet normal 2.303196e-06 -3.146688e-12 1.000000e+00
    outer loop
      vertex 4.943875e+01 1.088890e+00 2.515168e+00
      vertex 4.943877e+01 1.504986e+01 2.515168e+00
      vertex 4.736844e+01 1.282210e+01 2.515173e+00
    endloop
  endfacet
  facet normal -2.303214e-06 -8.127993e-07 1.000000e+00
    outer loop
      vertex 4.736844e+01 1.282210e+01 2.515173e+00
      vertex 4.736844e+01 1.088893e+00 2.515163e+00
      vertex 4.943875e+01 1.088890e+00 2.515168e+00
    endloop
  endfacet
  facet normal 7.679831e-07 1.000000e+00 -5.823850e-12
    outer loop
      vertex 4.943877e+01 1.504986e+01 2.515168e+00
      vertex 4.943875e+01 1.504986e+01 0.000000e+00
      vertex 4.322979e+01 1.504987e+01 4.768372e-06
    endloop
  endfacet
  facet normal 7.679831e-07 1.000000e+00 -5.823850e-12
    outer loop
      vertex 4.322979e+01 1.504987e+01 4.768372e-06
      vertex 4.322981e+01 1.504987e+01 2.515173e+00
      vertex 4.943877e+01 1.504986e+01 2.515168e+00
    endloop
  endfacet
  facet normal -6.932377e-01 7.207090e-01 4.413070e-17
    outer loop
      vertex -2.349116e+01 8.911096e+00 4.529953e-05
      vertex -3.795349e+01 -4.999970e+00 4.768372e-05
      vertex -3.795349e+01 -4.999970e+00 2.515213e+00
    endloop
  endfacet
  facet normal -6.932377e-01 7.207090e-01 4.413070e-17
    outer loop
      vertex -3.795349e+01 -4.999970e+00 2.515213e+00
      vertex -2.349116e+01 8.911096e+00 2.515213e+00
      vertex -2.349116e+01 8.911096e+00 4.529953e-05
    endloop
  endfacet
  facet normal -6.411489e-07 -1.000000e+00 4.862040e-12
    outer loop
      vertex 3.546891e+01 1.282211e+01 2.515171e+00
      vertex 3.546889e+01 1.282211e+01 1.430511e-05
      vertex 4.290612e+01 1.282211e+01 7.152557e-06
    endloop
  endfacet
  facet normal -6.411506e-07 -1.000000e+00 -6.123234e-17
    outer loop
      vertex 4.290612e+01 1.282211e+01 7.152557e-06
      vertex 4.290612e+01 1.282211e+01 2.515173e+00
      vertex 3.546891e+01 1.282211e+01 2.515171e+00
    endloop
  endfacet
  facet normal 7.047947e-01 -7.094113e-01 -4.343892e-17
    outer loop
      vertex 2.356936e+01 6.911051e+00 2.515180e+00
      vertex 2.356936e+01 6.911051e+00 2.384186e-05
      vertex 2.951914e+01 1.282211e+01 1.668930e-05
    endloop
  endfacet
  facet normal 7.047947e-01 -7.094113e-01 -4.343892e-17
    outer loop
      vertex 2.951914e+01 1.282211e+01 1.668930e-05
      vertex 2.951914e+01 1.282211e+01 2.515175e+00
      vertex 2.356936e+01 6.911051e+00 2.515180e+00
    endloop
  endfacet
  facet normal -7.238651e-07 -1.000000e+00 9.479231e-07
    outer loop
      vertex 8.628812e+00 -1.504992e+01 2.384186e-05
      vertex 1.356934e+01 -1.504992e+01 2.145767e-05
      vertex 1.356934e+01 -1.504992e+01 2.515190e+00
    endloop
  endfacet
  facet normal -2.287229e-13 -1.000000e+00 -4.739615e-07
    outer loop
      vertex 1.356934e+01 -1.504992e+01 2.515190e+00
      vertex 8.628812e+00 -1.504992e+01 2.515192e+00
      vertex 8.628812e+00 -1.504992e+01 2.384186e-05
    endloop
  endfacet
  facet normal -1.045440e-01 9.945203e-01 6.089681e-17
    outer loop
      vertex 1.870030e+01 4.510173e+00 3.337860e-05
      vertex 1.820055e+01 4.457640e+00 2.622604e-05
      vertex 1.820055e+01 4.457640e+00 2.515192e+00
    endloop
  endfacet
  facet normal -1.045440e-01 9.945203e-01 6.089681e-17
    outer loop
      vertex 1.820055e+01 4.457640e+00 2.515192e+00
      vertex 1.870030e+01 4.510173e+00 2.515192e+00
      vertex 1.870030e+01 4.510173e+00 3.337860e-05
    endloop
  endfacet
  facet normal -1.045198e-01 9.945228e-01 3.921060e-06
    outer loop
      vertex 5.477319e+00 3.120384e+00 3.337860e-05
      vertex 4.977593e+00 3.067865e+00 3.576279e-05
      vertex 4.977574e+00 3.067853e+00 2.515192e+00
    endloop
  endfacet
  facet normal -1.045393e-01 9.945207e-01 6.089683e-17
    outer loop
      vertex 4.977574e+00 3.067853e+00 2.515192e+00
      vertex 5.477319e+00 3.120384e+00 2.515192e+00
      vertex 5.477319e+00 3.120384e+00 3.337860e-05
    endloop
  endfacet
  facet normal -6.669063e-01 7.451416e-01 4.562676e-17
    outer loop
      vertex -1.653973e+01 1.504992e+01 4.291534e-05
      vertex -1.902883e+01 1.282216e+01 4.529953e-05
      vertex -1.902883e+01 1.282216e+01 2.515211e+00
    endloop
  endfacet
  facet normal -6.669049e-01 7.451429e-01 2.528698e-06
    outer loop
      vertex -1.902883e+01 1.282216e+01 2.515211e+00
      vertex -1.653972e+01 1.504992e+01 2.515211e+00
      vertex -1.653973e+01 1.504992e+01 4.291534e-05
    endloop
  endfacet
  facet normal -1.000000e+00 4.876797e-06 7.583413e-06
    outer loop
      vertex -6.179481e+00 6.911070e+00 4.053116e-05
      vertex -6.179500e+00 3.000001e+00 4.053116e-05
      vertex -6.179481e+00 3.000001e+00 2.515199e+00
    endloop
  endfacet
  facet normal -1.000000e+00 0.000000e+00 0.000000e+00
    outer loop
      vertex -6.179481e+00 3.000001e+00 2.515199e+00
      vertex -6.179481e+00 6.911070e+00 2.515199e+00
      vertex -6.179481e+00 6.911070e+00 4.053116e-05
    endloop
  endfacet
  facet normal 1.000000e+00 -1.295053e-12 -7.583385e-06
    outer loop
      vertex 4.943875e+01 1.088890e+00 2.384186e-06
      vertex 4.943875e+01 1.504986e+01 0.000000e+00
      vertex 4.943877e+01 1.504986e+01 2.515168e+00
    endloop
  endfacet
  facet normal 1.000000e+00 -1.366200e-06 -8.365564e-23
    outer loop
      vertex 4.943877e+01 1.504986e+01 2.515168e+00
      vertex 4.943875e+01 1.088890e+00 2.515168e+00
      vertex 4.943875e+01 1.088890e+00 2.384186e-06
    endloop
  endfacet
  facet normal 1.045290e-01 -9.945219e-01 -6.089690e-17
    outer loop
      vertex 1.157288e+01 8.758075e+00 2.515197e+00
      vertex 1.157288e+01 8.758075e+00 2.861023e-05
      vertex 1.818083e+01 9.452602e+00 3.576279e-05
    endloop
  endfacet
  facet normal 1.045290e-01 -9.945219e-01 -6.089690e-17
    outer loop
      vertex 1.818083e+01 9.452602e+00 3.576279e-05
      vertex 1.818083e+01 9.452602e+00 2.515192e+00
      vertex 1.157288e+01 8.758075e+00 2.515197e+00
    endloop
  endfacet
  facet normal 9.811825e-01 -1.930829e-01 -7.440690e-06
    outer loop
      vertex 1.198130e+01 7.722181e-01 2.861023e-05
      vertex 1.259051e+01 3.868005e+00 2.861023e-05
      vertex 1.259053e+01 3.868005e+00 2.515194e+00
    endloop
  endfacet
  facet normal 9.811813e-01 -1.930887e-01 -1.182327e-17
    outer loop
      vertex 1.259053e+01 3.868005e+00 2.515194e+00
      vertex 1.198130e+01 7.722181e-01 2.515197e+00
      vertex 1.198130e+01 7.722181e-01 2.861023e-05
    endloop
  endfacet
  facet normal -2.303213e-06 1.123224e-11 1.000000e+00
    outer loop
      vertex 4.943875e+01 1.088890e+00 2.515168e+00
      vertex 4.736844e+01 1.088893e+00 2.515163e+00
      vertex 4.736842e+01 -2.822176e+00 2.515163e+00
    endloop
  endfacet
  facet normal -3.036878e-06 3.883782e-07 1.000000e+00
    outer loop
      vertex 4.736842e+01 -2.822176e+00 2.515163e+00
      vertex 4.943875e+01 -5.049935e+00 2.515171e+00
      vertex 4.943875e+01 1.088890e+00 2.515168e+00
    endloop
  endfacet
  facet normal 7.679831e-07 1.000000e+00 -5.823877e-12
    outer loop
      vertex 5.976090e+00 1.504990e+01 3.099442e-05
      vertex -2.328634e-01 1.504990e+01 3.576279e-05
      vertex -2.328444e-01 1.504990e+01 2.515192e+00
    endloop
  endfacet
  facet normal 7.679855e-07 1.000000e+00 6.123234e-17
    outer loop
      vertex -2.328444e-01 1.504990e+01 2.515192e+00
      vertex 5.976090e+00 1.504990e+01 2.515199e+00
      vertex 5.976090e+00 1.504990e+01 3.099442e-05
    endloop
  endfacet
  facet normal -8.014387e-07 -1.000000e+00 -6.123234e-17
    outer loop
      vertex 5.720067e+00 1.282213e+01 3.337860e-05
      vertex 1.166983e+01 1.282213e+01 2.861023e-05
      vertex 1.166983e+01 1.282213e+01 2.515194e+00
    endloop
  endfacet
  facet normal -8.014387e-07 -1.000000e+00 -6.123234e-17
    outer loop
      vertex 1.166983e+01 1.282213e+01 2.515194e+00
      vertex 5.720067e+00 1.282213e+01 2.515199e+00
      vertex 5.720067e+00 1.282213e+01 3.337860e-05
    endloop
  endfacet
  facet normal 1.839723e-05 1.000000e+00 6.123234e-17
    outer loop
      vertex -6.441798e+00 1.504991e+01 4.053116e-05
      vertex -6.700988e+00 1.504992e+01 4.529953e-05
      vertex -6.700988e+00 1.504992e+01 2.515202e+00
    endloop
  endfacet
  facet normal 3.679450e-05 1.000000e+00 1.895855e-06
    outer loop
      vertex -6.700988e+00 1.504992e+01 2.515202e+00
      vertex -6.441798e+00 1.504991e+01 2.515197e+00
      vertex -6.441798e+00 1.504991e+01 4.053116e-05
    endloop
  endfacet
  facet normal 6.591278e-01 -7.520309e-01 -4.604861e-17
    outer loop
      vertex -2.200371e+01 5.000028e+00 4.291534e-05
      vertex -1.754138e+01 8.911096e+00 4.291534e-05
      vertex -1.754138e+01 8.911096e+00 2.515209e+00
    endloop
  endfacet
  facet normal 6.591262e-01 -7.520323e-01 4.998412e-06
    outer loop
      vertex -1.754138e+01 8.911096e+00 2.515209e+00
      vertex -2.200373e+01 5.000028e+00 2.515209e+00
      vertex -2.200371e+01 5.000028e+00 4.291534e-05
    endloop
  endfacet
  facet normal -6.922377e-01 7.216696e-01 2.736349e-06
    outer loop
      vertex -6.179500e+00 3.000001e+00 4.053116e-05
      vertex -2.267433e+01 -1.282212e+01 3.814697e-05
      vertex -2.267433e+01 -1.282213e+01 2.515206e+00
    endloop
  endfacet
  facet normal -6.922375e-01 7.216698e-01 5.249523e-06
    outer loop
      vertex -2.267433e+01 -1.282213e+01 2.515206e+00
      vertex -6.179481e+00 3.000001e+00 2.515199e+00
      vertex -6.179500e+00 3.000001e+00 4.053116e-05
    endloop
  endfacet
  facet normal -7.216149e-01 6.922947e-01 4.239083e-17
    outer loop
      vertex 2.272566e+01 1.282212e+01 1.192093e-05
      vertex 2.080693e+01 1.082212e+01 2.622604e-05
      vertex 2.080693e+01 1.082212e+01 2.515192e+00
    endloop
  endfacet
  facet normal -7.216149e-01 6.922947e-01 4.239083e-17
    outer loop
      vertex 2.080693e+01 1.082212e+01 2.515192e+00
      vertex 2.272566e+01 1.282212e+01 2.515178e+00
      vertex 2.272566e+01 1.282212e+01 1.192093e-05
    endloop
  endfacet
  facet normal 5.890530e-06 1.000000e+00 6.123234e-17
    outer loop
      vertex -2.267433e+01 -1.282212e+01 3.814697e-05
      vertex -2.307908e+01 -1.282211e+01 4.291534e-05
      vertex -2.307908e+01 -1.282211e+01 2.515209e+00
    endloop
  endfacet
  facet normal 2.945267e-05 1.000000e+00 3.791692e-06
    outer loop
      vertex -2.307908e+01 -1.282211e+01 2.515209e+00
      vertex -2.267433e+01 -1.282213e+01 2.515206e+00
      vertex -2.267433e+01 -1.282212e+01 3.814697e-05
    endloop
  endfacet
  facet normal 0.000000e+00 1.000000e+00 6.123234e-17
    outer loop
      vertex 2.080693e+01 1.082212e+01 2.622604e-05
      vertex 1.538844e+01 1.082212e+01 3.099442e-05
      vertex 1.538844e+01 1.082212e+01 2.515197e+00
    endloop
  endfacet
  facet normal 0.000000e+00 1.000000e+00 6.123234e-17
    outer loop
      vertex 1.538844e+01 1.082212e+01 2.515197e+00
      vertex 2.080693e+01 1.082212e+01 2.515192e+00
      vertex 2.080693e+01 1.082212e+01 2.622604e-05
    endloop
  endfacet
  facet normal -6.591276e-01 7.520311e-01 4.604863e-17
    outer loop
      vertex -1.902883e+01 1.282216e+01 4.529953e-05
      vertex -2.349116e+01 8.911096e+00 4.529953e-05
      vertex -2.349116e+01 8.911096e+00 2.515213e+00
    endloop
  endfacet
  facet normal -6.591276e-01 7.520311e-01 4.604863e-17
    outer loop
      vertex -2.349116e+01 8.911096e+00 2.515213e+00
      vertex -1.902883e+01 1.282216e+01 2.515211e+00
      vertex -1.902883e+01 1.282216e+01 4.529953e-05
    endloop
  endfacet
  facet normal 1.545458e-07 -1.000000e+00 -6.123234e-17
    outer loop
      vertex 1.356934e+01 -1.504992e+01 2.145767e-05
      vertex 2.128287e+01 -1.504992e+01 1.192093e-05
      vertex 2.128287e+01 -1.504992e+01 2.515168e+00
    endloop
  endfacet
  facet normal -1.545431e-07 -1.000000e+00 9.479231e-07
    outer loop
      vertex 2.128287e+01 -1.504992e+01 2.515168e+00
      vertex 1.356934e+01 -1.504992e+01 2.515190e+00
      vertex 1.356934e+01 -1.504992e+01 2.145767e-05
    endloop
  endfacet
  facet normal 6.932370e-01 -7.207097e-01 -4.413074e-17
    outer loop
      vertex -4.092839e+01 -1.282210e+01 5.245209e-05
      vertex -2.646604e+01 1.088960e+00 5.245209e-05
      vertex -2.646604e+01 1.088960e+00 2.515211e+00
    endloop
  endfacet
  facet normal 6.932370e-01 -7.207097e-01 -4.413074e-17
    outer loop
      vertex -2.646604e+01 1.088960e+00 2.515211e+00
      vertex -4.092839e+01 -1.282210e+01 2.515211e+00
      vertex -4.092839e+01 -1.282210e+01 5.245209e-05
    endloop
  endfacet
  facet normal 1.000000e+00 0.000000e+00 0.000000e+00
    outer loop
      vertex 4.943875e+01 -5.049935e+00 2.384186e-06
      vertex 4.943875e+01 1.088890e+00 2.384186e-06
      vertex 4.943875e+01 1.088890e+00 2.515168e+00
    endloop
  endfacet
  facet normal 1.000000e+00 0.000000e+00 0.000000e+00
    outer loop
      vertex 4.943875e+01 1.088890e+00 2.515168e+00
      vertex 4.943875e+01 -5.049935e+00 2.515171e+00
      vertex 4.943875e+01 -5.049935e+00 2.384186e-06
    endloop
  endfacet
  facet normal -3.584887e-07 -1.000000e+00 -6.123234e-17
    outer loop
      vertex 5.330644e+00 7.722205e-01 2.515192e+00
      vertex 5.330644e+00 7.722205e-01 3.576279e-05
      vertex 1.198130e+01 7.722181e-01 2.861023e-05
    endloop
  endfacet
  facet normal -3.584887e-07 -1.000000e+00 -6.123234e-17
    outer loop
      vertex 1.198130e+01 7.722181e-01 2.861023e-05
      vertex 1.198130e+01 7.722181e-01 2.515197e+00
      vertex 5.330644e+00 7.722205e-01 2.515192e+00
    endloop
  endfacet
  facet normal -9.007906e-07 -1.000000e+00 -6.123234e-17
    outer loop
      vertex -2.297163e-01 1.282214e+01 2.515192e+00
      vertex -5.523257e+00 1.282214e+01 2.515197e+00
      vertex -5.523257e+00 1.282214e+01 3.814697e-05
    endloop
  endfacet
  facet normal -9.007906e-07 -1.000000e+00 -6.123234e-17
    outer loop
      vertex -5.523257e+00 1.282214e+01 3.814697e-05
      vertex -2.297163e-01 1.282214e+01 3.576279e-05
      vertex -2.297163e-01 1.282214e+01 2.515192e+00
    endloop
  endfacet
  facet normal -6.591277e-01 7.520310e-01 2.499212e-06
    outer loop
      vertex -4.687815e+01 -1.282210e+01 4.768372e-05
      vertex -4.687814e+01 -1.282210e+01 2.515213e+00
      vertex -4.241582e+01 -8.911038e+00 2.515213e+00
    endloop
  endfacet
  facet normal -6.591261e-01 7.520325e-01 -2.499205e-06
    outer loop
      vertex -4.241582e+01 -8.911038e+00 2.515213e+00
      vertex -4.241581e+01 -8.911038e+00 4.768372e-05
      vertex -4.687815e+01 -1.282210e+01 4.768372e-05
    endloop
  endfacet
  facet normal -1.045205e-01 9.945227e-01 7.926232e-07
    outer loop
      vertex -6.332541e-01 2.478139e+00 3.814697e-05
      vertex -1.132998e+00 2.425618e+00 4.053116e-05
      vertex -1.132979e+00 2.425618e+00 2.515197e+00
    endloop
  endfacet
  facet normal -1.045245e-01 9.945223e-01 6.089693e-17
    outer loop
      vertex -1.132979e+00 2.425618e+00 2.515197e+00
      vertex -6.332541e-01 2.478139e+00 2.515197e+00
      vertex -6.332541e-01 2.478139e+00 3.814697e-05
    endloop
  endfacet
  facet normal -8.014387e-07 -1.000000e+00 -6.123234e-17
    outer loop
      vertex 1.166983e+01 1.282213e+01 2.861023e-05
      vertex 1.761960e+01 1.282212e+01 1.430511e-05
      vertex 1.761960e+01 1.282212e+01 2.515182e+00
    endloop
  endfacet
  facet normal -8.014387e-07 -1.000000e+00 -6.123234e-17
    outer loop
      vertex 1.761960e+01 1.282212e+01 2.515182e+00
      vertex 1.166983e+01 1.282213e+01 2.515194e+00
      vertex 1.166983e+01 1.282213e+01 2.861023e-05
    endloop
  endfacet
  facet normal 7.679831e-07 1.000000e+00 6.123234e-17
    outer loop
      vertex 1.218504e+01 1.504989e+01 2.622604e-05
      vertex 5.976090e+00 1.504990e+01 3.099442e-05
      vertex 5.976090e+00 1.504990e+01 2.515199e+00
    endloop
  endfacet
  facet normal 7.679831e-07 1.000000e+00 6.123234e-17
    outer loop
      vertex 5.976090e+00 1.504990e+01 2.515199e+00
      vertex 1.218504e+01 1.504989e+01 2.515194e+00
      vertex 1.218504e+01 1.504989e+01 2.622604e-05
    endloop
  endfacet
  facet normal 2.101920e-06 -2.339817e-07 1.000000e+00
    outer loop
      vertex 2.356936e+01 6.911051e+00 2.515180e+00
      vertex 1.933457e+01 9.627296e+00 2.515190e+00
      vertex 1.818083e+01 9.452602e+00 2.515192e+00
    endloop
  endfacet
  facet normal 3.362373e-06 2.438397e-06 1.000000e+00
    outer loop
      vertex 1.818083e+01 9.452602e+00 2.515192e+00
      vertex 2.356936e+01 2.999980e+00 2.515190e+00
      vertex 2.356936e+01 6.911051e+00 2.515180e+00
    endloop
  endfacet
  facet normal 0.000000e+00 1.000000e+00 6.123234e-17
    outer loop
      vertex -6.700988e+00 1.504992e+01 4.529953e-05
      vertex -1.290993e+01 1.504992e+01 3.814697e-05
      vertex -1.290993e+01 1.504992e+01 2.515206e+00
    endloop
  endfacet
  facet normal 0.000000e+00 1.000000e+00 6.123234e-17
    outer loop
      vertex -1.290993e+01 1.504992e+01 2.515206e+00
      vertex -6.700988e+00 1.504992e+01 2.515202e+00
      vertex -6.700988e+00 1.504992e+01 4.529953e-05
    endloop
  endfacet
  facet normal 4.146314e-01 -9.099895e-01 3.144324e-06
    outer loop
      vertex 2.128287e+01 -1.504992e+01 1.192093e-05
      vertex 4.322979e+01 -5.049933e+00 7.152557e-06
      vertex 4.322978e+01 -5.049933e+00 2.515163e+00
    endloop
  endfacet
  facet normal 4.146317e-01 -9.099894e-01 -5.572078e-17
    outer loop
      vertex 4.322978e+01 -5.049933e+00 2.515163e+00
      vertex 2.128287e+01 -1.504992e+01 2.515168e+00
      vertex 2.128287e+01 -1.504992e+01 1.192093e-05
    endloop
  endfacet
  facet normal 0.000000e+00 1.000000e+00 6.123234e-17
    outer loop
      vertex 1.538844e+01 1.082212e+01 3.099442e-05
      vertex 1.315726e+01 1.082212e+01 3.576279e-05
      vertex 1.315726e+01 1.082212e+01 2.515194e+00
    endloop
  endfacet
  facet normal 0.000000e+00 1.000000e+00 6.123234e-17
    outer loop
      vertex 1.315726e+01 1.082212e+01 2.515194e+00
      vertex 1.538844e+01 1.082212e+01 2.515197e+00
      vertex 1.538844e+01 1.082212e+01 3.099442e-05
    endloop
  endfacet
  facet normal -2.119451e-06 -1.707750e-07 -1.000000e+00
    outer loop
      vertex 4.736844e+01 1.282210e+01 4.768372e-06
      vertex 4.943875e+01 1.504986e+01 0.000000e+00
      vertex 4.943875e+01 1.088890e+00 2.384186e-06
    endloop
  endfacet
  facet normal -2.303214e-06 -2.031998e-07 -1.000000e+00
    outer loop
      vertex 4.943875e+01 1.088890e+00 2.384186e-06
      vertex 4.736844e+01 1.088893e+00 7.152557e-06
      vertex 4.736844e+01 1.282210e+01 4.768372e-06
    endloop
  endfacet
  facet normal 6.531552e-01 7.572240e-01 4.636660e-17
    outer loop
      vertex -5.523257e+00 1.282214e+01 3.814697e-05
      vertex -5.523257e+00 1.282214e+01 2.515197e+00
      vertex -3.204589e+00 1.082214e+01 2.515202e+00
    endloop
  endfacet
  facet normal 6.531552e-01 7.572240e-01 4.636660e-17
    outer loop
      vertex -3.204589e+00 1.082214e+01 2.515202e+00
      vertex -3.204589e+00 1.082214e+01 3.576279e-05
      vertex -5.523257e+00 1.282214e+01 3.814697e-05
    endloop
  endfacet
  facet normal 9.945550e-01 1.042130e-01 6.381207e-18
    outer loop
      vertex 1.209078e+01 3.815483e+00 2.861023e-05
      vertex 1.157288e+01 8.758075e+00 2.861023e-05
      vertex 1.157288e+01 8.758075e+00 2.515197e+00
    endloop
  endfacet
  facet normal 9.945550e-01 1.042130e-01 6.381207e-18
    outer loop
      vertex 1.157288e+01 8.758075e+00 2.515197e+00
      vertex 1.209078e+01 3.815483e+00 2.515197e+00
      vertex 1.209078e+01 3.815483e+00 2.861023e-05
    endloop
  endfacet
  facet normal -4.187218e-01 9.081146e-01 4.304114e-07
    outer loop
      vertex 4.141867e+01 -2.822166e+00 1.192093e-05
      vertex 1.973090e+01 -1.282216e+01 4.768372e-06
      vertex 1.973090e+01 -1.282216e+01 2.515173e+00
    endloop
  endfacet
  facet normal -4.187218e-01 9.081146e-01 5.560598e-17
    outer loop
      vertex 1.973090e+01 -1.282216e+01 2.515173e+00
      vertex 4.141867e+01 -2.822166e+00 2.515168e+00
      vertex 4.141867e+01 -2.822166e+00 1.192093e-05
    endloop
  endfacet
  facet normal 1.535973e-06 1.000000e+00 1.895855e-06
    outer loop
      vertex -2.328634e-01 1.504990e+01 3.576279e-05
      vertex -6.441798e+00 1.504991e+01 4.053116e-05
      vertex -6.441798e+00 1.504991e+01 2.515197e+00
    endloop
  endfacet
  facet normal 7.679831e-07 1.000000e+00 -5.823877e-12
    outer loop
      vertex -6.441798e+00 1.504991e+01 2.515197e+00
      vertex -2.328444e-01 1.504990e+01 2.515192e+00
      vertex -2.328634e-01 1.504990e+01 3.576279e-05
    endloop
  endfacet
  facet normal -9.346864e-01 3.554734e-01 2.176647e-17
    outer loop
      vertex 4.141867e+01 -2.822166e+00 2.515168e+00
      vertex 4.290610e+01 1.088893e+00 2.515163e+00
      vertex 4.290610e+01 1.088893e+00 7.152557e-06
    endloop
  endfacet
  facet normal -9.346864e-01 3.554734e-01 2.176647e-17
    outer loop
      vertex 4.290610e+01 1.088893e+00 7.152557e-06
      vertex 4.141867e+01 -2.822166e+00 1.192093e-05
      vertex 4.141867e+01 -2.822166e+00 2.515168e+00
    endloop
  endfacet
  facet normal 1.602883e-06 1.000000e+00 6.123234e-17
    outer loop
      vertex -2.297163e-01 1.082214e+01 2.515204e+00
      vertex -2.297163e-01 1.082214e+01 3.576279e-05
      vertex -3.204589e+00 1.082214e+01 3.576279e-05
    endloop
  endfacet
  facet normal 1.602883e-06 1.000000e+00 6.123234e-17
    outer loop
      vertex -3.204589e+00 1.082214e+01 3.576279e-05
      vertex -3.204589e+00 1.082214e+01 2.515202e+00
      vertex -2.297163e-01 1.082214e+01 2.515204e+00
    endloop
  endfacet
  facet normal -1.000000e+00 0.000000e+00 0.000000e+00
    outer loop
      vertex 4.736844e+01 1.282210e+01 4.768372e-06
      vertex 4.736844e+01 1.088893e+00 7.152557e-06
      vertex 4.736844e+01 1.088893e+00 2.515163e+00
    endloop
  endfacet
  facet normal -1.000000e+00 0.000000e+00 0.000000e+00
    outer loop
      vertex 4.736844e+01 1.088893e+00 2.515163e+00
      vertex 4.736844e+01 1.282210e+01 2.515173e+00
      vertex 4.736844e+01 1.282210e+01 4.768372e-06
    endloop
  endfacet
  facet normal -4.825764e-07 9.251675e-07 -1.000000e+00
    outer loop
      vertex 8.628812e+00 -1.504992e+01 2.384186e-05
      vertex 1.880990e+01 -4.585302e+00 2.861023e-05
      vertex 1.356934e+01 -1.504992e+01 2.145767e-05
    endloop
  endfacet
  facet normal 4.914972e-07 5.922313e-09 1.000000e+00
    outer loop
      vertex 1.870030e+01 4.510173e+00 2.515192e+00
      vertex 1.880990e+01 -4.585302e+00 2.515192e+00
      vertex 2.356936e+01 2.999980e+00 2.515190e+00
    endloop
  endfacet
  facet normal 0.000000e+00 -6.123234e-17 1.000000e+00
    outer loop
      vertex 1.820055e+01 4.457640e+00 2.515192e+00
      vertex 1.880990e+01 -4.585302e+00 2.515192e+00
      vertex 1.870030e+01 4.510173e+00 2.515192e+00
    endloop
  endfacet
  facet normal 0.000000e+00 -6.123234e-17 1.000000e+00
    outer loop
      vertex 8.628812e+00 -1.504992e+01 2.515192e+00
      vertex 1.880990e+01 -4.585302e+00 2.515192e+00
      vertex 9.213376e+00 -1.282211e+01 2.515192e+00
    endloop
  endfacet
  facet normal 6.413218e-07 -1.682794e-07 -1.000000e+00
    outer loop
      vertex 9.213376e+00 -1.282211e+01 2.384186e-05
      vertex 1.880990e+01 -4.585302e+00 2.861023e-05
      vertex 8.628812e+00 -1.504992e+01 2.384186e-05
    endloop
  endfacet
  facet normal 1.423928e-05 6.958343e-07 -1.000000e+00
    outer loop
      vertex 1.870030e+01 4.510173e+00 3.337860e-05
      vertex 1.880990e+01 -4.585302e+00 2.861023e-05
      vertex 1.820055e+01 4.457640e+00 2.622604e-05
    endloop
  endfacet
  facet normal -6.513028e-01 7.588180e-01 4.646420e-17
    outer loop
      vertex 9.213376e+00 -1.282211e+01 2.515192e+00
      vertex 1.880990e+01 -4.585302e+00 2.515192e+00
      vertex 1.880990e+01 -4.585302e+00 2.861023e-05
    endloop
  endfacet
  facet normal -6.513028e-01 7.588180e-01 4.646420e-17
    outer loop
      vertex 1.880990e+01 -4.585302e+00 2.861023e-05
      vertex 9.213376e+00 -1.282211e+01 2.384186e-05
      vertex 9.213376e+00 -1.282211e+01 2.515192e+00
    endloop
  endfacet
  facet normal -9.977375e-01 -6.723054e-02 -4.116684e-18
    outer loop
      vertex 1.880990e+01 -4.585302e+00 2.515192e+00
      vertex 1.820055e+01 4.457640e+00 2.515192e+00
      vertex 1.820055e+01 4.457640e+00 2.622604e-05
    endloop
  endfacet
  facet normal -9.977375e-01 -6.723054e-02 -4.116684e-18
    outer loop
      vertex 1.820055e+01 4.457640e+00 2.622604e-05
      vertex 1.880990e+01 -4.585302e+00 2.861023e-05
      vertex 1.880990e+01 -4.585302e+00 2.515192e+00
    endloop
  endfacet
  facet normal -3.609246e-06 2.490966e-06 -1.000000e+00
    outer loop
      vertex 1.356934e+01 -1.504992e+01 2.145767e-05
      vertex 1.880990e+01 -4.585302e+00 2.861023e-05
      vertex 1.973090e+01 -1.282216e+01 4.768372e-06
    endloop
  endfacet
  facet normal -2.375856e-05 2.379780e-07 -1.000000e+00
    outer loop
      vertex 1.880990e+01 -4.585302e+00 2.861023e-05
      vertex 1.870030e+01 4.510173e+00 3.337860e-05
      vertex 1.973090e+01 -1.282216e+01 4.768372e-06
    endloop
  endfacet
  facet normal 4.279942e-06 -2.371177e-06 1.000000e+00
    outer loop
      vertex 2.356936e+01 2.999980e+00 2.515190e+00
      vertex 1.880990e+01 -4.585302e+00 2.515192e+00
      vertex 1.356934e+01 -1.504992e+01 2.515190e+00
    endloop
  endfacet
  facet normal 4.825770e-07 -4.695019e-07 1.000000e+00
    outer loop
      vertex 1.880990e+01 -4.585302e+00 2.515192e+00
      vertex 8.628812e+00 -1.504992e+01 2.515192e+00
      vertex 1.356934e+01 -1.504992e+01 2.515190e+00
    endloop
  endfacet
endsolid Default
