solid Default
  facet normal -6.123234e-17 0.000000e+00 1.000000e+00
    outer loop
      vertex 9.504695e+00 -1.375758e+01 2.220078e+00
      vertex 9.504695e+00 -1.475759e+01 2.220078e+00
      vertex 9.754696e+00 -1.375758e+01 2.220078e+00
    endloop
  endfacet
  facet normal -6.123234e-17 0.000000e+00 1.000000e+00
    outer loop
      vertex -2.170253e+00 -1.475760e+01 2.220078e+00
      vertex -2.170253e+00 -1.375760e+01 2.220078e+00
      vertex -2.420254e+00 -1.375760e+01 2.220078e+00
    endloop
  endfacet
  facet normal 6.123234e-17 0.000000e+00 -1.000000e+00
    outer loop
      vertex -2.170253e+00 -1.375760e+01 0.000000e+00
      vertex -2.170253e+00 -1.475760e+01 0.000000e+00
      vertex -2.420254e+00 -1.375760e+01 0.000000e+00
    endloop
  endfacet
  facet normal 6.123234e-17 0.000000e+00 -1.000000e+00
    outer loop
      vertex 9.504695e+00 -1.475760e+01 0.000000e+00
      vertex 9.504695e+00 -1.375760e+01 0.000000e+00
      vertex 9.754696e+00 -1.375760e+01 0.000000e+00
    endloop
  endfacet
  facet normal 6.123234e-17 0.000000e+00 -1.000000e+00
    outer loop
      vertex -2.170277e+00 1.475760e+01 0.000000e+00
      vertex -2.170272e+00 1.375759e+01 0.000000e+00
      vertex -2.420273e+00 1.375759e+01 0.000000e+00
    endloop
  endfacet
  facet normal 6.123234e-17 0.000000e+00 -1.000000e+00
    outer loop
      vertex 9.504671e+00 1.375759e+01 0.000000e+00
      vertex 9.504671e+00 1.475760e+01 0.000000e+00
      vertex 9.754672e+00 1.375759e+01 0.000000e+00
    endloop
  endfacet
  facet normal -6.123234e-17 0.000000e+00 1.000000e+00
    outer loop
      vertex -2.170272e+00 1.375758e+01 2.178059e+00
      vertex -2.170277e+00 1.475758e+01 2.178059e+00
      vertex -2.420273e+00 1.375758e+01 2.178059e+00
    endloop
  endfacet
  facet normal -6.123234e-17 0.000000e+00 1.000000e+00
    outer loop
      vertex 9.504671e+00 1.475760e+01 2.220097e+00
      vertex 9.504671e+00 1.375759e+01 2.220097e+00
      vertex 9.754672e+00 1.375759e+01 2.220097e+00
    endloop
  endfacet
  facet normal -9.701434e-01 2.425321e-01 1.194682e-06
    outer loop
      vertex -2.420273e+00 1.375759e+01 0.000000e+00
      vertex -2.420273e+00 1.375758e+01 2.178059e+00
      vertex -2.170277e+00 1.475758e+01 2.178059e+00
    endloop
  endfacet
  facet normal -9.701434e-01 2.425321e-01 1.194682e-06
    outer loop
      vertex -2.170277e+00 1.475758e+01 2.178059e+00
      vertex -2.170277e+00 1.475760e+01 0.000000e+00
      vertex -2.420273e+00 1.375759e+01 0.000000e+00
    endloop
  endfacet
  facet normal 9.536730e-06 0.000000e+00 -1.000000e+00
    outer loop
      vertex 1.150467e+01 8.727257e+00 1.907349e-05
      vertex 9.504671e+00 1.124243e+01 0.000000e+00
      vertex 1.150467e+01 1.124243e+01 1.907349e-05
    endloop
  endfacet
  facet normal 6.123234e-17 0.000000e+00 -1.000000e+00
    outer loop
      vertex 1.150468e+01 -8.727193e+00 0.000000e+00
      vertex 7.697268e+00 -6.084228e+00 0.000000e+00
      vertex 9.562464e+00 -3.292766e+00 0.000000e+00
    endloop
  endfacet
  facet normal 6.123234e-17 0.000000e+00 -1.000000e+00
    outer loop
      vertex 1.613033e+00 -8.604398e+00 0.000000e+00
      vertex -2.170258e+00 -1.124238e+01 0.000000e+00
      vertex -1.679733e+00 -7.949433e+00 0.000000e+00
    endloop
  endfacet
  facet normal 6.123234e-17 0.000000e+00 -1.000000e+00
    outer loop
      vertex 7.697268e+00 -6.084228e+00 0.000000e+00
      vertex 9.504685e+00 -1.124238e+01 0.000000e+00
      vertex 4.905796e+00 -7.949433e+00 0.000000e+00
    endloop
  endfacet
  facet normal -2.469930e-03 -1.241720e-02 9.999198e-01
    outer loop
      vertex 4.905796e+00 7.949442e+00 2.178059e+00
      vertex 9.504685e+00 8.727263e+00 2.199078e+00
      vertex 1.613033e+00 8.604412e+00 2.178059e+00
    endloop
  endfacet
  facet normal -3.647164e-03 -5.458357e-03 9.999785e-01
    outer loop
      vertex 7.697268e+00 6.084237e+00 2.178059e+00
      vertex 9.504685e+00 8.727263e+00 2.199078e+00
      vertex 4.905796e+00 7.949442e+00 2.178059e+00
    endloop
  endfacet
  facet normal -5.881879e-03 -3.930132e-03 9.999750e-01
    outer loop
      vertex 9.562464e+00 3.292764e+00 2.178059e+00
      vertex 9.504685e+00 8.727263e+00 2.199078e+00
      vertex 7.697268e+00 6.084237e+00 2.178059e+00
    endloop
  endfacet
  facet normal -5.876597e-03 3.926619e-03 9.999750e-01
    outer loop
      vertex 9.504695e+00 -8.727179e+00 2.199059e+00
      vertex 9.562464e+00 -3.292766e+00 2.178059e+00
      vertex 7.697268e+00 -6.084228e+00 2.178059e+00
    endloop
  endfacet
  facet normal -3.643921e-03 5.453500e-03 9.999785e-01
    outer loop
      vertex 9.504695e+00 -8.727179e+00 2.199059e+00
      vertex 7.697268e+00 -6.084228e+00 2.178059e+00
      vertex 4.905796e+00 -7.949433e+00 2.178059e+00
    endloop
  endfacet
  facet normal -2.467788e-03 1.240654e-02 9.999200e-01
    outer loop
      vertex 9.504695e+00 -8.727179e+00 2.199059e+00
      vertex 4.905796e+00 -7.949433e+00 2.178059e+00
      vertex 1.613033e+00 -8.604398e+00 2.178059e+00
    endloop
  endfacet
  facet normal -2.053779e-02 -4.085200e-03 9.997808e-01
    outer loop
      vertex 9.504685e+00 8.727263e+00 2.199078e+00
      vertex 9.562464e+00 3.292764e+00 2.178059e+00
      vertex 1.021743e+01 -4.768372e-06 2.178059e+00
    endloop
  endfacet
  facet normal -8.021948e-03 1.595667e-03 9.999666e-01
    outer loop
      vertex -8.495312e+00 5.109288e+00 2.157841e+00
      vertex -6.991374e+00 4.768372e-06 2.178059e+00
      vertex -6.336403e+00 3.292764e+00 2.178059e+00
    endloop
  endfacet
  facet normal -2.511193e-03 9.621902e-03 9.999505e-01
    outer loop
      vertex -8.495307e+00 -1.124254e+01 2.178059e+00
      vertex 9.504695e+00 -8.727179e+00 2.199059e+00
      vertex 1.613033e+00 -8.604398e+00 2.178059e+00
    endloop
  endfacet
  facet normal -2.513388e-03 -9.630815e-03 9.999505e-01
    outer loop
      vertex 9.504685e+00 8.727263e+00 2.199078e+00
      vertex -8.495321e+00 1.124242e+01 2.178059e+00
      vertex 1.613033e+00 8.604412e+00 2.178059e+00
    endloop
  endfacet
  facet normal 6.123234e-17 0.000000e+00 -1.000000e+00
    outer loop
      vertex -8.495307e+00 -1.124238e+01 0.000000e+00
      vertex -4.471202e+00 -6.084228e+00 0.000000e+00
      vertex -1.679733e+00 -7.949433e+00 0.000000e+00
    endloop
  endfacet
  facet normal 6.123234e-17 0.000000e+00 -1.000000e+00
    outer loop
      vertex -2.170258e+00 -1.124238e+01 0.000000e+00
      vertex -8.495307e+00 -1.124238e+01 0.000000e+00
      vertex -1.679733e+00 -7.949433e+00 0.000000e+00
    endloop
  endfacet
  facet normal 6.123234e-17 0.000000e+00 -1.000000e+00
    outer loop
      vertex -2.170272e+00 1.124242e+01 0.000000e+00
      vertex -4.471202e+00 6.084237e+00 0.000000e+00
      vertex -8.495321e+00 1.124242e+01 0.000000e+00
    endloop
  endfacet
  facet normal 9.701424e-01 -2.425362e-01 1.302322e-06
    outer loop
      vertex 9.754696e+00 -1.375758e+01 2.220078e+00
      vertex 9.504695e+00 -1.475759e+01 2.220078e+00
      vertex 9.754696e+00 -1.375760e+01 0.000000e+00
    endloop
  endfacet
  facet normal 9.701422e-01 -2.425367e-01 1.041860e-06
    outer loop
      vertex 9.504695e+00 -1.475759e+01 2.220078e+00
      vertex 9.504695e+00 -1.475760e+01 0.000000e+00
      vertex 9.754696e+00 -1.375760e+01 0.000000e+00
    endloop
  endfacet
  facet normal 1.000000e+00 0.000000e+00 6.123234e-17
    outer loop
      vertex 1.150467e+01 8.727263e+00 2.220097e+00
      vertex 1.150467e+01 8.727257e+00 1.907349e-05
      vertex 1.150467e+01 1.124243e+01 1.907349e-05
    endloop
  endfacet
  facet normal 1.000000e+00 0.000000e+00 6.123234e-17
    outer loop
      vertex 1.150467e+01 8.727263e+00 2.220097e+00
      vertex 1.150467e+01 1.124243e+01 1.907349e-05
      vertex 1.150467e+01 1.124244e+01 2.220097e+00
    endloop
  endfacet
  facet normal 1.000000e+00 5.463792e-07 -1.466858e-12
    outer loop
      vertex 1.150467e+01 8.727263e+00 2.220097e+00
      vertex 1.150468e+01 -8.727179e+00 2.220078e+00
      vertex 1.150467e+01 8.727257e+00 1.907349e-05
    endloop
  endfacet
  facet normal 1.000000e+00 5.463789e-07 -3.520542e-12
    outer loop
      vertex 1.150468e+01 -8.727179e+00 2.220078e+00
      vertex 1.150468e+01 -8.727193e+00 0.000000e+00
      vertex 1.150467e+01 8.727257e+00 1.907349e-05
    endloop
  endfacet
  facet normal 1.000000e+00 0.000000e+00 6.123234e-17
    outer loop
      vertex 1.150468e+01 -8.727193e+00 0.000000e+00
      vertex 1.150468e+01 -8.727179e+00 2.220078e+00
      vertex 1.150468e+01 -1.124237e+01 2.220078e+00
    endloop
  endfacet
  facet normal 1.000000e+00 5.687555e-06 6.443551e-06
    outer loop
      vertex 1.150468e+01 -8.727193e+00 0.000000e+00
      vertex 1.150468e+01 -1.124237e+01 2.220078e+00
      vertex 1.150470e+01 -1.124238e+01 1.907349e-05
    endloop
  endfacet
  facet normal 9.701428e-01 2.425343e-01 1.041841e-06
    outer loop
      vertex 9.754672e+00 1.375759e+01 0.000000e+00
      vertex 9.504671e+00 1.475760e+01 0.000000e+00
      vertex 9.504671e+00 1.475760e+01 2.220097e+00
    endloop
  endfacet
  facet normal 9.701423e-01 2.425365e-01 5.940408e-17
    outer loop
      vertex 9.754672e+00 1.375759e+01 0.000000e+00
      vertex 9.504671e+00 1.475760e+01 2.220097e+00
      vertex 9.754672e+00 1.375759e+01 2.220097e+00
    endloop
  endfacet
  facet normal -9.701422e-01 -2.425367e-01 -5.940407e-17
    outer loop
      vertex -2.420254e+00 -1.375760e+01 0.000000e+00
      vertex -2.170253e+00 -1.475760e+01 0.000000e+00
      vertex -2.420254e+00 -1.375760e+01 2.220078e+00
    endloop
  endfacet
  facet normal -9.701428e-01 -2.425345e-01 -1.041851e-06
    outer loop
      vertex -2.170253e+00 -1.475760e+01 0.000000e+00
      vertex -2.170253e+00 -1.475760e+01 2.220078e+00
      vertex -2.420254e+00 -1.375760e+01 2.220078e+00
    endloop
  endfacet
  facet normal -3.600545e-03 -8.356520e-03 9.999586e-01
    outer loop
      vertex 9.504685e+00 8.727263e+00 2.199078e+00
      vertex 9.504671e+00 1.124244e+01 2.220097e+00
      vertex -2.170269e+00 1.124243e+01 2.178059e+00
    endloop
  endfacet
  facet normal -1.338723e-08 8.356524e-03 9.999651e-01
    outer loop
      vertex 9.504685e+00 8.727263e+00 2.199078e+00
      vertex -2.170269e+00 1.124243e+01 2.178059e+00
      vertex -8.495321e+00 1.124242e+01 2.178059e+00
    endloop
  endfacet
  facet normal -2.139471e-07 -8.346826e-03 9.999651e-01
    outer loop
      vertex 9.504695e+00 -8.727179e+00 2.199059e+00
      vertex -8.495307e+00 -1.124254e+01 2.178059e+00
      vertex -2.170258e+00 -1.124271e+01 2.178059e+00
    endloop
  endfacet
  facet normal -3.599161e-03 8.356494e-03 9.999586e-01
    outer loop
      vertex 9.504695e+00 -8.727179e+00 2.199059e+00
      vertex -2.170258e+00 -1.124271e+01 2.178059e+00
      vertex 9.504685e+00 -1.124237e+01 2.220078e+00
    endloop
  endfacet
  facet normal -6.123234e-17 0.000000e+00 1.000000e+00
    outer loop
      vertex -1.679730e+00 7.949442e+00 2.178059e+00
      vertex 1.613033e+00 8.604412e+00 2.178059e+00
      vertex -8.495321e+00 1.124242e+01 2.178059e+00
    endloop
  endfacet
  facet normal -6.123234e-17 0.000000e+00 1.000000e+00
    outer loop
      vertex -1.679730e+00 -7.949433e+00 2.178059e+00
      vertex -8.495307e+00 -1.124254e+01 2.178059e+00
      vertex 1.613033e+00 -8.604398e+00 2.178059e+00
    endloop
  endfacet
  facet normal 9.316787e-21 -1.000000e+00 -1.521547e-04
    outer loop
      vertex -8.495307e+00 -1.124238e+01 0.000000e+00
      vertex -2.170258e+00 -1.124238e+01 0.000000e+00
      vertex -2.170258e+00 -1.124271e+01 2.178059e+00
    endloop
  endfacet
  facet normal -2.563215e-05 -1.000000e+00 -7.771930e-05
    outer loop
      vertex -8.495307e+00 -1.124238e+01 0.000000e+00
      vertex -2.170258e+00 -1.124271e+01 2.178059e+00
      vertex -8.495307e+00 -1.124254e+01 2.178059e+00
    endloop
  endfacet
  facet normal 0.000000e+00 1.000000e+00 0.000000e+00
    outer loop
      vertex -2.170272e+00 1.124242e+01 0.000000e+00
      vertex -8.495321e+00 1.124242e+01 0.000000e+00
      vertex -8.495321e+00 1.124242e+01 2.178059e+00
    endloop
  endfacet
  facet normal -1.602009e-06 1.000000e+00 -4.652210e-06
    outer loop
      vertex -2.170272e+00 1.124242e+01 0.000000e+00
      vertex -8.495321e+00 1.124242e+01 2.178059e+00
      vertex -2.170269e+00 1.124243e+01 2.178059e+00
    endloop
  endfacet
  facet normal -1.000000e+00 -1.895806e-06 -2.884559e-10
    outer loop
      vertex -2.170258e+00 -1.124271e+01 2.178059e+00
      vertex -2.170258e+00 -1.124238e+01 0.000000e+00
      vertex -2.170253e+00 -1.375760e+01 0.000000e+00
    endloop
  endfacet
  facet normal -1.000000e+00 -1.896056e-06 -6.123234e-17
    outer loop
      vertex -2.170258e+00 -1.124271e+01 2.178059e+00
      vertex -2.170253e+00 -1.375760e+01 0.000000e+00
      vertex -2.170253e+00 -1.375760e+01 2.220078e+00
    endloop
  endfacet
  facet normal 1.000000e+00 0.000000e+00 6.123234e-17
    outer loop
      vertex 9.504671e+00 1.124244e+01 2.220097e+00
      vertex 9.504671e+00 1.124243e+01 0.000000e+00
      vertex 9.504671e+00 1.375759e+01 0.000000e+00
    endloop
  endfacet
  facet normal 1.000000e+00 0.000000e+00 6.123234e-17
    outer loop
      vertex 9.504671e+00 1.124244e+01 2.220097e+00
      vertex 9.504671e+00 1.375759e+01 0.000000e+00
      vertex 9.504671e+00 1.375759e+01 2.220097e+00
    endloop
  endfacet
  facet normal 1.000000e+00 3.791627e-06 -2.035946e-11
    outer loop
      vertex 9.504695e+00 -1.375758e+01 2.220078e+00
      vertex 9.504695e+00 -1.375760e+01 0.000000e+00
      vertex 9.504685e+00 -1.124238e+01 0.000000e+00
    endloop
  endfacet
  facet normal 1.000000e+00 3.791617e-06 -3.257508e-11
    outer loop
      vertex 9.504695e+00 -1.375758e+01 2.220078e+00
      vertex 9.504685e+00 -1.124238e+01 0.000000e+00
      vertex 9.504685e+00 -1.124237e+01 2.220078e+00
    endloop
  endfacet
  facet normal -1.000000e+00 -9.479301e-07 1.094642e-06
    outer loop
      vertex -2.170272e+00 1.124242e+01 0.000000e+00
      vertex -2.170269e+00 1.124243e+01 2.178059e+00
      vertex -2.170272e+00 1.375758e+01 2.178059e+00
    endloop
  endfacet
  facet normal -1.000000e+00 0.000000e+00 -6.123234e-17
    outer loop
      vertex -2.170272e+00 1.124242e+01 0.000000e+00
      vertex -2.170272e+00 1.375758e+01 2.178059e+00
      vertex -2.170272e+00 1.375759e+01 0.000000e+00
    endloop
  endfacet
  facet normal -2.051926e-02 4.081524e-03 9.997811e-01
    outer loop
      vertex 9.562464e+00 -3.292766e+00 2.178059e+00
      vertex 9.504695e+00 -8.727179e+00 2.199059e+00
      vertex 1.021743e+01 -4.768372e-06 2.178059e+00
    endloop
  endfacet
  facet normal -8.030194e-03 -1.597307e-03 9.999664e-01
    outer loop
      vertex -6.336403e+00 -3.292756e+00 2.178059e+00
      vertex -6.991374e+00 4.768372e-06 2.178059e+00
      vertex -8.495307e+00 -5.108232e+00 2.157822e+00
    endloop
  endfacet
  facet normal -1.344846e-02 -1.872850e-06 9.999095e-01
    outer loop
      vertex -6.991374e+00 4.768372e-06 2.178059e+00
      vertex -8.495312e+00 5.109288e+00 2.157841e+00
      vertex -8.495307e+00 -5.108232e+00 2.157822e+00
    endloop
  endfacet
  facet normal 6.123234e-17 0.000000e+00 -1.000000e+00
    outer loop
      vertex 1.613033e+00 8.604412e+00 0.000000e+00
      vertex -2.170272e+00 1.124242e+01 0.000000e+00
      vertex 4.905796e+00 7.949442e+00 0.000000e+00
    endloop
  endfacet
  facet normal 6.123234e-17 0.000000e+00 -1.000000e+00
    outer loop
      vertex -2.170272e+00 1.124242e+01 0.000000e+00
      vertex 9.504671e+00 1.124243e+01 0.000000e+00
      vertex 4.905796e+00 7.949442e+00 0.000000e+00
    endloop
  endfacet
  facet normal 2.456987e-06 3.677134e-06 -1.000000e+00
    outer loop
      vertex 1.150467e+01 8.727257e+00 1.907349e-05
      vertex 7.697268e+00 6.084237e+00 0.000000e+00
      vertex 4.905796e+00 7.949442e+00 0.000000e+00
    endloop
  endfacet
  facet normal 3.459975e-06 -4.832075e-06 -1.000000e+00
    outer loop
      vertex 1.150467e+01 8.727257e+00 1.907349e-05
      vertex 4.905796e+00 7.949442e+00 0.000000e+00
      vertex 9.504671e+00 1.124243e+01 0.000000e+00
    endloop
  endfacet
  facet normal 6.123234e-17 0.000000e+00 -1.000000e+00
    outer loop
      vertex 9.504685e+00 -1.124238e+01 0.000000e+00
      vertex -2.170258e+00 -1.124238e+01 0.000000e+00
      vertex 4.905796e+00 -7.949433e+00 0.000000e+00
    endloop
  endfacet
  facet normal 6.123234e-17 0.000000e+00 -1.000000e+00
    outer loop
      vertex -2.170258e+00 -1.124238e+01 0.000000e+00
      vertex 1.613033e+00 -8.604398e+00 0.000000e+00
      vertex 4.905796e+00 -7.949433e+00 0.000000e+00
    endloop
  endfacet
  facet normal 9.536720e-06 -7.583287e-06 -1.000000e+00
    outer loop
      vertex 1.150470e+01 -1.124238e+01 1.907349e-05
      vertex 9.504685e+00 -1.124238e+01 0.000000e+00
      vertex 1.150468e+01 -8.727193e+00 0.000000e+00
    endloop
  endfacet
  facet normal 6.123234e-17 0.000000e+00 -1.000000e+00
    outer loop
      vertex 9.504685e+00 -1.124238e+01 0.000000e+00
      vertex 7.697268e+00 -6.084228e+00 0.000000e+00
      vertex 1.150468e+01 -8.727193e+00 0.000000e+00
    endloop
  endfacet
  facet normal 6.123234e-17 0.000000e+00 -1.000000e+00
    outer loop
      vertex -2.170277e+00 1.475760e+01 0.000000e+00
      vertex 9.504671e+00 1.475760e+01 0.000000e+00
      vertex 9.504671e+00 1.375759e+01 0.000000e+00
    endloop
  endfacet
  facet normal 6.123234e-17 0.000000e+00 -1.000000e+00
    outer loop
      vertex -2.170277e+00 1.475760e+01 0.000000e+00
      vertex 9.504671e+00 1.375759e+01 0.000000e+00
      vertex -2.170272e+00 1.375759e+01 0.000000e+00
    endloop
  endfacet
  facet normal 6.123234e-17 0.000000e+00 -1.000000e+00
    outer loop
      vertex -2.170258e+00 -1.124238e+01 0.000000e+00
      vertex 9.504685e+00 -1.124238e+01 0.000000e+00
      vertex -2.170253e+00 -1.375760e+01 0.000000e+00
    endloop
  endfacet
  facet normal 6.123234e-17 0.000000e+00 -1.000000e+00
    outer loop
      vertex 9.504685e+00 -1.124238e+01 0.000000e+00
      vertex 9.504695e+00 -1.375760e+01 0.000000e+00
      vertex -2.170253e+00 -1.375760e+01 0.000000e+00
    endloop
  endfacet
  facet normal 6.123234e-17 0.000000e+00 -1.000000e+00
    outer loop
      vertex -2.170272e+00 1.124242e+01 0.000000e+00
      vertex -2.170272e+00 1.375759e+01 0.000000e+00
      vertex 9.504671e+00 1.124243e+01 0.000000e+00
    endloop
  endfacet
  facet normal 6.123234e-17 0.000000e+00 -1.000000e+00
    outer loop
      vertex -2.170272e+00 1.375759e+01 0.000000e+00
      vertex 9.504671e+00 1.375759e+01 0.000000e+00
      vertex 9.504671e+00 1.124243e+01 0.000000e+00
    endloop
  endfacet
  facet normal 6.123234e-17 0.000000e+00 -1.000000e+00
    outer loop
      vertex 9.562464e+00 -3.292766e+00 0.000000e+00
      vertex 1.021745e+01 -4.768372e-06 0.000000e+00
      vertex 1.150468e+01 -8.727193e+00 0.000000e+00
    endloop
  endfacet
  facet normal 7.408694e-06 1.092762e-06 -1.000000e+00
    outer loop
      vertex 1.021745e+01 -4.768372e-06 0.000000e+00
      vertex 1.150467e+01 8.727257e+00 1.907349e-05
      vertex 1.150468e+01 -8.727193e+00 0.000000e+00
    endloop
  endfacet
  facet normal 3.287932e-22 1.000000e+00 -5.369600e-06
    outer loop
      vertex 9.504695e+00 -1.375758e+01 2.220078e+00
      vertex 9.754696e+00 -1.375758e+01 2.220078e+00
      vertex 9.754696e+00 -1.375760e+01 0.000000e+00
    endloop
  endfacet
  facet normal 3.287932e-22 1.000000e+00 -5.369600e-06
    outer loop
      vertex 9.504695e+00 -1.375758e+01 2.220078e+00
      vertex 9.754696e+00 -1.375760e+01 0.000000e+00
      vertex 9.504695e+00 -1.375760e+01 0.000000e+00
    endloop
  endfacet
  facet normal -8.168553e-07 1.000000e+00 4.925871e-06
    outer loop
      vertex 9.504671e+00 1.475760e+01 0.000000e+00
      vertex -2.170277e+00 1.475760e+01 0.000000e+00
      vertex -2.170277e+00 1.475758e+01 2.178059e+00
    endloop
  endfacet
  facet normal -9.344295e-07 1.000000e+00 4.295644e-06
    outer loop
      vertex 9.504671e+00 1.475760e+01 0.000000e+00
      vertex -2.170277e+00 1.475758e+01 2.178059e+00
      vertex 9.504671e+00 1.475760e+01 2.220097e+00
    endloop
  endfacet
  facet normal -3.600675e-03 0.000000e+00 9.999935e-01
    outer loop
      vertex 9.504671e+00 1.375759e+01 2.220097e+00
      vertex 9.504671e+00 1.475760e+01 2.220097e+00
      vertex -2.170277e+00 1.475758e+01 2.178059e+00
    endloop
  endfacet
  facet normal -3.600676e-03 -1.716936e-08 9.999935e-01
    outer loop
      vertex 9.504671e+00 1.375759e+01 2.220097e+00
      vertex -2.170277e+00 1.475758e+01 2.178059e+00
      vertex -2.170272e+00 1.375758e+01 2.178059e+00
    endloop
  endfacet
  facet normal 4.768301e-06 -1.000000e+00 4.295748e-06
    outer loop
      vertex 9.504685e+00 -1.124238e+01 0.000000e+00
      vertex 1.150470e+01 -1.124238e+01 1.907349e-05
      vertex 1.150468e+01 -1.124237e+01 2.220078e+00
    endloop
  endfacet
  facet normal -5.260691e-22 -1.000000e+00 8.591361e-06
    outer loop
      vertex 9.504685e+00 -1.124238e+01 0.000000e+00
      vertex 1.150468e+01 -1.124237e+01 2.220078e+00
      vertex 9.504685e+00 -1.124237e+01 2.220078e+00
    endloop
  endfacet
  facet normal -6.123234e-17 0.000000e+00 1.000000e+00
    outer loop
      vertex -2.170253e+00 -1.375760e+01 2.220078e+00
      vertex -2.170253e+00 -1.475760e+01 2.220078e+00
      vertex 9.504695e+00 -1.475759e+01 2.220078e+00
    endloop
  endfacet
  facet normal -6.123234e-17 0.000000e+00 1.000000e+00
    outer loop
      vertex 9.504695e+00 -1.375758e+01 2.220078e+00
      vertex -2.170253e+00 -1.375760e+01 2.220078e+00
      vertex 9.504695e+00 -1.475759e+01 2.220078e+00
    endloop
  endfacet
  facet normal -6.123234e-17 0.000000e+00 1.000000e+00
    outer loop
      vertex -2.170253e+00 -1.375760e+01 2.220078e+00
      vertex 9.504695e+00 -1.375758e+01 2.220078e+00
      vertex 9.504685e+00 -1.124237e+01 2.220078e+00
    endloop
  endfacet
  facet normal -3.599028e-03 1.670560e-02 9.998539e-01
    outer loop
      vertex -2.170253e+00 -1.375760e+01 2.220078e+00
      vertex 9.504685e+00 -1.124237e+01 2.220078e+00
      vertex -2.170258e+00 -1.124271e+01 2.178059e+00
    endloop
  endfacet
  facet normal 2.630346e-22 1.000000e+00 -4.295680e-06
    outer loop
      vertex 9.504671e+00 1.124244e+01 2.220097e+00
      vertex 1.150467e+01 1.124244e+01 2.220097e+00
      vertex 1.150467e+01 1.124243e+01 1.907349e-05
    endloop
  endfacet
  facet normal 4.096639e-11 1.000000e+00 -4.295644e-06
    outer loop
      vertex 9.504671e+00 1.124244e+01 2.220097e+00
      vertex 1.150467e+01 1.124243e+01 1.907349e-05
      vertex 9.504671e+00 1.124243e+01 0.000000e+00
    endloop
  endfacet
  facet normal 0.000000e+00 1.000000e+00 0.000000e+00
    outer loop
      vertex -2.170253e+00 -1.375760e+01 0.000000e+00
      vertex -2.420254e+00 -1.375760e+01 0.000000e+00
      vertex -2.420254e+00 -1.375760e+01 2.220078e+00
    endloop
  endfacet
  facet normal 0.000000e+00 1.000000e+00 0.000000e+00
    outer loop
      vertex -2.170253e+00 -1.375760e+01 0.000000e+00
      vertex -2.420254e+00 -1.375760e+01 2.220078e+00
      vertex -2.170253e+00 -1.375760e+01 2.220078e+00
    endloop
  endfacet
  facet normal -1.050860e-02 -8.356152e-03 9.999098e-01
    outer loop
      vertex 9.504685e+00 8.727263e+00 2.199078e+00
      vertex 1.150467e+01 8.727263e+00 2.220097e+00
      vertex 9.504671e+00 1.124244e+01 2.220097e+00
    endloop
  endfacet
  facet normal -6.123234e-17 0.000000e+00 1.000000e+00
    outer loop
      vertex 1.150467e+01 8.727263e+00 2.220097e+00
      vertex 1.150467e+01 1.124244e+01 2.220097e+00
      vertex 9.504671e+00 1.124244e+01 2.220097e+00
    endloop
  endfacet
  facet normal 0.000000e+00 -1.000000e+00 0.000000e+00
    outer loop
      vertex 9.504671e+00 1.375759e+01 0.000000e+00
      vertex 9.754672e+00 1.375759e+01 0.000000e+00
      vertex 9.754672e+00 1.375759e+01 2.220097e+00
    endloop
  endfacet
  facet normal 0.000000e+00 -1.000000e+00 0.000000e+00
    outer loop
      vertex 9.504671e+00 1.375759e+01 0.000000e+00
      vertex 9.754672e+00 1.375759e+01 2.220097e+00
      vertex 9.504671e+00 1.375759e+01 2.220097e+00
    endloop
  endfacet
  facet normal 3.016226e-22 -1.000000e+00 -4.925871e-06
    outer loop
      vertex -2.170272e+00 1.375758e+01 2.178059e+00
      vertex -2.420273e+00 1.375758e+01 2.178059e+00
      vertex -2.420273e+00 1.375759e+01 0.000000e+00
    endloop
  endfacet
  facet normal 3.016226e-22 -1.000000e+00 -4.925871e-06
    outer loop
      vertex -2.170272e+00 1.375758e+01 2.178059e+00
      vertex -2.420273e+00 1.375759e+01 0.000000e+00
      vertex -2.170272e+00 1.375759e+01 0.000000e+00
    endloop
  endfacet
  facet normal 1.633711e-06 -1.000000e+00 -4.295680e-06
    outer loop
      vertex 9.504695e+00 -1.475759e+01 2.220078e+00
      vertex -2.170253e+00 -1.475760e+01 2.220078e+00
      vertex -2.170253e+00 -1.475760e+01 0.000000e+00
    endloop
  endfacet
  facet normal -2.630346e-22 -1.000000e+00 4.295680e-06
    outer loop
      vertex 9.504695e+00 -1.475759e+01 2.220078e+00
      vertex -2.170253e+00 -1.475760e+01 0.000000e+00
      vertex 9.504695e+00 -1.475760e+01 0.000000e+00
    endloop
  endfacet
  facet normal -3.600677e-03 -3.413191e-09 9.999935e-01
    outer loop
      vertex -2.170269e+00 1.124243e+01 2.178059e+00
      vertex 9.504671e+00 1.124244e+01 2.220097e+00
      vertex -2.170272e+00 1.375758e+01 2.178059e+00
    endloop
  endfacet
  facet normal -3.600676e-03 0.000000e+00 9.999935e-01
    outer loop
      vertex 9.504671e+00 1.124244e+01 2.220097e+00
      vertex 9.504671e+00 1.375759e+01 2.220097e+00
      vertex -2.170272e+00 1.375758e+01 2.178059e+00
    endloop
  endfacet
  facet normal -6.123234e-17 0.000000e+00 1.000000e+00
    outer loop
      vertex 1.150468e+01 -1.124237e+01 2.220078e+00
      vertex 1.150468e+01 -8.727179e+00 2.220078e+00
      vertex 9.504685e+00 -1.124237e+01 2.220078e+00
    endloop
  endfacet
  facet normal -1.050860e-02 8.356112e-03 9.999098e-01
    outer loop
      vertex 1.150468e+01 -8.727179e+00 2.220078e+00
      vertex 9.504695e+00 -8.727179e+00 2.199059e+00
      vertex 9.504685e+00 -1.124237e+01 2.220078e+00
    endloop
  endfacet
  facet normal -1.050897e-02 -1.098440e-06 9.999447e-01
    outer loop
      vertex 9.504695e+00 -8.727179e+00 2.199059e+00
      vertex 1.150468e+01 -8.727179e+00 2.220078e+00
      vertex 1.150467e+01 8.727263e+00 2.220097e+00
    endloop
  endfacet
  facet normal 6.123234e-17 0.000000e+00 -1.000000e+00
    outer loop
      vertex 9.504695e+00 -1.375760e+01 0.000000e+00
      vertex 9.504695e+00 -1.475760e+01 0.000000e+00
      vertex -2.170253e+00 -1.475760e+01 0.000000e+00
    endloop
  endfacet
  facet normal 6.123234e-17 0.000000e+00 -1.000000e+00
    outer loop
      vertex 9.504695e+00 -1.375760e+01 0.000000e+00
      vertex -2.170253e+00 -1.475760e+01 0.000000e+00
      vertex -2.170253e+00 -1.375760e+01 0.000000e+00
    endloop
  endfacet
  facet normal -5.555711e-01 8.314691e-01 -3.401892e-17
    outer loop
      vertex 4.905796e+00 -7.949433e+00 0.000000e+00
      vertex 4.905796e+00 -7.949433e+00 2.178059e+00
      vertex 7.697268e+00 -6.084228e+00 0.000000e+00
    endloop
  endfacet
  facet normal -5.555711e-01 8.314691e-01 -3.401892e-17
    outer loop
      vertex 4.905796e+00 -7.949433e+00 2.178059e+00
      vertex 7.697268e+00 -6.084228e+00 2.178059e+00
      vertex 7.697268e+00 -6.084228e+00 0.000000e+00
    endloop
  endfacet
  facet normal -1.950884e-01 9.807857e-01 -1.194572e-17
    outer loop
      vertex 1.613033e+00 -8.604398e+00 0.000000e+00
      vertex 1.613033e+00 -8.604398e+00 2.178059e+00
      vertex 4.905796e+00 -7.949433e+00 0.000000e+00
    endloop
  endfacet
  facet normal -1.950884e-01 9.807857e-01 -1.194572e-17
    outer loop
      vertex 1.613033e+00 -8.604398e+00 2.178059e+00
      vertex 4.905796e+00 -7.949433e+00 2.178059e+00
      vertex 4.905796e+00 -7.949433e+00 0.000000e+00
    endloop
  endfacet
  facet normal 1.950884e-01 9.807857e-01 -2.135511e-07
    outer loop
      vertex -1.679733e+00 -7.949433e+00 0.000000e+00
      vertex -1.679730e+00 -7.949433e+00 2.178059e+00
      vertex 1.613033e+00 -8.604398e+00 2.178059e+00
    endloop
  endfacet
  facet normal 1.950882e-01 9.807857e-01 1.194571e-17
    outer loop
      vertex -1.679733e+00 -7.949433e+00 0.000000e+00
      vertex 1.613033e+00 -8.604398e+00 2.178059e+00
      vertex 1.613033e+00 -8.604398e+00 0.000000e+00
    endloop
  endfacet
  facet normal 5.555715e-01 8.314688e-01 -6.081496e-07
    outer loop
      vertex -4.471202e+00 -6.084228e+00 0.000000e+00
      vertex -4.471200e+00 -6.084228e+00 2.178059e+00
      vertex -1.679730e+00 -7.949433e+00 2.178059e+00
    endloop
  endfacet
  facet normal 5.555715e-01 8.314688e-01 -6.081496e-07
    outer loop
      vertex -4.471202e+00 -6.084228e+00 0.000000e+00
      vertex -1.679730e+00 -7.949433e+00 2.178059e+00
      vertex -1.679733e+00 -7.949433e+00 0.000000e+00
    endloop
  endfacet
  facet normal 8.314697e-01 5.555701e-01 5.091283e-17
    outer loop
      vertex -6.336403e+00 -3.292756e+00 0.000000e+00
      vertex -6.336403e+00 -3.292756e+00 2.178059e+00
      vertex -4.471202e+00 -6.084228e+00 0.000000e+00
    endloop
  endfacet
  facet normal 8.314694e-01 5.555706e-01 -9.101580e-07
    outer loop
      vertex -6.336403e+00 -3.292756e+00 2.178059e+00
      vertex -4.471200e+00 -6.084228e+00 2.178059e+00
      vertex -4.471202e+00 -6.084228e+00 0.000000e+00
    endloop
  endfacet
  facet normal 9.807852e-01 1.950905e-01 6.005577e-17
    outer loop
      vertex -6.991374e+00 4.768372e-06 0.000000e+00
      vertex -6.991374e+00 4.768372e-06 2.178059e+00
      vertex -6.336403e+00 -3.292756e+00 2.178059e+00
    endloop
  endfacet
  facet normal 9.807852e-01 1.950905e-01 6.005577e-17
    outer loop
      vertex -6.991374e+00 4.768372e-06 0.000000e+00
      vertex -6.336403e+00 -3.292756e+00 2.178059e+00
      vertex -6.336403e+00 -3.292756e+00 0.000000e+00
    endloop
  endfacet
  facet normal 9.807852e-01 -1.950906e-01 6.005577e-17
    outer loop
      vertex -6.336403e+00 3.292764e+00 0.000000e+00
      vertex -6.336403e+00 3.292764e+00 2.178059e+00
      vertex -6.991374e+00 4.768372e-06 2.178059e+00
    endloop
  endfacet
  facet normal 9.807852e-01 -1.950906e-01 6.005577e-17
    outer loop
      vertex -6.336403e+00 3.292764e+00 0.000000e+00
      vertex -6.991374e+00 4.768372e-06 2.178059e+00
      vertex -6.991374e+00 4.768372e-06 0.000000e+00
    endloop
  endfacet
  facet normal 8.314695e-01 -5.555705e-01 -9.101582e-07
    outer loop
      vertex -4.471202e+00 6.084237e+00 0.000000e+00
      vertex -4.471200e+00 6.084237e+00 2.178059e+00
      vertex -6.336403e+00 3.292764e+00 2.178059e+00
    endloop
  endfacet
  facet normal 8.314698e-01 -5.555699e-01 5.091284e-17
    outer loop
      vertex -4.471202e+00 6.084237e+00 0.000000e+00
      vertex -6.336403e+00 3.292764e+00 2.178059e+00
      vertex -6.336403e+00 3.292764e+00 0.000000e+00
    endloop
  endfacet
  facet normal 5.555712e-01 -8.314690e-01 1.365236e-06
    outer loop
      vertex -1.679730e+00 7.949438e+00 0.000000e+00
      vertex -1.679730e+00 7.949442e+00 2.178059e+00
      vertex -4.471200e+00 6.084237e+00 2.178059e+00
    endloop
  endfacet
  facet normal 5.555701e-01 -8.314697e-01 -6.081481e-07
    outer loop
      vertex -1.679730e+00 7.949438e+00 0.000000e+00
      vertex -4.471200e+00 6.084237e+00 2.178059e+00
      vertex -4.471202e+00 6.084237e+00 0.000000e+00
    endloop
  endfacet
  facet normal 1.950901e-01 -9.807853e-01 1.194582e-17
    outer loop
      vertex 1.613033e+00 8.604412e+00 0.000000e+00
      vertex 1.613033e+00 8.604412e+00 2.178059e+00
      vertex -1.679730e+00 7.949442e+00 2.178059e+00
    endloop
  endfacet
  facet normal 1.950911e-01 -9.807851e-01 1.610407e-06
    outer loop
      vertex 1.613033e+00 8.604412e+00 0.000000e+00
      vertex -1.679730e+00 7.949442e+00 2.178059e+00
      vertex -1.679730e+00 7.949438e+00 0.000000e+00
    endloop
  endfacet
  facet normal -1.950901e-01 -9.807853e-01 -1.194582e-17
    outer loop
      vertex 4.905796e+00 7.949442e+00 0.000000e+00
      vertex 4.905796e+00 7.949442e+00 2.178059e+00
      vertex 1.613033e+00 8.604412e+00 2.178059e+00
    endloop
  endfacet
  facet normal -1.950901e-01 -9.807853e-01 -1.194582e-17
    outer loop
      vertex 4.905796e+00 7.949442e+00 0.000000e+00
      vertex 1.613033e+00 8.604412e+00 2.178059e+00
      vertex 1.613033e+00 8.604412e+00 0.000000e+00
    endloop
  endfacet
  facet normal -5.555708e-01 -8.314692e-01 -3.401890e-17
    outer loop
      vertex 7.697268e+00 6.084237e+00 0.000000e+00
      vertex 7.697268e+00 6.084237e+00 2.178059e+00
      vertex 4.905796e+00 7.949442e+00 2.178059e+00
    endloop
  endfacet
  facet normal -5.555708e-01 -8.314692e-01 -3.401890e-17
    outer loop
      vertex 7.697268e+00 6.084237e+00 0.000000e+00
      vertex 4.905796e+00 7.949442e+00 2.178059e+00
      vertex 4.905796e+00 7.949442e+00 0.000000e+00
    endloop
  endfacet
  facet normal -8.314705e-01 -5.555689e-01 -3.640637e-06
    outer loop
      vertex 9.562473e+00 3.292764e+00 0.000000e+00
      vertex 9.562464e+00 3.292764e+00 2.178059e+00
      vertex 7.697268e+00 6.084237e+00 2.178059e+00
    endloop
  endfacet
  facet normal -8.314692e-01 -5.555709e-01 -5.091280e-17
    outer loop
      vertex 9.562473e+00 3.292764e+00 0.000000e+00
      vertex 7.697268e+00 6.084237e+00 2.178059e+00
      vertex 7.697268e+00 6.084237e+00 0.000000e+00
    endloop
  endfacet
  facet normal -9.807855e-01 -1.950894e-01 -6.441630e-06
    outer loop
      vertex 1.021745e+01 -4.768372e-06 0.000000e+00
      vertex 1.021743e+01 -4.768372e-06 2.178059e+00
      vertex 9.562464e+00 3.292764e+00 2.178059e+00
    endloop
  endfacet
  facet normal -9.807852e-01 -1.950908e-01 -4.294419e-06
    outer loop
      vertex 1.021745e+01 -4.768372e-06 0.000000e+00
      vertex 9.562464e+00 3.292764e+00 2.178059e+00
      vertex 9.562473e+00 3.292764e+00 0.000000e+00
    endloop
  endfacet
  facet normal -9.807854e-01 1.950898e-01 -6.005579e-17
    outer loop
      vertex 9.562464e+00 -3.292766e+00 0.000000e+00
      vertex 9.562464e+00 -3.292766e+00 2.178059e+00
      vertex 1.021743e+01 -4.768372e-06 2.178059e+00
    endloop
  endfacet
  facet normal -9.807845e-01 1.950939e-01 -6.441624e-06
    outer loop
      vertex 9.562464e+00 -3.292766e+00 0.000000e+00
      vertex 1.021743e+01 -4.768372e-06 2.178059e+00
      vertex 1.021745e+01 -4.768372e-06 0.000000e+00
    endloop
  endfacet
  facet normal -8.314695e-01 5.555705e-01 -5.091282e-17
    outer loop
      vertex 7.697268e+00 -6.084228e+00 0.000000e+00
      vertex 7.697268e+00 -6.084228e+00 2.178059e+00
      vertex 9.562464e+00 -3.292766e+00 2.178059e+00
    endloop
  endfacet
  facet normal -8.314695e-01 5.555705e-01 -5.091282e-17
    outer loop
      vertex 7.697268e+00 -6.084228e+00 0.000000e+00
      vertex 9.562464e+00 -3.292766e+00 2.178059e+00
      vertex 9.562464e+00 -3.292766e+00 0.000000e+00
    endloop
  endfacet
  facet normal 6.309058e-06 1.254953e-06 -1.000000e+00
    outer loop
      vertex 1.021745e+01 -4.768372e-06 0.000000e+00
      vertex 9.562473e+00 3.292764e+00 0.000000e+00
      vertex 1.150467e+01 8.727257e+00 1.907349e-05
    endloop
  endfacet
  facet normal 3.422223e-06 2.286661e-06 -1.000000e+00
    outer loop
      vertex 9.562473e+00 3.292764e+00 0.000000e+00
      vertex 7.697268e+00 6.084237e+00 0.000000e+00
      vertex 1.150467e+01 8.727257e+00 1.907349e-05
    endloop
  endfacet
  facet normal -5.994468e-03 4.005378e-03 9.999740e-01
    outer loop
      vertex -6.336403e+00 3.292764e+00 2.178059e+00
      vertex -4.471200e+00 6.084237e+00 2.178059e+00
      vertex -8.495312e+00 5.109288e+00 2.157841e+00
    endloop
  endfacet
  facet normal -7.881424e-03 1.179536e-02 9.998993e-01
    outer loop
      vertex -4.471200e+00 6.084237e+00 2.178059e+00
      vertex -1.679730e+00 7.949442e+00 2.178059e+00
      vertex -8.495312e+00 5.109288e+00 2.157841e+00
    endloop
  endfacet
  facet normal -7.893685e-03 -1.181370e-02 9.998990e-01
    outer loop
      vertex -1.679730e+00 -7.949433e+00 2.178059e+00
      vertex -4.471200e+00 -6.084228e+00 2.178059e+00
      vertex -8.495307e+00 -5.108232e+00 2.157822e+00
    endloop
  endfacet
  facet normal -6.001375e-03 -4.009994e-03 9.999739e-01
    outer loop
      vertex -4.471200e+00 -6.084228e+00 2.178059e+00
      vertex -6.336403e+00 -3.292756e+00 2.178059e+00
      vertex -8.495307e+00 -5.108232e+00 2.157822e+00
    endloop
  endfacet
  facet normal 6.123234e-17 0.000000e+00 -1.000000e+00
    outer loop
      vertex 1.613033e+00 8.604412e+00 0.000000e+00
      vertex -1.679730e+00 7.949438e+00 0.000000e+00
      vertex -2.170272e+00 1.124242e+01 0.000000e+00
    endloop
  endfacet
  facet normal 6.123234e-17 0.000000e+00 -1.000000e+00
    outer loop
      vertex -1.679730e+00 7.949438e+00 0.000000e+00
      vertex -4.471202e+00 6.084237e+00 0.000000e+00
      vertex -2.170272e+00 1.124242e+01 0.000000e+00
    endloop
  endfacet
  facet normal -1.050891e-02 -3.266534e-03 9.999394e-01
    outer loop
      vertex 9.504685e+00 8.727263e+00 2.199078e+00
      vertex 1.021743e+01 -4.768372e-06 2.178059e+00
      vertex 1.150467e+01 8.727263e+00 2.220097e+00
    endloop
  endfacet
  facet normal -1.090662e-01 1.129906e-02 9.939702e-01
    outer loop
      vertex 1.021743e+01 -4.768372e-06 2.178059e+00
      vertex 9.504695e+00 -8.727179e+00 2.199059e+00
      vertex 1.150467e+01 8.727263e+00 2.220097e+00
    endloop
  endfacet
  facet normal -1.309747e-03 -2.710823e-03 9.999954e-01
    outer loop
      vertex -8.495321e+00 1.124242e+01 2.178059e+00
      vertex -8.495317e+00 7.513334e+00 2.167950e+00
      vertex -1.679730e+00 7.949442e+00 2.178059e+00
    endloop
  endfacet
  facet normal -1.214135e-03 -4.204935e-03 9.999904e-01
    outer loop
      vertex -8.495317e+00 7.513334e+00 2.167950e+00
      vertex -8.495312e+00 5.109288e+00 2.157841e+00
      vertex -1.679730e+00 7.949442e+00 2.178059e+00
    endloop
  endfacet
  facet normal -1.213089e-03 4.212611e-03 9.999904e-01
    outer loop
      vertex -8.495307e+00 -5.108232e+00 2.157822e+00
      vertex -8.495307e+00 -7.512424e+00 2.167950e+00
      vertex -1.679730e+00 -7.949433e+00 2.178059e+00
    endloop
  endfacet
  facet normal -1.309438e-03 2.710074e-03 9.999954e-01
    outer loop
      vertex -8.495307e+00 -7.512424e+00 2.167950e+00
      vertex -8.495307e+00 -1.124254e+01 2.178059e+00
      vertex -1.679730e+00 -7.949433e+00 2.178059e+00
    endloop
  endfacet
  facet normal 0.000000e+00 1.000000e+00 0.000000e+00
    outer loop
      vertex -8.495307e+00 -7.512424e+00 2.167950e+00
      vertex -1.150468e+01 -7.512424e+00 1.717806e+01
      vertex -3.495307e+00 -7.512424e+00 1.717806e+01
    endloop
  endfacet
  facet normal 0.000000e+00 1.000000e+00 0.000000e+00
    outer loop
      vertex -3.495307e+00 -7.512424e+00 1.717806e+01
      vertex -3.495307e+00 -7.512424e+00 2.167950e+00
      vertex -8.495307e+00 -7.512424e+00 2.167950e+00
    endloop
  endfacet
  facet normal 0.000000e+00 -1.000000e+00 0.000000e+00
    outer loop
      vertex -1.150470e+01 7.513334e+00 1.717806e+01
      vertex -8.495317e+00 7.513334e+00 2.167950e+00
      vertex -3.495319e+00 7.513334e+00 2.167950e+00
    endloop
  endfacet
  facet normal 0.000000e+00 -1.000000e+00 0.000000e+00
    outer loop
      vertex -3.495319e+00 7.513334e+00 2.167950e+00
      vertex -3.495321e+00 7.513334e+00 1.717806e+01
      vertex -1.150470e+01 7.513334e+00 1.717806e+01
    endloop
  endfacet
  facet normal 6.123211e-17 2.710824e-03 -9.999963e-01
    outer loop
      vertex -8.495317e+00 7.513334e+00 2.167950e+00
      vertex -8.495321e+00 1.124242e+01 2.178059e+00
      vertex -3.495324e+00 1.124242e+01 2.178059e+00
    endloop
  endfacet
  facet normal 6.123211e-17 2.710824e-03 -9.999963e-01
    outer loop
      vertex -3.495324e+00 1.124242e+01 2.178059e+00
      vertex -3.495319e+00 7.513334e+00 2.167950e+00
      vertex -8.495317e+00 7.513334e+00 2.167950e+00
    endloop
  endfacet
  facet normal 6.123211e-17 -2.710076e-03 -9.999963e-01
    outer loop
      vertex -8.495307e+00 -1.124254e+01 2.178059e+00
      vertex -8.495307e+00 -7.512424e+00 2.167950e+00
      vertex -3.495307e+00 -7.512424e+00 2.167950e+00
    endloop
  endfacet
  facet normal 6.123211e-17 -2.710076e-03 -9.999963e-01
    outer loop
      vertex -3.495307e+00 -7.512424e+00 2.167950e+00
      vertex -3.495307e+00 -1.124254e+01 2.178059e+00
      vertex -8.495307e+00 -1.124254e+01 2.178059e+00
    endloop
  endfacet
  facet normal 1.000000e+00 0.000000e+00 6.123234e-17
    outer loop
      vertex -3.495307e+00 -1.124254e+01 2.178059e+00
      vertex -3.495307e+00 -7.512424e+00 2.167950e+00
      vertex -3.495307e+00 -7.512424e+00 1.717806e+01
    endloop
  endfacet
  facet normal 1.000000e+00 1.278265e-06 1.588387e-07
    outer loop
      vertex -3.495319e+00 7.513334e+00 2.167950e+00
      vertex -3.495324e+00 1.124242e+01 2.178059e+00
      vertex -3.495321e+00 7.513334e+00 1.717806e+01
    endloop
  endfacet
  facet normal 0.000000e+00 -1.000000e+00 0.000000e+00
    outer loop
      vertex -3.495307e+00 -1.124254e+01 2.178059e+00
      vertex -3.495307e+00 -1.124254e+01 5.949764e+00
      vertex -6.148427e+00 -1.124254e+01 5.949764e+00
    endloop
  endfacet
  facet normal 0.000000e+00 -1.000000e+00 0.000000e+00
    outer loop
      vertex -6.148427e+00 -1.124254e+01 5.949764e+00
      vertex -8.495307e+00 -1.124254e+01 2.178059e+00
      vertex -3.495307e+00 -1.124254e+01 2.178059e+00
    endloop
  endfacet
  facet normal 0.000000e+00 -1.000000e+00 0.000000e+00
    outer loop
      vertex -8.495307e+00 -1.124254e+01 2.178059e+00
      vertex -6.148427e+00 -1.124254e+01 5.949764e+00
      vertex -1.150469e+01 -1.124254e+01 1.717802e+01
    endloop
  endfacet
  facet normal -6.123234e-17 -1.022674e-05 1.000000e+00
    outer loop
      vertex -1.150469e+01 -1.124254e+01 1.717802e+01
      vertex -3.495307e+00 -7.512424e+00 1.717806e+01
      vertex -1.150468e+01 -7.512424e+00 1.717806e+01
    endloop
  endfacet
  facet normal -6.123234e-17 -1.022674e-05 1.000000e+00
    outer loop
      vertex -1.150469e+01 -1.124254e+01 1.717802e+01
      vertex -3.495309e+00 -1.124254e+01 1.717802e+01
      vertex -3.495307e+00 -7.512424e+00 1.717806e+01
    endloop
  endfacet
  facet normal -6.123234e-17 0.000000e+00 1.000000e+00
    outer loop
      vertex -1.150470e+01 1.124242e+01 1.717806e+01
      vertex -1.150470e+01 7.513334e+00 1.717806e+01
      vertex -3.495321e+00 7.513334e+00 1.717806e+01
    endloop
  endfacet
  facet normal -6.123234e-17 -0.000000e+00 1.000000e+00
    outer loop
      vertex -3.495321e+00 1.124242e+01 1.717806e+01
      vertex -1.150470e+01 1.124242e+01 1.717806e+01
      vertex -3.495321e+00 7.513334e+00 1.717806e+01
    endloop
  endfacet
  facet normal 0.000000e+00 1.000000e+00 0.000000e+00
    outer loop
      vertex -6.148427e+00 1.124242e+01 5.949764e+00
      vertex -8.495321e+00 1.124242e+01 2.178059e+00
      vertex -1.150470e+01 1.124242e+01 1.717806e+01
    endloop
  endfacet
  facet normal 0.000000e+00 1.000000e+00 0.000000e+00
    outer loop
      vertex -8.495321e+00 1.124242e+01 2.178059e+00
      vertex -6.148427e+00 1.124242e+01 5.949764e+00
      vertex -3.495321e+00 1.124242e+01 5.949764e+00
    endloop
  endfacet
  facet normal 0.000000e+00 1.000000e+00 0.000000e+00
    outer loop
      vertex -3.495321e+00 1.124242e+01 5.949764e+00
      vertex -3.495324e+00 1.124242e+01 2.178059e+00
      vertex -8.495321e+00 1.124242e+01 2.178059e+00
    endloop
  endfacet
  facet normal 1.000000e+00 -1.903326e-06 -6.321241e-07
    outer loop
      vertex -3.495324e+00 1.124242e+01 2.178059e+00
      vertex -3.495321e+00 1.124242e+01 5.949764e+00
      vertex -3.495321e+00 7.513334e+00 1.717806e+01
    endloop
  endfacet
  facet normal 1.000000e+00 0.000000e+00 6.123234e-17
    outer loop
      vertex -3.495321e+00 1.124242e+01 5.949764e+00
      vertex -3.495321e+00 1.124242e+01 1.717806e+01
      vertex -3.495321e+00 7.513334e+00 1.717806e+01
    endloop
  endfacet
  facet normal 1.000000e+00 -6.391734e-07 2.123380e-07
    outer loop
      vertex -3.495309e+00 -1.124254e+01 1.717802e+01
      vertex -3.495307e+00 -1.124254e+01 5.949764e+00
      vertex -3.495307e+00 -7.512424e+00 1.717806e+01
    endloop
  endfacet
  facet normal 1.000000e+00 0.000000e+00 6.123234e-17
    outer loop
      vertex -3.495307e+00 -1.124254e+01 5.949764e+00
      vertex -3.495307e+00 -1.124254e+01 2.178059e+00
      vertex -3.495307e+00 -7.512424e+00 1.717806e+01
    endloop
  endfacet
  facet normal 6.123234e-17 0.000000e+00 -1.000000e+00
    outer loop
      vertex -6.991374e+00 4.768372e-06 0.000000e+00
      vertex -8.495307e+00 -1.124238e+01 0.000000e+00
      vertex -8.495321e+00 1.124242e+01 0.000000e+00
    endloop
  endfacet
  facet normal 6.123234e-17 0.000000e+00 -1.000000e+00
    outer loop
      vertex -6.336403e+00 3.292764e+00 0.000000e+00
      vertex -6.991374e+00 4.768372e-06 0.000000e+00
      vertex -8.495321e+00 1.124242e+01 0.000000e+00
    endloop
  endfacet
  facet normal 6.123234e-17 0.000000e+00 -1.000000e+00
    outer loop
      vertex -4.471202e+00 6.084237e+00 0.000000e+00
      vertex -6.336403e+00 3.292764e+00 0.000000e+00
      vertex -8.495321e+00 1.124242e+01 0.000000e+00
    endloop
  endfacet
  facet normal 6.123234e-17 0.000000e+00 -1.000000e+00
    outer loop
      vertex -6.336403e+00 -3.292756e+00 0.000000e+00
      vertex -8.495307e+00 -1.124238e+01 0.000000e+00
      vertex -6.991374e+00 4.768372e-06 0.000000e+00
    endloop
  endfacet
  facet normal 6.123234e-17 0.000000e+00 -1.000000e+00
    outer loop
      vertex -4.471202e+00 -6.084228e+00 0.000000e+00
      vertex -8.495307e+00 -1.124238e+01 0.000000e+00
      vertex -6.336403e+00 -3.292756e+00 0.000000e+00
    endloop
  endfacet
  facet normal -1.000000e+00 0.000000e+00 -6.123234e-17
    outer loop
      vertex -8.495307e+00 -7.512424e+00 2.167950e+00
      vertex -8.495307e+00 -1.124238e+01 0.000000e+00
      vertex -8.495307e+00 -1.124254e+01 2.178059e+00
    endloop
  endfacet
  facet normal -1.000000e+00 -1.278695e-06 -6.123234e-17
    outer loop
      vertex -8.495321e+00 1.124242e+01 0.000000e+00
      vertex -8.495317e+00 7.513334e+00 2.167950e+00
      vertex -8.495321e+00 1.124242e+01 2.178059e+00
    endloop
  endfacet
  facet normal -1.000000e+00 0.000000e+00 -6.123234e-17
    outer loop
      vertex -8.495307e+00 -5.108232e+00 2.157822e+00
      vertex -8.495307e+00 -1.124238e+01 0.000000e+00
      vertex -8.495307e+00 -7.512424e+00 2.167950e+00
    endloop
  endfacet
  facet normal -1.000000e+00 -1.978417e-06 -1.203591e-06
    outer loop
      vertex -8.495321e+00 1.124242e+01 0.000000e+00
      vertex -8.495312e+00 5.109288e+00 2.157841e+00
      vertex -8.495317e+00 7.513334e+00 2.167950e+00
    endloop
  endfacet
  facet normal -1.000000e+00 -4.666916e-07 3.093119e-06
    outer loop
      vertex -8.495321e+00 1.124242e+01 0.000000e+00
      vertex -8.495307e+00 -5.108232e+00 2.157822e+00
      vertex -8.495312e+00 5.109288e+00 2.157841e+00
    endloop
  endfacet
  facet normal -1.000000e+00 -6.362127e-07 1.808592e-06
    outer loop
      vertex -8.495321e+00 1.124242e+01 0.000000e+00
      vertex -8.495307e+00 -1.124238e+01 0.000000e+00
      vertex -8.495307e+00 -5.108232e+00 2.157822e+00
    endloop
  endfacet
  facet normal -9.804879e-01 5.316375e-04 -1.965783e-01
    outer loop
      vertex -8.495321e+00 1.124242e+01 2.178059e+00
      vertex -8.495317e+00 7.513334e+00 2.167950e+00
      vertex -1.150470e+01 7.513334e+00 1.717806e+01
    endloop
  endfacet
  facet normal -9.804627e-01 0.000000e+00 -1.967054e-01
    outer loop
      vertex -1.150470e+01 7.513334e+00 1.717806e+01
      vertex -1.150470e+01 1.124242e+01 1.717806e+01
      vertex -8.495321e+00 1.124242e+01 2.178059e+00
    endloop
  endfacet
  facet normal -9.804626e-01 2.638345e-06 -1.967061e-01
    outer loop
      vertex -8.495307e+00 -1.124254e+01 2.178059e+00
      vertex -1.150469e+01 -1.124254e+01 1.717802e+01
      vertex -1.150468e+01 -7.512424e+00 1.717806e+01
    endloop
  endfacet
  facet normal -9.804880e-01 -5.327433e-04 -1.965780e-01
    outer loop
      vertex -1.150468e+01 -7.512424e+00 1.717806e+01
      vertex -8.495307e+00 -7.512424e+00 2.167950e+00
      vertex -8.495307e+00 -1.124254e+01 2.178059e+00
    endloop
  endfacet
  facet normal -9.025648e-01 0.000000e+00 -4.305540e-01
    outer loop
      vertex -1.150469e+01 -1.124254e+01 1.717802e+01
      vertex -6.148427e+00 -1.124254e+01 5.949764e+00
      vertex -6.148427e+00 -1.387919e+01 5.949764e+00
    endloop
  endfacet
  facet normal -9.025648e-01 0.000000e+00 -4.305540e-01
    outer loop
      vertex -6.148427e+00 -1.387919e+01 5.949764e+00
      vertex -1.150469e+01 -1.387919e+01 1.717802e+01
      vertex -1.150469e+01 -1.124254e+01 1.717802e+01
    endloop
  endfacet
  facet normal -6.123234e-17 0.000000e+00 1.000000e+00
    outer loop
      vertex -3.495309e+00 -1.124254e+01 1.717802e+01
      vertex -1.150469e+01 -1.124254e+01 1.717802e+01
      vertex -1.150469e+01 -1.387919e+01 1.717802e+01
    endloop
  endfacet
  facet normal -6.123234e-17 0.000000e+00 1.000000e+00
    outer loop
      vertex -1.150469e+01 -1.387919e+01 1.717802e+01
      vertex -3.495309e+00 -1.387919e+01 1.717802e+01
      vertex -3.495309e+00 -1.124254e+01 1.717802e+01
    endloop
  endfacet
  facet normal 1.000000e+00 0.000000e+00 2.123380e-07
    outer loop
      vertex -3.495307e+00 -1.124254e+01 5.949764e+00
      vertex -3.495309e+00 -1.124254e+01 1.717802e+01
      vertex -3.495309e+00 -1.387919e+01 1.717802e+01
    endloop
  endfacet
  facet normal 1.000000e+00 0.000000e+00 2.123380e-07
    outer loop
      vertex -3.495309e+00 -1.387919e+01 1.717802e+01
      vertex -3.495307e+00 -1.387919e+01 5.949764e+00
      vertex -3.495307e+00 -1.124254e+01 5.949764e+00
    endloop
  endfacet
  facet normal 6.123234e-17 0.000000e+00 -1.000000e+00
    outer loop
      vertex -6.148427e+00 -1.124254e+01 5.949764e+00
      vertex -3.495307e+00 -1.124254e+01 5.949764e+00
      vertex -3.495307e+00 -1.387919e+01 5.949764e+00
    endloop
  endfacet
  facet normal 6.123234e-17 0.000000e+00 -1.000000e+00
    outer loop
      vertex -3.495307e+00 -1.387919e+01 5.949764e+00
      vertex -6.148427e+00 -1.387919e+01 5.949764e+00
      vertex -6.148427e+00 -1.124254e+01 5.949764e+00
    endloop
  endfacet
  facet normal 0.000000e+00 -1.000000e+00 0.000000e+00
    outer loop
      vertex -3.495307e+00 -1.387919e+01 5.949764e+00
      vertex -3.495309e+00 -1.387919e+01 1.717802e+01
      vertex -1.150469e+01 -1.387919e+01 1.717802e+01
    endloop
  endfacet
  facet normal 0.000000e+00 -1.000000e+00 0.000000e+00
    outer loop
      vertex -1.150469e+01 -1.387919e+01 1.717802e+01
      vertex -6.148427e+00 -1.387919e+01 5.949764e+00
      vertex -3.495307e+00 -1.387919e+01 5.949764e+00
    endloop
  endfacet
  facet normal 6.123234e-17 0.000000e+00 -1.000000e+00
    outer loop
      vertex -3.495321e+00 1.124242e+01 5.949764e+00
      vertex -6.148427e+00 1.124242e+01 5.949764e+00
      vertex -6.148427e+00 1.366063e+01 5.949764e+00
    endloop
  endfacet
  facet normal 6.123234e-17 0.000000e+00 -1.000000e+00
    outer loop
      vertex -6.148427e+00 1.366063e+01 5.949764e+00
      vertex -3.495321e+00 1.366063e+01 5.949764e+00
      vertex -3.495321e+00 1.124242e+01 5.949764e+00
    endloop
  endfacet
  facet normal 1.000000e+00 0.000000e+00 6.123234e-17
    outer loop
      vertex -3.495321e+00 1.124242e+01 1.717806e+01
      vertex -3.495321e+00 1.124242e+01 5.949764e+00
      vertex -3.495321e+00 1.366063e+01 5.949764e+00
    endloop
  endfacet
  facet normal 1.000000e+00 0.000000e+00 6.123234e-17
    outer loop
      vertex -3.495321e+00 1.366063e+01 5.949764e+00
      vertex -3.495321e+00 1.366063e+01 1.717806e+01
      vertex -3.495321e+00 1.124242e+01 1.717806e+01
    endloop
  endfacet
  facet normal -6.123234e-17 0.000000e+00 1.000000e+00
    outer loop
      vertex -1.150470e+01 1.124242e+01 1.717806e+01
      vertex -3.495321e+00 1.124242e+01 1.717806e+01
      vertex -3.495321e+00 1.366063e+01 1.717806e+01
    endloop
  endfacet
  facet normal -6.123234e-17 0.000000e+00 1.000000e+00
    outer loop
      vertex -3.495321e+00 1.366063e+01 1.717806e+01
      vertex -1.150470e+01 1.366063e+01 1.717806e+01
      vertex -1.150470e+01 1.124242e+01 1.717806e+01
    endloop
  endfacet
  facet normal -9.025650e-01 0.000000e+00 -4.305536e-01
    outer loop
      vertex -6.148427e+00 1.124242e+01 5.949764e+00
      vertex -1.150470e+01 1.124242e+01 1.717806e+01
      vertex -1.150470e+01 1.366063e+01 1.717806e+01
    endloop
  endfacet
  facet normal -9.025650e-01 0.000000e+00 -4.305536e-01
    outer loop
      vertex -1.150470e+01 1.366063e+01 1.717806e+01
      vertex -6.148427e+00 1.366063e+01 5.949764e+00
      vertex -6.148427e+00 1.124242e+01 5.949764e+00
    endloop
  endfacet
  facet normal 0.000000e+00 1.000000e+00 0.000000e+00
    outer loop
      vertex -1.150470e+01 1.366063e+01 1.717806e+01
      vertex -3.495321e+00 1.366063e+01 1.717806e+01
      vertex -3.495321e+00 1.366063e+01 5.949764e+00
    endloop
  endfacet
  facet normal 0.000000e+00 1.000000e+00 0.000000e+00
    outer loop
      vertex -3.495321e+00 1.366063e+01 5.949764e+00
      vertex -6.148427e+00 1.366063e+01 5.949764e+00
      vertex -1.150470e+01 1.366063e+01 1.717806e+01
    endloop
  endfacet
endsolid Default
