solid Default
  facet normal -1.836970e-16 0.000000e+00 -1.000000e+00
    outer loop
      vertex 4.762722e+00 -6.236883e+00 9.536743e-06
      vertex 1.095398e+01 -6.236902e+00 9.536743e-06
      vertex 1.095398e+01 -8.752113e+00 9.536743e-06
    endloop
  endfacet
  facet normal 1.540362e-06 3.791614e-06 -1.000000e+00
    outer loop
      vertex 1.095398e+01 -8.752113e+00 9.536743e-06
      vertex 4.762724e+00 -8.752103e+00 0.000000e+00
      vertex 4.762722e+00 -6.236883e+00 9.536743e-06
    endloop
  endfacet
  facet normal 1.000000e+00 -4.739588e-07 3.053766e-12
    outer loop
      vertex 1.295398e+01 -6.236899e+00 9.536743e-06
      vertex 1.295398e+01 -3.721717e+00 0.000000e+00
      vertex 1.295398e+01 -3.721703e+00 2.220087e+00
    endloop
  endfacet
  facet normal 1.000000e+00 -9.479176e-07 5.369661e-07
    outer loop
      vertex 1.295398e+01 -3.721703e+00 2.220087e+00
      vertex 1.295398e+01 -6.236885e+00 2.220087e+00
      vertex 1.295398e+01 -6.236899e+00 9.536743e-06
    endloop
  endfacet
  facet normal 1.836970e-16 0.000000e+00 1.000000e+00
    outer loop
      vertex 1.095398e+01 -6.236885e+00 2.220087e+00
      vertex 1.295398e+01 -6.236885e+00 2.220087e+00
      vertex 1.295398e+01 -3.721703e+00 2.220087e+00
    endloop
  endfacet
  facet normal 1.836970e-16 0.000000e+00 1.000000e+00
    outer loop
      vertex 1.295398e+01 -3.721703e+00 2.220087e+00
      vertex 1.095398e+01 -7.217008e-01 2.220087e+00
      vertex 1.095398e+01 -6.236885e+00 2.220087e+00
    endloop
  endfacet
  facet normal -2.593768e-06 -1.729179e-06 -1.000000e+00
    outer loop
      vertex 1.095398e+01 -6.236902e+00 9.536743e-06
      vertex 1.095398e+01 -7.217175e-01 0.000000e+00
      vertex 1.295398e+01 -3.721717e+00 0.000000e+00
    endloop
  endfacet
  facet normal 4.519842e-12 -3.791670e-06 -1.000000e+00
    outer loop
      vertex 1.295398e+01 -3.721717e+00 0.000000e+00
      vertex 1.295398e+01 -6.236899e+00 9.536743e-06
      vertex 1.095398e+01 -6.236902e+00 9.536743e-06
    endloop
  endfacet
  facet normal -1.921833e-06 1.281220e-06 -1.000000e+00
    outer loop
      vertex 1.095398e+01 7.217640e-01 9.536743e-06
      vertex 1.295398e+01 3.721767e+00 9.536743e-06
      vertex 1.295398e+01 -3.721717e+00 0.000000e+00
    endloop
  endfacet
  facet normal 9.910144e-06 6.606766e-06 -1.000000e+00
    outer loop
      vertex 1.295398e+01 -3.721717e+00 0.000000e+00
      vertex 1.095398e+01 -7.217175e-01 0.000000e+00
      vertex 1.095398e+01 7.217640e-01 9.536743e-06
    endloop
  endfacet
  facet normal 1.000000e+00 1.601527e-07 -4.301599e-13
    outer loop
      vertex 1.295398e+01 3.721767e+00 9.536743e-06
      vertex 1.295398e+01 3.721773e+00 2.220097e+00
      vertex 1.295398e+01 -3.721703e+00 2.220087e+00
    endloop
  endfacet
  facet normal 1.000000e+00 1.601525e-07 -1.032126e-12
    outer loop
      vertex 1.295398e+01 -3.721703e+00 2.220087e+00
      vertex 1.295398e+01 -3.721717e+00 0.000000e+00
      vertex 1.295398e+01 3.721767e+00 9.536743e-06
    endloop
  endfacet
  facet normal 9.910206e-06 -6.606801e-06 1.000000e+00
    outer loop
      vertex 1.295398e+01 3.721773e+00 2.220097e+00
      vertex 1.095398e+01 7.217711e-01 2.220097e+00
      vertex 1.095398e+01 -7.217008e-01 2.220087e+00
    endloop
  endfacet
  facet normal -1.921834e-06 -1.281222e-06 1.000000e+00
    outer loop
      vertex 1.095398e+01 -7.217008e-01 2.220087e+00
      vertex 1.295398e+01 -3.721703e+00 2.220087e+00
      vertex 1.295398e+01 3.721773e+00 2.220097e+00
    endloop
  endfacet
  facet normal 1.502531e-06 6.606766e-06 -1.000000e+00
    outer loop
      vertex -4.539794e-01 1.908162e+00 9.536743e-06
      vertex 4.762721e+00 7.217640e-01 9.536743e-06
      vertex 4.762722e+00 -7.217175e-01 0.000000e+00
    endloop
  endfacet
  facet normal -5.683195e-07 2.498970e-06 -1.000000e+00
    outer loop
      vertex 4.762722e+00 -7.217175e-01 0.000000e+00
      vertex -4.539788e-01 -1.908107e+00 0.000000e+00
      vertex -4.539794e-01 1.908162e+00 9.536743e-06
    endloop
  endfacet
  facet normal -1.000000e+00 3.547799e-12 -5.369577e-07
    outer loop
      vertex 1.095398e+01 7.217711e-01 2.220097e+00
      vertex 1.095398e+01 7.217640e-01 9.536743e-06
      vertex 1.095398e+01 -7.217175e-01 0.000000e+00
    endloop
  endfacet
  facet normal -1.000000e+00 -8.258511e-07 6.208443e-12
    outer loop
      vertex 1.095398e+01 -7.217175e-01 0.000000e+00
      vertex 1.095398e+01 -7.217008e-01 2.220087e+00
      vertex 1.095398e+01 7.217711e-01 2.220097e+00
    endloop
  endfacet
  facet normal 1.000000e+00 8.258530e-07 -2.736614e-07
    outer loop
      vertex 4.762721e+00 7.217640e-01 9.536743e-06
      vertex 4.762722e+00 7.217687e-01 2.178068e+00
      vertex 4.762723e+00 -7.217032e-01 2.178059e+00
    endloop
  endfacet
  facet normal 1.000000e+00 4.129265e-07 -5.473218e-07
    outer loop
      vertex 4.762723e+00 -7.217032e-01 2.178059e+00
      vertex 4.762722e+00 -7.217175e-01 0.000000e+00
      vertex 4.762721e+00 7.217640e-01 9.536743e-06
    endloop
  endfacet
  facet normal 3.702276e-07 -1.000000e+00 2.189276e-06
    outer loop
      vertex 1.095398e+01 7.217711e-01 2.220097e+00
      vertex 4.762722e+00 7.217687e-01 2.178068e+00
      vertex 4.762721e+00 7.217640e-01 9.536743e-06
    endloop
  endfacet
  facet normal -2.449288e-16 -1.000000e+00 3.221747e-06
    outer loop
      vertex 4.762721e+00 7.217640e-01 9.536743e-06
      vertex 1.095398e+01 7.217640e-01 9.536743e-06
      vertex 1.095398e+01 7.217711e-01 2.220097e+00
    endloop
  endfacet
  facet normal 2.449282e-16 1.000000e+00 -6.567828e-06
    outer loop
      vertex 1.095398e+01 -7.217175e-01 0.000000e+00
      vertex 4.762722e+00 -7.217175e-01 0.000000e+00
      vertex 4.762723e+00 -7.217032e-01 2.178059e+00
    endloop
  endfacet
  facet normal -3.340584e-07 1.000000e+00 -7.517408e-06
    outer loop
      vertex 4.762723e+00 -7.217032e-01 2.178059e+00
      vertex 1.095398e+01 -7.217008e-01 2.220087e+00
      vertex 1.095398e+01 -7.217175e-01 0.000000e+00
    endloop
  endfacet
  facet normal -3.932553e-07 -1.729179e-06 -1.000000e+00
    outer loop
      vertex 4.762723e+00 6.236948e+00 0.000000e+00
      vertex 4.762721e+00 7.217640e-01 9.536743e-06
      vertex -4.539794e-01 1.908162e+00 9.536743e-06
    endloop
  endfacet
  facet normal 3.932540e-07 -1.729185e-06 -1.000000e+00
    outer loop
      vertex 4.762722e+00 -7.217175e-01 0.000000e+00
      vertex 4.762722e+00 -6.236883e+00 9.536743e-06
      vertex -4.539788e-01 -1.908107e+00 0.000000e+00
    endloop
  endfacet
  facet normal -6.385754e-01 7.695593e-01 -1.756460e-06
    outer loop
      vertex 4.762724e+00 6.236954e+00 2.178068e+00
      vertex 4.762723e+00 6.236948e+00 0.000000e+00
      vertex -4.539794e-01 1.908162e+00 9.536743e-06
    endloop
  endfacet
  facet normal 1.000000e+00 -2.449294e-16 -1.836970e-16
    outer loop
      vertex 1.295398e+01 6.236956e+00 2.220097e+00
      vertex 1.295398e+01 3.721773e+00 2.220097e+00
      vertex 1.295398e+01 3.721767e+00 9.536743e-06
    endloop
  endfacet
  facet normal 1.000000e+00 -2.449294e-16 -1.836970e-16
    outer loop
      vertex 1.295398e+01 3.721767e+00 9.536743e-06
      vertex 1.295398e+01 6.236950e+00 9.536743e-06
      vertex 1.295398e+01 6.236956e+00 2.220097e+00
    endloop
  endfacet
  facet normal -5.960463e-07 1.000000e+00 -2.147822e-06
    outer loop
      vertex 1.095398e+01 6.236950e+00 0.000000e+00
      vertex 1.095398e+01 6.236954e+00 2.220097e+00
      vertex 1.295398e+01 6.236956e+00 2.220097e+00
    endloop
  endfacet
  facet normal 1.280232e-11 1.000000e+00 -2.684789e-06
    outer loop
      vertex 1.295398e+01 6.236956e+00 2.220097e+00
      vertex 1.295398e+01 6.236950e+00 9.536743e-06
      vertex 1.095398e+01 6.236950e+00 0.000000e+00
    endloop
  endfacet
  facet normal 1.836970e-16 0.000000e+00 1.000000e+00
    outer loop
      vertex 1.095398e+01 6.236954e+00 2.220097e+00
      vertex 1.095398e+01 7.217711e-01 2.220097e+00
      vertex 1.295398e+01 3.721773e+00 2.220097e+00
    endloop
  endfacet
  facet normal 1.836970e-16 0.000000e+00 1.000000e+00
    outer loop
      vertex 1.295398e+01 3.721773e+00 2.220097e+00
      vertex 1.295398e+01 6.236956e+00 2.220097e+00
      vertex 1.095398e+01 6.236954e+00 2.220097e+00
    endloop
  endfacet
  facet normal 4.768373e-06 -1.729179e-06 -1.000000e+00
    outer loop
      vertex 1.095398e+01 7.217640e-01 9.536743e-06
      vertex 1.095398e+01 6.236950e+00 0.000000e+00
      vertex 1.295398e+01 6.236950e+00 9.536743e-06
    endloop
  endfacet
  facet normal -1.836970e-16 0.000000e+00 -1.000000e+00
    outer loop
      vertex 1.295398e+01 6.236950e+00 9.536743e-06
      vertex 1.295398e+01 3.721767e+00 9.536743e-06
      vertex 1.095398e+01 7.217640e-01 9.536743e-06
    endloop
  endfacet
  facet normal 1.192093e-06 -1.000000e+00 7.517442e-06
    outer loop
      vertex 1.095398e+01 -6.236885e+00 2.220087e+00
      vertex 1.095398e+01 -6.236902e+00 9.536743e-06
      vertex 1.295398e+01 -6.236899e+00 9.536743e-06
    endloop
  endfacet
  facet normal -2.449282e-16 -1.000000e+00 6.443520e-06
    outer loop
      vertex 1.295398e+01 -6.236899e+00 9.536743e-06
      vertex 1.295398e+01 -6.236885e+00 2.220087e+00
      vertex 1.095398e+01 -6.236885e+00 2.220087e+00
    endloop
  endfacet
  facet normal -6.788198e-03 -1.608681e-09 9.999769e-01
    outer loop
      vertex 4.762723e+00 8.752108e+00 2.178068e+00
      vertex 4.762724e+00 6.236954e+00 2.178068e+00
      vertex 1.095398e+01 6.236954e+00 2.220097e+00
    endloop
  endfacet
  facet normal -6.788195e-03 6.434723e-09 9.999769e-01
    outer loop
      vertex 1.095398e+01 6.236954e+00 2.220097e+00
      vertex 1.095398e+01 8.752108e+00 2.220097e+00
      vertex 4.762723e+00 8.752108e+00 2.178068e+00
    endloop
  endfacet
  facet normal 1.000000e+00 -9.479284e-07 5.369574e-07
    outer loop
      vertex 1.095398e+01 8.752108e+00 2.220097e+00
      vertex 1.095398e+01 6.236954e+00 2.220097e+00
      vertex 1.095398e+01 6.236950e+00 0.000000e+00
    endloop
  endfacet
  facet normal 1.000000e+00 -9.479269e-07 5.369557e-07
    outer loop
      vertex 1.095398e+01 6.236950e+00 0.000000e+00
      vertex 1.095398e+01 8.752113e+00 9.536743e-06
      vertex 1.095398e+01 8.752108e+00 2.220097e+00
    endloop
  endfacet
  facet normal -1.000000e+00 7.109436e-07 5.473148e-07
    outer loop
      vertex 4.762724e+00 8.752112e+00 0.000000e+00
      vertex 4.762723e+00 6.236948e+00 0.000000e+00
      vertex 4.762724e+00 6.236954e+00 2.178068e+00
    endloop
  endfacet
  facet normal -1.000000e+00 -2.369821e-07 -5.473170e-07
    outer loop
      vertex 4.762724e+00 6.236954e+00 2.178068e+00
      vertex 4.762723e+00 8.752108e+00 2.178068e+00
      vertex 4.762724e+00 8.752112e+00 0.000000e+00
    endloop
  endfacet
  facet normal -7.302548e-13 3.791699e-06 -1.000000e+00
    outer loop
      vertex 1.095398e+01 8.752113e+00 9.536743e-06
      vertex 1.095398e+01 6.236950e+00 0.000000e+00
      vertex 4.762723e+00 6.236948e+00 0.000000e+00
    endloop
  endfacet
  facet normal 1.540356e-06 -1.095107e-12 -1.000000e+00
    outer loop
      vertex 4.762723e+00 6.236948e+00 0.000000e+00
      vertex 4.762724e+00 8.752112e+00 0.000000e+00
      vertex 1.095398e+01 8.752113e+00 9.536743e-06
    endloop
  endfacet
  facet normal -6.433170e-09 1.670567e-02 9.998604e-01
    outer loop
      vertex 4.762724e+00 -6.237212e+00 2.178068e+00
      vertex 4.762722e+00 -8.752108e+00 2.220087e+00
      vertex 1.095398e+01 -8.752106e+00 2.220087e+00
    endloop
  endfacet
  facet normal -6.786658e-03 -9.649643e-09 9.999769e-01
    outer loop
      vertex 1.095398e+01 -8.752106e+00 2.220087e+00
      vertex 1.095398e+01 -6.236885e+00 2.220087e+00
      vertex 4.762724e+00 -6.237212e+00 2.178068e+00
    endloop
  endfacet
  facet normal 1.000000e+00 1.421855e-06 -4.581059e-12
    outer loop
      vertex 1.095398e+01 -6.236885e+00 2.220087e+00
      vertex 1.095398e+01 -8.752106e+00 2.220087e+00
      vertex 1.095398e+01 -8.752113e+00 9.536743e-06
    endloop
  endfacet
  facet normal 1.000000e+00 4.739534e-07 1.073916e-06
    outer loop
      vertex 1.095398e+01 -8.752113e+00 9.536743e-06
      vertex 1.095398e+01 -6.236902e+00 9.536743e-06
      vertex 1.095398e+01 -6.236885e+00 2.220087e+00
    endloop
  endfacet
  facet normal -1.000000e+00 7.247378e-07 8.210880e-07
    outer loop
      vertex 4.762722e+00 -8.752108e+00 2.220087e+00
      vertex 4.762724e+00 -6.237212e+00 2.178068e+00
      vertex 4.762722e+00 -6.236883e+00 9.536743e-06
    endloop
  endfacet
  facet normal -1.000000e+00 -7.109244e-07 -8.054382e-07
    outer loop
      vertex 4.762722e+00 -6.236883e+00 9.536743e-06
      vertex 4.762724e+00 -8.752103e+00 0.000000e+00
      vertex 4.762722e+00 -8.752108e+00 2.220087e+00
    endloop
  endfacet
  facet normal -5.327289e-12 -1.729179e-06 -1.000000e+00
    outer loop
      vertex 1.095398e+01 -7.217175e-01 0.000000e+00
      vertex 1.095398e+01 -6.236902e+00 9.536743e-06
      vertex 4.762722e+00 -6.236883e+00 9.536743e-06
    endloop
  endfacet
  facet normal -1.836974e-16 -1.729185e-06 -1.000000e+00
    outer loop
      vertex 4.762722e+00 -6.236883e+00 9.536743e-06
      vertex 4.762722e+00 -7.217175e-01 0.000000e+00
      vertex 1.095398e+01 -7.217175e-01 0.000000e+00
    endloop
  endfacet
  facet normal -1.836974e-16 -1.729179e-06 -1.000000e+00
    outer loop
      vertex 1.095398e+01 6.236950e+00 0.000000e+00
      vertex 1.095398e+01 7.217640e-01 9.536743e-06
      vertex 4.762721e+00 7.217640e-01 9.536743e-06
    endloop
  endfacet
  facet normal 3.327604e-13 -1.729179e-06 -1.000000e+00
    outer loop
      vertex 4.762721e+00 7.217640e-01 9.536743e-06
      vertex 4.762723e+00 6.236948e+00 0.000000e+00
      vertex 1.095398e+01 6.236950e+00 0.000000e+00
    endloop
  endfacet
  facet normal -6.788195e-03 1.662628e-18 9.999769e-01
    outer loop
      vertex 4.762723e+00 8.752108e+00 2.178068e+00
      vertex 1.095398e+01 8.752108e+00 2.220097e+00
      vertex 1.095398e+01 9.752112e+00 2.220097e+00
    endloop
  endfacet
  facet normal -6.788194e-03 -4.046063e-09 9.999769e-01
    outer loop
      vertex 1.095398e+01 9.752112e+00 2.220097e+00
      vertex 4.762723e+00 9.752112e+00 2.178068e+00
      vertex 4.762723e+00 8.752108e+00 2.178068e+00
    endloop
  endfacet
  facet normal 1.540355e-06 9.536708e-06 -1.000000e+00
    outer loop
      vertex 1.095398e+01 8.752113e+00 9.536743e-06
      vertex 4.762724e+00 8.752112e+00 0.000000e+00
      vertex 4.762724e+00 9.752116e+00 9.536743e-06
    endloop
  endfacet
  facet normal -1.836970e-16 0.000000e+00 -1.000000e+00
    outer loop
      vertex 4.762724e+00 9.752116e+00 9.536743e-06
      vertex 1.095398e+01 9.752117e+00 9.536743e-06
      vertex 1.095398e+01 8.752113e+00 9.536743e-06
    endloop
  endfacet
  facet normal -1.925446e-07 1.000000e+00 2.147831e-06
    outer loop
      vertex 1.095398e+01 9.752112e+00 2.220097e+00
      vertex 1.095398e+01 9.752117e+00 9.536743e-06
      vertex 4.762724e+00 9.752116e+00 9.536743e-06
    endloop
  endfacet
  facet normal -1.114618e-08 1.000000e+00 1.641957e-06
    outer loop
      vertex 4.762724e+00 9.752116e+00 9.536743e-06
      vertex 4.762723e+00 9.752112e+00 2.178068e+00
      vertex 1.095398e+01 9.752112e+00 2.220097e+00
    endloop
  endfacet
  facet normal 1.540357e-06 -3.772786e-22 -1.000000e+00
    outer loop
      vertex 4.762724e+00 -8.752103e+00 0.000000e+00
      vertex 1.095398e+01 -8.752113e+00 9.536743e-06
      vertex 1.095398e+01 -9.752117e+00 9.536743e-06
    endloop
  endfacet
  facet normal 1.540357e-06 -3.772786e-22 -1.000000e+00
    outer loop
      vertex 1.095398e+01 -9.752117e+00 9.536743e-06
      vertex 4.762724e+00 -9.752107e+00 0.000000e+00
      vertex 4.762724e+00 -8.752103e+00 0.000000e+00
    endloop
  endfacet
  facet normal 1.836970e-16 0.000000e+00 1.000000e+00
    outer loop
      vertex 1.095398e+01 -8.752106e+00 2.220087e+00
      vertex 4.762722e+00 -8.752108e+00 2.220087e+00
      vertex 4.762722e+00 -9.752112e+00 2.220087e+00
    endloop
  endfacet
  facet normal 1.836970e-16 0.000000e+00 1.000000e+00
    outer loop
      vertex 4.762722e+00 -9.752112e+00 2.220087e+00
      vertex 1.095398e+01 -9.752110e+00 2.220087e+00
      vertex 1.095398e+01 -8.752106e+00 2.220087e+00
    endloop
  endfacet
  facet normal 3.850890e-07 -1.000000e+00 3.221760e-06
    outer loop
      vertex 1.095398e+01 -9.752117e+00 9.536743e-06
      vertex 1.095398e+01 -9.752110e+00 2.220087e+00
      vertex 4.762722e+00 -9.752112e+00 2.220087e+00
    endloop
  endfacet
  facet normal -1.540353e-06 -1.000000e+00 -2.147832e-06
    outer loop
      vertex 4.762722e+00 -9.752112e+00 2.220087e+00
      vertex 4.762724e+00 -9.752107e+00 0.000000e+00
      vertex 1.095398e+01 -9.752117e+00 9.536743e-06
    endloop
  endfacet
  facet normal 1.836970e-16 0.000000e+00 1.000000e+00
    outer loop
      vertex 1.095398e+01 -8.752106e+00 2.220087e+00
      vertex 1.095398e+01 -9.752110e+00 2.220087e+00
      vertex 1.120398e+01 -8.752106e+00 2.220087e+00
    endloop
  endfacet
  facet normal 1.836970e-16 0.000000e+00 1.000000e+00
    outer loop
      vertex 4.762722e+00 -9.752112e+00 2.220087e+00
      vertex 4.762722e+00 -8.752108e+00 2.220087e+00
      vertex 4.512722e+00 -8.752108e+00 2.220087e+00
    endloop
  endfacet
  facet normal -1.836970e-16 0.000000e+00 -1.000000e+00
    outer loop
      vertex 4.762724e+00 -8.752103e+00 0.000000e+00
      vertex 4.762724e+00 -9.752107e+00 0.000000e+00
      vertex 4.512722e+00 -8.752103e+00 0.000000e+00
    endloop
  endfacet
  facet normal -1.836970e-16 0.000000e+00 -1.000000e+00
    outer loop
      vertex 1.095398e+01 -9.752117e+00 9.536743e-06
      vertex 1.095398e+01 -8.752113e+00 9.536743e-06
      vertex 1.120398e+01 -8.752113e+00 9.536743e-06
    endloop
  endfacet
  facet normal -1.836947e-16 9.536707e-06 -1.000000e+00
    outer loop
      vertex 4.762724e+00 9.752116e+00 9.536743e-06
      vertex 4.762724e+00 8.752112e+00 0.000000e+00
      vertex 4.512723e+00 8.752112e+00 0.000000e+00
    endloop
  endfacet
  facet normal -1.836970e-16 0.000000e+00 -1.000000e+00
    outer loop
      vertex 1.095398e+01 8.752113e+00 9.536743e-06
      vertex 1.095398e+01 9.752117e+00 9.536743e-06
      vertex 1.120398e+01 8.752113e+00 9.536743e-06
    endloop
  endfacet
  facet normal 1.836970e-16 0.000000e+00 1.000000e+00
    outer loop
      vertex 4.762723e+00 8.752108e+00 2.178068e+00
      vertex 4.762723e+00 9.752112e+00 2.178068e+00
      vertex 4.512723e+00 8.752108e+00 2.178068e+00
    endloop
  endfacet
  facet normal 1.836970e-16 0.000000e+00 1.000000e+00
    outer loop
      vertex 1.095398e+01 9.752112e+00 2.220097e+00
      vertex 1.095398e+01 8.752108e+00 2.220097e+00
      vertex 1.120398e+01 8.752108e+00 2.220097e+00
    endloop
  endfacet
  facet normal 2.449298e-16 1.000000e+00 2.147831e-06
    outer loop
      vertex 4.762722e+00 -8.752108e+00 2.220087e+00
      vertex 4.762724e+00 -8.752103e+00 0.000000e+00
      vertex 4.512722e+00 -8.752103e+00 0.000000e+00
    endloop
  endfacet
  facet normal 2.449298e-16 1.000000e+00 2.147831e-06
    outer loop
      vertex 4.512722e+00 -8.752103e+00 0.000000e+00
      vertex 4.512722e+00 -8.752108e+00 2.220087e+00
      vertex 4.762722e+00 -8.752108e+00 2.220087e+00
    endloop
  endfacet
  facet normal 2.449288e-16 1.000000e+00 -3.221760e-06
    outer loop
      vertex 1.095398e+01 -8.752113e+00 9.536743e-06
      vertex 1.095398e+01 -8.752106e+00 2.220087e+00
      vertex 1.120398e+01 -8.752106e+00 2.220087e+00
    endloop
  endfacet
  facet normal 2.449288e-16 1.000000e+00 -3.221760e-06
    outer loop
      vertex 1.120398e+01 -8.752106e+00 2.220087e+00
      vertex 1.120398e+01 -8.752113e+00 9.536743e-06
      vertex 1.095398e+01 -8.752113e+00 9.536743e-06
    endloop
  endfacet
  facet normal -2.449298e-16 -1.000000e+00 -2.147831e-06
    outer loop
      vertex 1.095398e+01 8.752108e+00 2.220097e+00
      vertex 1.095398e+01 8.752113e+00 9.536743e-06
      vertex 1.120398e+01 8.752113e+00 9.536743e-06
    endloop
  endfacet
  facet normal -2.449298e-16 -1.000000e+00 -2.147831e-06
    outer loop
      vertex 1.120398e+01 8.752113e+00 9.536743e-06
      vertex 1.120398e+01 8.752108e+00 2.220097e+00
      vertex 1.095398e+01 8.752108e+00 2.220097e+00
    endloop
  endfacet
  facet normal -2.449297e-16 -1.000000e+00 -1.641950e-06
    outer loop
      vertex 4.762724e+00 8.752112e+00 0.000000e+00
      vertex 4.762723e+00 8.752108e+00 2.178068e+00
      vertex 4.512723e+00 8.752108e+00 2.178068e+00
    endloop
  endfacet
  facet normal -2.449297e-16 -1.000000e+00 -1.641950e-06
    outer loop
      vertex 4.512723e+00 8.752108e+00 2.178068e+00
      vertex 4.512723e+00 8.752112e+00 0.000000e+00
      vertex 4.762724e+00 8.752112e+00 0.000000e+00
    endloop
  endfacet
  facet normal 9.701428e-01 -2.425345e-01 7.813881e-07
    outer loop
      vertex 1.120398e+01 -8.752113e+00 9.536743e-06
      vertex 1.120398e+01 -8.752106e+00 2.220087e+00
      vertex 1.095398e+01 -9.752110e+00 2.220087e+00
    endloop
  endfacet
  facet normal 9.701428e-01 -2.425345e-01 7.813881e-07
    outer loop
      vertex 1.095398e+01 -9.752110e+00 2.220087e+00
      vertex 1.095398e+01 -9.752117e+00 9.536743e-06
      vertex 1.120398e+01 -8.752113e+00 9.536743e-06
    endloop
  endfacet
  facet normal -9.701424e-01 -2.425362e-01 -5.209267e-07
    outer loop
      vertex 4.512722e+00 -8.752108e+00 2.220087e+00
      vertex 4.512722e+00 -8.752103e+00 0.000000e+00
      vertex 4.762724e+00 -9.752107e+00 0.000000e+00
    endloop
  endfacet
  facet normal -9.701428e-01 -2.425345e-01 -1.302312e-06
    outer loop
      vertex 4.762724e+00 -9.752107e+00 0.000000e+00
      vertex 4.762722e+00 -9.752112e+00 2.220087e+00
      vertex 4.512722e+00 -8.752108e+00 2.220087e+00
    endloop
  endfacet
  facet normal -9.701430e-01 2.425340e-01 6.637163e-07
    outer loop
      vertex 4.512723e+00 8.752112e+00 0.000000e+00
      vertex 4.512723e+00 8.752108e+00 2.178068e+00
      vertex 4.762723e+00 9.752112e+00 2.178068e+00
    endloop
  endfacet
  facet normal -9.701425e-01 2.425356e-01 -1.327444e-07
    outer loop
      vertex 4.762723e+00 9.752112e+00 2.178068e+00
      vertex 4.762724e+00 9.752116e+00 9.536743e-06
      vertex 4.512723e+00 8.752112e+00 0.000000e+00
    endloop
  endfacet
  facet normal 9.701428e-01 2.425345e-01 1.041849e-06
    outer loop
      vertex 1.120398e+01 8.752108e+00 2.220097e+00
      vertex 1.120398e+01 8.752113e+00 9.536743e-06
      vertex 1.095398e+01 9.752117e+00 9.536743e-06
    endloop
  endfacet
  facet normal 9.701428e-01 2.425345e-01 1.041849e-06
    outer loop
      vertex 1.095398e+01 9.752117e+00 9.536743e-06
      vertex 1.095398e+01 9.752112e+00 2.220097e+00
      vertex 1.120398e+01 8.752108e+00 2.220097e+00
    endloop
  endfacet
  facet normal -6.385745e-01 -7.695600e-01 -1.157255e-04
    outer loop
      vertex 4.762722e+00 -6.236883e+00 9.536743e-06
      vertex 4.762724e+00 -6.237212e+00 2.178068e+00
      vertex -4.539788e-01 -1.908107e+00 0.000000e+00
    endloop
  endfacet
  facet normal 9.346539e-01 -1.577224e-06 3.555587e-01
    outer loop
      vertex 4.762723e+00 -7.217032e-01 2.178059e+00
      vertex 4.762722e+00 7.217687e-01 2.178068e+00
      vertex -1.045398e+01 9.540910e-01 4.217807e+01
    endloop
  endfacet
  facet normal 9.346540e-01 5.839192e-07 3.555586e-01
    outer loop
      vertex -1.045398e+01 9.540910e-01 4.217807e+01
      vertex -1.045398e+01 -9.540397e-01 4.217807e+01
      vertex 4.762723e+00 -7.217032e-01 2.178059e+00
    endloop
  endfacet
  facet normal -6.021902e-01 -7.885161e-01 -1.249371e-01
    outer loop
      vertex -4.539788e-01 -1.908107e+00 0.000000e+00
      vertex 4.762724e+00 -6.237212e+00 2.178068e+00
      vertex -1.045398e+01 -9.540397e-01 4.217807e+01
    endloop
  endfacet
  facet normal NaN NaN NaN
    outer loop
      vertex -4.539794e-01 1.908162e+00 9.536743e-06
      vertex -4.539788e-01 -1.908107e+00 0.000000e+00
      vertex -4.539788e-01 -1.908107e+00 0.000000e+00
    endloop
  endfacet
  facet normal NaN NaN NaN
    outer loop
      vertex -4.539788e-01 -1.908107e+00 0.000000e+00
      vertex -4.539794e-01 1.908162e+00 9.536743e-06
      vertex -4.539794e-01 1.908162e+00 9.536743e-06
    endloop
  endfacet
  facet normal 1.836970e-16 0.000000e+00 1.000000e+00
    outer loop
      vertex -1.045398e+01 -9.540397e-01 4.217807e+01
      vertex -1.045398e+01 9.540910e-01 4.217807e+01
      vertex -1.295398e+01 9.541005e-01 4.217807e+01
    endloop
  endfacet
  facet normal 1.836970e-16 0.000000e+00 1.000000e+00
    outer loop
      vertex -1.295398e+01 9.541005e-01 4.217807e+01
      vertex -1.295398e+01 -9.540397e-01 4.217807e+01
      vertex -1.045398e+01 -9.540397e-01 4.217807e+01
    endloop
  endfacet
  facet normal -5.753622e-02 9.983034e-01 8.940440e-03
    outer loop
      vertex -1.295398e+01 9.540933e-01 2.608904e+01
      vertex -1.045398e+01 9.540910e-01 4.217807e+01
      vertex -4.539794e-01 1.908162e+00 9.536743e-06
    endloop
  endfacet
  facet normal NaN NaN NaN
    outer loop
      vertex -4.539794e-01 1.908162e+00 9.536743e-06
      vertex -1.295398e+01 9.540933e-01 2.608904e+01
      vertex -4.539794e-01 1.908162e+00 9.536743e-06
    endloop
  endfacet
  facet normal 3.814697e-06 1.000000e+00 -4.445613e-07
    outer loop
      vertex -1.295398e+01 9.540933e-01 2.608904e+01
      vertex -1.295398e+01 9.541005e-01 4.217807e+01
      vertex -1.045398e+01 9.540910e-01 4.217807e+01
    endloop
  endfacet
  facet normal -5.753526e-02 -9.983034e-01 8.940586e-03
    outer loop
      vertex -1.295398e+01 -9.540468e-01 2.608904e+01
      vertex -4.539788e-01 -1.908107e+00 0.000000e+00
      vertex -1.045398e+01 -9.540397e-01 4.217807e+01
    endloop
  endfacet
  facet normal -2.449293e-16 -1.000000e+00 4.445612e-07
    outer loop
      vertex -1.295398e+01 -9.540397e-01 4.217807e+01
      vertex -1.295398e+01 -9.540468e-01 2.608904e+01
      vertex -1.045398e+01 -9.540397e-01 4.217807e+01
    endloop
  endfacet
  facet normal NaN NaN NaN
    outer loop
      vertex -1.295398e+01 -9.540468e-01 2.608904e+01
      vertex -4.539788e-01 -1.908107e+00 0.000000e+00
      vertex -4.539788e-01 -1.908107e+00 0.000000e+00
    endloop
  endfacet
  facet normal -1.000000e+00 -6.247407e-07 3.704704e-08
    outer loop
      vertex -1.295398e+01 9.541005e-01 4.217807e+01
      vertex -1.295398e+01 9.540933e-01 2.608904e+01
      vertex -1.295398e+01 -9.540468e-01 2.608904e+01
    endloop
  endfacet
  facet normal -1.000000e+00 -6.247407e-07 3.704704e-08
    outer loop
      vertex -1.295398e+01 -9.540468e-01 2.608904e+01
      vertex -1.295398e+01 -9.540397e-01 4.217807e+01
      vertex -1.295398e+01 9.541005e-01 4.217807e+01
    endloop
  endfacet
  facet normal -9.018294e-01 9.389326e-07 -4.320922e-01
    outer loop
      vertex -1.295398e+01 9.540933e-01 2.608904e+01
      vertex -4.539794e-01 1.908162e+00 9.536743e-06
      vertex -4.539788e-01 -1.908107e+00 0.000000e+00
    endloop
  endfacet
  facet normal -9.018295e-01 -5.634096e-07 -4.320921e-01
    outer loop
      vertex -4.539788e-01 -1.908107e+00 0.000000e+00
      vertex -1.295398e+01 -9.540468e-01 2.608904e+01
      vertex -1.295398e+01 9.540933e-01 2.608904e+01
    endloop
  endfacet
  facet normal -6.021637e-01 7.885374e-01 -1.249303e-01
    outer loop
      vertex -4.539794e-01 1.908162e+00 9.536743e-06
      vertex -1.045398e+01 9.540910e-01 4.217807e+01
      vertex 4.762724e+00 6.236954e+00 2.178068e+00
    endloop
  endfacet
  facet normal -3.525890e-02 8.635940e-18 9.993782e-01
    outer loop
      vertex 9.762724e+00 3.479357e+00 2.178068e+00
      vertex 1.095398e+01 7.217711e-01 2.220097e+00
      vertex 1.095398e+01 6.236954e+00 2.220097e+00
    endloop
  endfacet
  facet normal -6.787684e-03 -1.230725e-02 9.999012e-01
    outer loop
      vertex 4.762724e+00 6.236954e+00 2.178068e+00
      vertex 9.762724e+00 3.479357e+00 2.178068e+00
      vertex 1.095398e+01 6.236954e+00 2.220097e+00
    endloop
  endfacet
  facet normal -6.787687e-03 1.230729e-02 9.999012e-01
    outer loop
      vertex 9.762724e+00 3.479357e+00 2.178068e+00
      vertex 4.762722e+00 7.217687e-01 2.178068e+00
      vertex 1.095398e+01 7.217711e-01 2.220097e+00
    endloop
  endfacet
  facet normal -3.525091e-02 1.523879e-08 9.993785e-01
    outer loop
      vertex 9.762724e+00 -3.479450e+00 2.178068e+00
      vertex 1.095398e+01 -6.236885e+00 2.220087e+00
      vertex 1.095398e+01 -7.217008e-01 2.220087e+00
    endloop
  endfacet
  facet normal -6.787677e-03 -1.230311e-02 9.999012e-01
    outer loop
      vertex 4.762723e+00 -7.217032e-01 2.178059e+00
      vertex 9.762724e+00 -3.479450e+00 2.178068e+00
      vertex 1.095398e+01 -7.217008e-01 2.220087e+00
    endloop
  endfacet
  facet normal -6.786795e-03 1.230490e-02 9.999013e-01
    outer loop
      vertex 9.762724e+00 -3.479450e+00 2.178068e+00
      vertex 4.762724e+00 -6.237212e+00 2.178068e+00
      vertex 1.095398e+01 -6.236885e+00 2.220087e+00
    endloop
  endfacet
  facet normal 4.626723e-01 -8.388550e-01 2.868041e-01
    outer loop
      vertex 4.762724e+00 -6.237212e+00 2.178068e+00
      vertex 9.762724e+00 -3.479450e+00 2.178068e+00
      vertex -1.045398e+01 -9.540397e-01 4.217807e+01
    endloop
  endfacet
  facet normal 4.745745e-01 8.604395e-01 1.855342e-01
    outer loop
      vertex 9.762724e+00 -3.479450e+00 2.178068e+00
      vertex 4.762723e+00 -7.217032e-01 2.178059e+00
      vertex -1.045398e+01 -9.540397e-01 4.217807e+01
    endloop
  endfacet
  facet normal 4.745544e-01 -8.604523e-01 1.855264e-01
    outer loop
      vertex 4.762722e+00 7.217687e-01 2.178068e+00
      vertex 9.762724e+00 3.479357e+00 2.178068e+00
      vertex -1.045398e+01 9.540910e-01 4.217807e+01
    endloop
  endfacet
  facet normal 4.626529e-01 8.388698e-01 2.867922e-01
    outer loop
      vertex 9.762724e+00 3.479357e+00 2.178068e+00
      vertex 4.762724e+00 6.236954e+00 2.178068e+00
      vertex -1.045398e+01 9.540910e-01 4.217807e+01
    endloop
  endfacet
endsolid Default
